<?xml version="1.0" encoding="UTF-8" standalone="no"?><svg xmlns="http://www.w3.org/2000/svg" xmlns:xlink="http://www.w3.org/1999/xlink" contentScriptType="application/ecmascript" contentStyleType="text/css" height="609px" preserveAspectRatio="none" style="width:1817px;height:609px;" version="1.1" viewBox="0 0 1817 609" width="1817px" zoomAndPan="magnify"><defs><filter height="300%" id="f9epbk8oxk5sk" width="300%" x="-1" y="-1"><feGaussianBlur result="blurOut" stdDeviation="2.0"/><feColorMatrix in="blurOut" result="blurOut2" type="matrix" values="0 0 0 0 0 0 0 0 0 0 0 0 0 0 0 0 0 0 .4 0"/><feOffset dx="4.0" dy="4.0" in="blurOut2" result="blurOut3"/><feBlend in="SourceGraphic" in2="blurOut3" mode="normal"/></filter></defs><g><!--MD5=[18fb3b8b891fcc2cffdb0edb6f0580a1]
class AIBoat--><rect codeLine="1" fill="#FEFECE" filter="url(#f9epbk8oxk5sk)" height="48" id="AIBoat" style="stroke:#A80036;stroke-width:1.5;" width="67" x="1375" y="439"/><ellipse cx="1390" cy="455" fill="#ADD1B2" rx="11" ry="11" style="stroke:#A80036;stroke-width:1.0;"/><path d="M1392.7656,450.875 Q1392.9219,450.6563 1393.1094,450.5469 Q1393.2969,450.4375 1393.5156,450.4375 Q1393.8906,450.4375 1394.125,450.6953 Q1394.3594,450.9531 1394.3594,451.5625 L1394.3594,453.0156 Q1394.3594,453.625 1394.125,453.8906 Q1393.8906,454.1563 1393.5156,454.1563 Q1393.1719,454.1563 1392.9688,453.9531 Q1392.7656,453.7656 1392.6563,453.25 Q1392.6094,452.8906 1392.4219,452.7031 Q1392.0938,452.3281 1391.4844,452.1094 Q1390.875,451.8906 1390.25,451.8906 Q1389.4844,451.8906 1388.8516,452.2188 Q1388.2188,452.5469 1387.7266,453.2969 Q1387.2344,454.0469 1387.2344,455.0781 L1387.2344,456.1719 Q1387.2344,457.4063 1388.125,458.2266 Q1389.0156,459.0469 1390.6094,459.0469 Q1391.5469,459.0469 1392.2031,458.7969 Q1392.5938,458.6406 1393.0156,458.2031 Q1393.2813,457.9375 1393.4297,457.8594 Q1393.5781,457.7813 1393.7813,457.7813 Q1394.1094,457.7813 1394.3672,458.0391 Q1394.625,458.2969 1394.625,458.6406 Q1394.625,458.9844 1394.2813,459.3906 Q1393.7813,459.9688 1392.9844,460.2969 Q1391.9063,460.75 1390.6094,460.75 Q1389.0938,460.75 1387.8906,460.125 Q1386.9063,459.625 1386.2188,458.5547 Q1385.5313,457.4844 1385.5313,456.2031 L1385.5313,455.0469 Q1385.5313,453.7188 1386.1484,452.5703 Q1386.7656,451.4219 1387.8594,450.8047 Q1388.9531,450.1875 1390.1875,450.1875 Q1390.9219,450.1875 1391.5703,450.3516 Q1392.2188,450.5156 1392.7656,450.875 Z " fill="#000000"/><text fill="#000000" font-family="sans-serif" font-size="12" lengthAdjust="spacing" textLength="35" x="1404" y="459.9102">AIBoat</text><line style="stroke:#A80036;stroke-width:1.5;" x1="1376" x2="1441" y1="471" y2="471"/><line style="stroke:#A80036;stroke-width:1.5;" x1="1376" x2="1441" y1="479" y2="479"/><!--MD5=[d7378ac8501ce6417ec16634b4f30c76]
class Boat--><rect codeLine="2" fill="#FEFECE" filter="url(#f9epbk8oxk5sk)" height="48" id="Boat" style="stroke:#A80036;stroke-width:1.5;" width="57" x="1113" y="331"/><ellipse cx="1128" cy="347" fill="#A9DCDF" rx="11" ry="11" style="stroke:#A80036;stroke-width:1.0;"/><path d="M1130.1875,348.7656 L1126.0469,348.7656 L1125.625,349.7969 L1126.0469,349.7969 Q1126.6563,349.7969 1126.9219,350.0313 Q1127.1875,350.2656 1127.1875,350.6563 Q1127.1875,351.0313 1126.9219,351.2656 Q1126.6563,351.5 1126.0469,351.5 L1123.75,351.5 Q1123.1406,351.5 1122.8828,351.2656 Q1122.625,351.0313 1122.625,350.6406 Q1122.625,350.2656 1122.8984,350.0234 Q1123.1719,349.7813 1123.7969,349.7969 L1126.4688,343.1406 L1125.3594,343.1406 Q1124.75,343.1406 1124.4844,342.9063 Q1124.2188,342.6719 1124.2188,342.2813 Q1124.2188,341.9063 1124.4844,341.6719 Q1124.75,341.4375 1125.3594,341.4375 L1129.0313,341.4375 L1132.4219,349.7969 Q1133.0156,349.7969 1133.2031,349.9375 Q1133.5938,350.2031 1133.5938,350.6563 Q1133.5938,351.0313 1133.3359,351.2656 Q1133.0781,351.5 1132.4688,351.5 L1130.1719,351.5 Q1129.5625,351.5 1129.2969,351.2656 Q1129.0313,351.0313 1129.0313,350.6406 Q1129.0313,350.2656 1129.2969,350.0313 Q1129.5625,349.7969 1130.1719,349.7969 L1130.5938,349.7969 L1130.1875,348.7656 Z M1129.4688,347.0625 L1128.1094,343.6875 L1126.7344,347.0625 L1129.4688,347.0625 Z " fill="#000000"/><text fill="#000000" font-family="sans-serif" font-size="12" font-style="italic" lengthAdjust="spacing" textLength="25" x="1142" y="351.9102">Boat</text><line style="stroke:#A80036;stroke-width:1.5;" x1="1114" x2="1169" y1="363" y2="363"/><line style="stroke:#A80036;stroke-width:1.5;" x1="1114" x2="1169" y1="371" y2="371"/><!--MD5=[48e88c162c5505361c629eb6ff3812a8]
class GameState--><rect codeLine="34" fill="#FEFECE" filter="url(#f9epbk8oxk5sk)" height="48" id="GameState" style="stroke:#A80036;stroke-width:1.5;" width="94" x="105.5" y="223"/><ellipse cx="120.5" cy="239" fill="#ADD1B2" rx="11" ry="11" style="stroke:#A80036;stroke-width:1.0;"/><path d="M123.2656,234.875 Q123.4219,234.6563 123.6094,234.5469 Q123.7969,234.4375 124.0156,234.4375 Q124.3906,234.4375 124.625,234.6953 Q124.8594,234.9531 124.8594,235.5625 L124.8594,237.0156 Q124.8594,237.625 124.625,237.8906 Q124.3906,238.1563 124.0156,238.1563 Q123.6719,238.1563 123.4688,237.9531 Q123.2656,237.7656 123.1563,237.25 Q123.1094,236.8906 122.9219,236.7031 Q122.5938,236.3281 121.9844,236.1094 Q121.375,235.8906 120.75,235.8906 Q119.9844,235.8906 119.3516,236.2188 Q118.7188,236.5469 118.2266,237.2969 Q117.7344,238.0469 117.7344,239.0781 L117.7344,240.1719 Q117.7344,241.4063 118.625,242.2266 Q119.5156,243.0469 121.1094,243.0469 Q122.0469,243.0469 122.7031,242.7969 Q123.0938,242.6406 123.5156,242.2031 Q123.7813,241.9375 123.9297,241.8594 Q124.0781,241.7813 124.2813,241.7813 Q124.6094,241.7813 124.8672,242.0391 Q125.125,242.2969 125.125,242.6406 Q125.125,242.9844 124.7813,243.3906 Q124.2813,243.9688 123.4844,244.2969 Q122.4063,244.75 121.1094,244.75 Q119.5938,244.75 118.3906,244.125 Q117.4063,243.625 116.7188,242.5547 Q116.0313,241.4844 116.0313,240.2031 L116.0313,239.0469 Q116.0313,237.7188 116.6484,236.5703 Q117.2656,235.4219 118.3594,234.8047 Q119.4531,234.1875 120.6875,234.1875 Q121.4219,234.1875 122.0703,234.3516 Q122.7188,234.5156 123.2656,234.875 Z " fill="#000000"/><text fill="#000000" font-family="sans-serif" font-size="12" lengthAdjust="spacing" textLength="62" x="134.5" y="243.9102">GameState</text><line style="stroke:#A80036;stroke-width:1.5;" x1="106.5" x2="198.5" y1="255" y2="255"/><line style="stroke:#A80036;stroke-width:1.5;" x1="106.5" x2="198.5" y1="263" y2="263"/><!--MD5=[7ad87d4687b1c74665962eea80f8b40b]
class BoatRace--><rect codeLine="4" fill="#FEFECE" filter="url(#f9epbk8oxk5sk)" height="48" id="BoatRace" style="stroke:#A80036;stroke-width:1.5;" width="86" x="582.5" y="223"/><ellipse cx="597.5" cy="239" fill="#ADD1B2" rx="11" ry="11" style="stroke:#A80036;stroke-width:1.0;"/><path d="M600.2656,234.875 Q600.4219,234.6563 600.6094,234.5469 Q600.7969,234.4375 601.0156,234.4375 Q601.3906,234.4375 601.625,234.6953 Q601.8594,234.9531 601.8594,235.5625 L601.8594,237.0156 Q601.8594,237.625 601.625,237.8906 Q601.3906,238.1563 601.0156,238.1563 Q600.6719,238.1563 600.4688,237.9531 Q600.2656,237.7656 600.1563,237.25 Q600.1094,236.8906 599.9219,236.7031 Q599.5938,236.3281 598.9844,236.1094 Q598.375,235.8906 597.75,235.8906 Q596.9844,235.8906 596.3516,236.2188 Q595.7188,236.5469 595.2266,237.2969 Q594.7344,238.0469 594.7344,239.0781 L594.7344,240.1719 Q594.7344,241.4063 595.625,242.2266 Q596.5156,243.0469 598.1094,243.0469 Q599.0469,243.0469 599.7031,242.7969 Q600.0938,242.6406 600.5156,242.2031 Q600.7813,241.9375 600.9297,241.8594 Q601.0781,241.7813 601.2813,241.7813 Q601.6094,241.7813 601.8672,242.0391 Q602.125,242.2969 602.125,242.6406 Q602.125,242.9844 601.7813,243.3906 Q601.2813,243.9688 600.4844,244.2969 Q599.4063,244.75 598.1094,244.75 Q596.5938,244.75 595.3906,244.125 Q594.4063,243.625 593.7188,242.5547 Q593.0313,241.4844 593.0313,240.2031 L593.0313,239.0469 Q593.0313,237.7188 593.6484,236.5703 Q594.2656,235.4219 595.3594,234.8047 Q596.4531,234.1875 597.6875,234.1875 Q598.4219,234.1875 599.0703,234.3516 Q599.7188,234.5156 600.2656,234.875 Z " fill="#000000"/><text fill="#000000" font-family="sans-serif" font-size="12" lengthAdjust="spacing" textLength="54" x="611.5" y="243.9102">BoatRace</text><line style="stroke:#A80036;stroke-width:1.5;" x1="583.5" x2="667.5" y1="255" y2="255"/><line style="stroke:#A80036;stroke-width:1.5;" x1="583.5" x2="667.5" y1="263" y2="263"/><!--MD5=[dad577432b370c149ed719f544827710]
class CollisionBounds--><rect codeLine="5" fill="#FEFECE" filter="url(#f9epbk8oxk5sk)" height="48" id="CollisionBounds" style="stroke:#A80036;stroke-width:1.5;" width="124" x="856.5" y="331"/><ellipse cx="871.5" cy="347" fill="#ADD1B2" rx="11" ry="11" style="stroke:#A80036;stroke-width:1.0;"/><path d="M874.2656,342.875 Q874.4219,342.6563 874.6094,342.5469 Q874.7969,342.4375 875.0156,342.4375 Q875.3906,342.4375 875.625,342.6953 Q875.8594,342.9531 875.8594,343.5625 L875.8594,345.0156 Q875.8594,345.625 875.625,345.8906 Q875.3906,346.1563 875.0156,346.1563 Q874.6719,346.1563 874.4688,345.9531 Q874.2656,345.7656 874.1563,345.25 Q874.1094,344.8906 873.9219,344.7031 Q873.5938,344.3281 872.9844,344.1094 Q872.375,343.8906 871.75,343.8906 Q870.9844,343.8906 870.3516,344.2188 Q869.7188,344.5469 869.2266,345.2969 Q868.7344,346.0469 868.7344,347.0781 L868.7344,348.1719 Q868.7344,349.4063 869.625,350.2266 Q870.5156,351.0469 872.1094,351.0469 Q873.0469,351.0469 873.7031,350.7969 Q874.0938,350.6406 874.5156,350.2031 Q874.7813,349.9375 874.9297,349.8594 Q875.0781,349.7813 875.2813,349.7813 Q875.6094,349.7813 875.8672,350.0391 Q876.125,350.2969 876.125,350.6406 Q876.125,350.9844 875.7813,351.3906 Q875.2813,351.9688 874.4844,352.2969 Q873.4063,352.75 872.1094,352.75 Q870.5938,352.75 869.3906,352.125 Q868.4063,351.625 867.7188,350.5547 Q867.0313,349.4844 867.0313,348.2031 L867.0313,347.0469 Q867.0313,345.7188 867.6484,344.5703 Q868.2656,343.4219 869.3594,342.8047 Q870.4531,342.1875 871.6875,342.1875 Q872.4219,342.1875 873.0703,342.3516 Q873.7188,342.5156 874.2656,342.875 Z " fill="#000000"/><text fill="#000000" font-family="sans-serif" font-size="12" lengthAdjust="spacing" textLength="92" x="885.5" y="351.9102">CollisionBounds</text><line style="stroke:#A80036;stroke-width:1.5;" x1="857.5" x2="979.5" y1="363" y2="363"/><line style="stroke:#A80036;stroke-width:1.5;" x1="857.5" x2="979.5" y1="371" y2="371"/><!--MD5=[aacfa9e8a43f0443332ec4be3ea5f7a8]
class CollisionObject--><rect codeLine="6" fill="#FEFECE" filter="url(#f9epbk8oxk5sk)" height="48" id="CollisionObject" style="stroke:#A80036;stroke-width:1.5;" width="116" x="860.5" y="223"/><ellipse cx="875.5" cy="239" fill="#B4A7E5" rx="11" ry="11" style="stroke:#A80036;stroke-width:1.0;"/><path d="M876.4531,235.6406 L876.4531,242.2969 L878.1719,242.2969 Q878.7813,242.2969 879.0469,242.5313 Q879.3125,242.7656 879.3125,243.1563 Q879.3125,243.5313 879.0469,243.7656 Q878.7813,244 878.1719,244 L873.0313,244 Q872.4219,244 872.1563,243.7656 Q871.8906,243.5313 871.8906,243.1406 Q871.8906,242.7656 872.1563,242.5313 Q872.4219,242.2969 873.0313,242.2969 L874.75,242.2969 L874.75,235.6406 L873.0313,235.6406 Q872.4219,235.6406 872.1563,235.4063 Q871.8906,235.1719 871.8906,234.7813 Q871.8906,234.4063 872.1563,234.1719 Q872.4219,233.9375 873.0313,233.9375 L878.1719,233.9375 Q878.7813,233.9375 879.0469,234.1719 Q879.3125,234.4063 879.3125,234.7813 Q879.3125,235.1719 879.0469,235.4063 Q878.7813,235.6406 878.1719,235.6406 L876.4531,235.6406 Z " fill="#000000"/><text fill="#000000" font-family="sans-serif" font-size="12" font-style="italic" lengthAdjust="spacing" textLength="84" x="889.5" y="243.9102">CollisionObject</text><line style="stroke:#A80036;stroke-width:1.5;" x1="861.5" x2="975.5" y1="255" y2="255"/><line style="stroke:#A80036;stroke-width:1.5;" x1="861.5" x2="975.5" y1="263" y2="263"/><!--MD5=[064f7a74fee85463ec1a30143664ee17]
class GameObject--><rect codeLine="7" fill="#FEFECE" filter="url(#f9epbk8oxk5sk)" height="48" id="GameObject" style="stroke:#A80036;stroke-width:1.5;" width="102" x="462.5" y="115"/><ellipse cx="477.5" cy="131" fill="#A9DCDF" rx="11" ry="11" style="stroke:#A80036;stroke-width:1.0;"/><path d="M479.6875,132.7656 L475.5469,132.7656 L475.125,133.7969 L475.5469,133.7969 Q476.1563,133.7969 476.4219,134.0313 Q476.6875,134.2656 476.6875,134.6563 Q476.6875,135.0313 476.4219,135.2656 Q476.1563,135.5 475.5469,135.5 L473.25,135.5 Q472.6406,135.5 472.3828,135.2656 Q472.125,135.0313 472.125,134.6406 Q472.125,134.2656 472.3984,134.0234 Q472.6719,133.7813 473.2969,133.7969 L475.9688,127.1406 L474.8594,127.1406 Q474.25,127.1406 473.9844,126.9063 Q473.7188,126.6719 473.7188,126.2813 Q473.7188,125.9063 473.9844,125.6719 Q474.25,125.4375 474.8594,125.4375 L478.5313,125.4375 L481.9219,133.7969 Q482.5156,133.7969 482.7031,133.9375 Q483.0938,134.2031 483.0938,134.6563 Q483.0938,135.0313 482.8359,135.2656 Q482.5781,135.5 481.9688,135.5 L479.6719,135.5 Q479.0625,135.5 478.7969,135.2656 Q478.5313,135.0313 478.5313,134.6406 Q478.5313,134.2656 478.7969,134.0313 Q479.0625,133.7969 479.6719,133.7969 L480.0938,133.7969 L479.6875,132.7656 Z M478.9688,131.0625 L477.6094,127.6875 L476.2344,131.0625 L478.9688,131.0625 Z " fill="#000000"/><text fill="#000000" font-family="sans-serif" font-size="12" font-style="italic" lengthAdjust="spacing" textLength="70" x="491.5" y="135.9102">GameObject</text><line style="stroke:#A80036;stroke-width:1.5;" x1="463.5" x2="563.5" y1="147" y2="147"/><line style="stroke:#A80036;stroke-width:1.5;" x1="463.5" x2="563.5" y1="155" y2="155"/><!--MD5=[fe88339b2988a1ef1c95b68c104d7624]
class MoveableObject--><rect codeLine="8" fill="#FEFECE" filter="url(#f9epbk8oxk5sk)" height="48" id="MoveableObject" style="stroke:#A80036;stroke-width:1.5;" width="122" x="703.5" y="223"/><ellipse cx="718.5" cy="239" fill="#A9DCDF" rx="11" ry="11" style="stroke:#A80036;stroke-width:1.0;"/><path d="M720.6875,240.7656 L716.5469,240.7656 L716.125,241.7969 L716.5469,241.7969 Q717.1563,241.7969 717.4219,242.0313 Q717.6875,242.2656 717.6875,242.6563 Q717.6875,243.0313 717.4219,243.2656 Q717.1563,243.5 716.5469,243.5 L714.25,243.5 Q713.6406,243.5 713.3828,243.2656 Q713.125,243.0313 713.125,242.6406 Q713.125,242.2656 713.3984,242.0234 Q713.6719,241.7813 714.2969,241.7969 L716.9688,235.1406 L715.8594,235.1406 Q715.25,235.1406 714.9844,234.9063 Q714.7188,234.6719 714.7188,234.2813 Q714.7188,233.9063 714.9844,233.6719 Q715.25,233.4375 715.8594,233.4375 L719.5313,233.4375 L722.9219,241.7969 Q723.5156,241.7969 723.7031,241.9375 Q724.0938,242.2031 724.0938,242.6563 Q724.0938,243.0313 723.8359,243.2656 Q723.5781,243.5 722.9688,243.5 L720.6719,243.5 Q720.0625,243.5 719.7969,243.2656 Q719.5313,243.0313 719.5313,242.6406 Q719.5313,242.2656 719.7969,242.0313 Q720.0625,241.7969 720.6719,241.7969 L721.0938,241.7969 L720.6875,240.7656 Z M719.9688,239.0625 L718.6094,235.6875 L717.2344,239.0625 L719.9688,239.0625 Z " fill="#000000"/><text fill="#000000" font-family="sans-serif" font-size="12" font-style="italic" lengthAdjust="spacing" textLength="90" x="732.5" y="243.9102">MoveableObject</text><line style="stroke:#A80036;stroke-width:1.5;" x1="704.5" x2="824.5" y1="255" y2="255"/><line style="stroke:#A80036;stroke-width:1.5;" x1="704.5" x2="824.5" y1="263" y2="263"/><!--MD5=[23868d926b4091f874f65c50fc3e197e]
class Obstacle--><rect codeLine="9" fill="#FEFECE" filter="url(#f9epbk8oxk5sk)" height="48" id="Obstacle" style="stroke:#A80036;stroke-width:1.5;" width="81" x="422" y="331"/><ellipse cx="437" cy="347" fill="#A9DCDF" rx="11" ry="11" style="stroke:#A80036;stroke-width:1.0;"/><path d="M439.1875,348.7656 L435.0469,348.7656 L434.625,349.7969 L435.0469,349.7969 Q435.6563,349.7969 435.9219,350.0313 Q436.1875,350.2656 436.1875,350.6563 Q436.1875,351.0313 435.9219,351.2656 Q435.6563,351.5 435.0469,351.5 L432.75,351.5 Q432.1406,351.5 431.8828,351.2656 Q431.625,351.0313 431.625,350.6406 Q431.625,350.2656 431.8984,350.0234 Q432.1719,349.7813 432.7969,349.7969 L435.4688,343.1406 L434.3594,343.1406 Q433.75,343.1406 433.4844,342.9063 Q433.2188,342.6719 433.2188,342.2813 Q433.2188,341.9063 433.4844,341.6719 Q433.75,341.4375 434.3594,341.4375 L438.0313,341.4375 L441.4219,349.7969 Q442.0156,349.7969 442.2031,349.9375 Q442.5938,350.2031 442.5938,350.6563 Q442.5938,351.0313 442.3359,351.2656 Q442.0781,351.5 441.4688,351.5 L439.1719,351.5 Q438.5625,351.5 438.2969,351.2656 Q438.0313,351.0313 438.0313,350.6406 Q438.0313,350.2656 438.2969,350.0313 Q438.5625,349.7969 439.1719,349.7969 L439.5938,349.7969 L439.1875,348.7656 Z M438.4688,347.0625 L437.1094,343.6875 L435.7344,347.0625 L438.4688,347.0625 Z " fill="#000000"/><text fill="#000000" font-family="sans-serif" font-size="12" font-style="italic" lengthAdjust="spacing" textLength="49" x="451" y="351.9102">Obstacle</text><line style="stroke:#A80036;stroke-width:1.5;" x1="423" x2="502" y1="363" y2="363"/><line style="stroke:#A80036;stroke-width:1.5;" x1="423" x2="502" y1="371" y2="371"/><!--MD5=[6e59e257303d1e16cb6f7f17f2110772]
class PowerUp--><rect codeLine="10" fill="#FEFECE" filter="url(#f9epbk8oxk5sk)" height="48" id="PowerUp" style="stroke:#A80036;stroke-width:1.5;" width="82" x="731.5" y="331"/><ellipse cx="746.5" cy="347" fill="#A9DCDF" rx="11" ry="11" style="stroke:#A80036;stroke-width:1.0;"/><path d="M748.6875,348.7656 L744.5469,348.7656 L744.125,349.7969 L744.5469,349.7969 Q745.1563,349.7969 745.4219,350.0313 Q745.6875,350.2656 745.6875,350.6563 Q745.6875,351.0313 745.4219,351.2656 Q745.1563,351.5 744.5469,351.5 L742.25,351.5 Q741.6406,351.5 741.3828,351.2656 Q741.125,351.0313 741.125,350.6406 Q741.125,350.2656 741.3984,350.0234 Q741.6719,349.7813 742.2969,349.7969 L744.9688,343.1406 L743.8594,343.1406 Q743.25,343.1406 742.9844,342.9063 Q742.7188,342.6719 742.7188,342.2813 Q742.7188,341.9063 742.9844,341.6719 Q743.25,341.4375 743.8594,341.4375 L747.5313,341.4375 L750.9219,349.7969 Q751.5156,349.7969 751.7031,349.9375 Q752.0938,350.2031 752.0938,350.6563 Q752.0938,351.0313 751.8359,351.2656 Q751.5781,351.5 750.9688,351.5 L748.6719,351.5 Q748.0625,351.5 747.7969,351.2656 Q747.5313,351.0313 747.5313,350.6406 Q747.5313,350.2656 747.7969,350.0313 Q748.0625,349.7969 748.6719,349.7969 L749.0938,349.7969 L748.6875,348.7656 Z M747.9688,347.0625 L746.6094,343.6875 L745.2344,347.0625 L747.9688,347.0625 Z " fill="#000000"/><text fill="#000000" font-family="sans-serif" font-size="12" font-style="italic" lengthAdjust="spacing" textLength="50" x="760.5" y="351.9102">PowerUp</text><line style="stroke:#A80036;stroke-width:1.5;" x1="732.5" x2="812.5" y1="363" y2="363"/><line style="stroke:#A80036;stroke-width:1.5;" x1="732.5" x2="812.5" y1="371" y2="371"/><!--MD5=[70eb40ec4e98294ad6befc3105d328c0]
class PowerUpSpeed--><rect codeLine="11" fill="#FEFECE" filter="url(#f9epbk8oxk5sk)" height="48" id="PowerUpSpeed" style="stroke:#A80036;stroke-width:1.5;" width="119" x="793" y="439"/><ellipse cx="808" cy="455" fill="#ADD1B2" rx="11" ry="11" style="stroke:#A80036;stroke-width:1.0;"/><path d="M810.7656,450.875 Q810.9219,450.6563 811.1094,450.5469 Q811.2969,450.4375 811.5156,450.4375 Q811.8906,450.4375 812.125,450.6953 Q812.3594,450.9531 812.3594,451.5625 L812.3594,453.0156 Q812.3594,453.625 812.125,453.8906 Q811.8906,454.1563 811.5156,454.1563 Q811.1719,454.1563 810.9688,453.9531 Q810.7656,453.7656 810.6563,453.25 Q810.6094,452.8906 810.4219,452.7031 Q810.0938,452.3281 809.4844,452.1094 Q808.875,451.8906 808.25,451.8906 Q807.4844,451.8906 806.8516,452.2188 Q806.2188,452.5469 805.7266,453.2969 Q805.2344,454.0469 805.2344,455.0781 L805.2344,456.1719 Q805.2344,457.4063 806.125,458.2266 Q807.0156,459.0469 808.6094,459.0469 Q809.5469,459.0469 810.2031,458.7969 Q810.5938,458.6406 811.0156,458.2031 Q811.2813,457.9375 811.4297,457.8594 Q811.5781,457.7813 811.7813,457.7813 Q812.1094,457.7813 812.3672,458.0391 Q812.625,458.2969 812.625,458.6406 Q812.625,458.9844 812.2813,459.3906 Q811.7813,459.9688 810.9844,460.2969 Q809.9063,460.75 808.6094,460.75 Q807.0938,460.75 805.8906,460.125 Q804.9063,459.625 804.2188,458.5547 Q803.5313,457.4844 803.5313,456.2031 L803.5313,455.0469 Q803.5313,453.7188 804.1484,452.5703 Q804.7656,451.4219 805.8594,450.8047 Q806.9531,450.1875 808.1875,450.1875 Q808.9219,450.1875 809.5703,450.3516 Q810.2188,450.5156 810.7656,450.875 Z " fill="#000000"/><text fill="#000000" font-family="sans-serif" font-size="12" lengthAdjust="spacing" textLength="87" x="822" y="459.9102">PowerUpSpeed</text><line style="stroke:#A80036;stroke-width:1.5;" x1="794" x2="911" y1="471" y2="471"/><line style="stroke:#A80036;stroke-width:1.5;" x1="794" x2="911" y1="479" y2="479"/><!--MD5=[25e00a08e13561d55d72e4d01232f4bf]
class PowerUpDrag--><rect codeLine="12" fill="#FEFECE" filter="url(#f9epbk8oxk5sk)" height="48" id="PowerUpDrag" style="stroke:#A80036;stroke-width:1.5;" width="110" x="947.5" y="439"/><ellipse cx="962.5" cy="455" fill="#ADD1B2" rx="11" ry="11" style="stroke:#A80036;stroke-width:1.0;"/><path d="M965.2656,450.875 Q965.4219,450.6563 965.6094,450.5469 Q965.7969,450.4375 966.0156,450.4375 Q966.3906,450.4375 966.625,450.6953 Q966.8594,450.9531 966.8594,451.5625 L966.8594,453.0156 Q966.8594,453.625 966.625,453.8906 Q966.3906,454.1563 966.0156,454.1563 Q965.6719,454.1563 965.4688,453.9531 Q965.2656,453.7656 965.1563,453.25 Q965.1094,452.8906 964.9219,452.7031 Q964.5938,452.3281 963.9844,452.1094 Q963.375,451.8906 962.75,451.8906 Q961.9844,451.8906 961.3516,452.2188 Q960.7188,452.5469 960.2266,453.2969 Q959.7344,454.0469 959.7344,455.0781 L959.7344,456.1719 Q959.7344,457.4063 960.625,458.2266 Q961.5156,459.0469 963.1094,459.0469 Q964.0469,459.0469 964.7031,458.7969 Q965.0938,458.6406 965.5156,458.2031 Q965.7813,457.9375 965.9297,457.8594 Q966.0781,457.7813 966.2813,457.7813 Q966.6094,457.7813 966.8672,458.0391 Q967.125,458.2969 967.125,458.6406 Q967.125,458.9844 966.7813,459.3906 Q966.2813,459.9688 965.4844,460.2969 Q964.4063,460.75 963.1094,460.75 Q961.5938,460.75 960.3906,460.125 Q959.4063,459.625 958.7188,458.5547 Q958.0313,457.4844 958.0313,456.2031 L958.0313,455.0469 Q958.0313,453.7188 958.6484,452.5703 Q959.2656,451.4219 960.3594,450.8047 Q961.4531,450.1875 962.6875,450.1875 Q963.4219,450.1875 964.0703,450.3516 Q964.7188,450.5156 965.2656,450.875 Z " fill="#000000"/><text fill="#000000" font-family="sans-serif" font-size="12" lengthAdjust="spacing" textLength="78" x="976.5" y="459.9102">PowerUpDrag</text><line style="stroke:#A80036;stroke-width:1.5;" x1="948.5" x2="1056.5" y1="471" y2="471"/><line style="stroke:#A80036;stroke-width:1.5;" x1="948.5" x2="1056.5" y1="479" y2="479"/><!--MD5=[baa69d73fe455a6639bca7ddb1d35c15]
class PowerUpEnergy--><rect codeLine="13" fill="#FEFECE" filter="url(#f9epbk8oxk5sk)" height="48" id="PowerUpEnergy" style="stroke:#A80036;stroke-width:1.5;" width="121" x="1093" y="439"/><ellipse cx="1108" cy="455" fill="#ADD1B2" rx="11" ry="11" style="stroke:#A80036;stroke-width:1.0;"/><path d="M1110.7656,450.875 Q1110.9219,450.6563 1111.1094,450.5469 Q1111.2969,450.4375 1111.5156,450.4375 Q1111.8906,450.4375 1112.125,450.6953 Q1112.3594,450.9531 1112.3594,451.5625 L1112.3594,453.0156 Q1112.3594,453.625 1112.125,453.8906 Q1111.8906,454.1563 1111.5156,454.1563 Q1111.1719,454.1563 1110.9688,453.9531 Q1110.7656,453.7656 1110.6563,453.25 Q1110.6094,452.8906 1110.4219,452.7031 Q1110.0938,452.3281 1109.4844,452.1094 Q1108.875,451.8906 1108.25,451.8906 Q1107.4844,451.8906 1106.8516,452.2188 Q1106.2188,452.5469 1105.7266,453.2969 Q1105.2344,454.0469 1105.2344,455.0781 L1105.2344,456.1719 Q1105.2344,457.4063 1106.125,458.2266 Q1107.0156,459.0469 1108.6094,459.0469 Q1109.5469,459.0469 1110.2031,458.7969 Q1110.5938,458.6406 1111.0156,458.2031 Q1111.2813,457.9375 1111.4297,457.8594 Q1111.5781,457.7813 1111.7813,457.7813 Q1112.1094,457.7813 1112.3672,458.0391 Q1112.625,458.2969 1112.625,458.6406 Q1112.625,458.9844 1112.2813,459.3906 Q1111.7813,459.9688 1110.9844,460.2969 Q1109.9063,460.75 1108.6094,460.75 Q1107.0938,460.75 1105.8906,460.125 Q1104.9063,459.625 1104.2188,458.5547 Q1103.5313,457.4844 1103.5313,456.2031 L1103.5313,455.0469 Q1103.5313,453.7188 1104.1484,452.5703 Q1104.7656,451.4219 1105.8594,450.8047 Q1106.9531,450.1875 1108.1875,450.1875 Q1108.9219,450.1875 1109.5703,450.3516 Q1110.2188,450.5156 1110.7656,450.875 Z " fill="#000000"/><text fill="#000000" font-family="sans-serif" font-size="12" lengthAdjust="spacing" textLength="89" x="1122" y="459.9102">PowerUpEnergy</text><line style="stroke:#A80036;stroke-width:1.5;" x1="1094" x2="1213" y1="471" y2="471"/><line style="stroke:#A80036;stroke-width:1.5;" x1="1094" x2="1213" y1="479" y2="479"/><!--MD5=[bb1664ab83e59acad550b7a0f7ef2002]
class PowerUpHealth--><rect codeLine="14" fill="#FEFECE" filter="url(#f9epbk8oxk5sk)" height="48" id="PowerUpHealth" style="stroke:#A80036;stroke-width:1.5;" width="119" x="475" y="439"/><ellipse cx="490" cy="455" fill="#ADD1B2" rx="11" ry="11" style="stroke:#A80036;stroke-width:1.0;"/><path d="M492.7656,450.875 Q492.9219,450.6563 493.1094,450.5469 Q493.2969,450.4375 493.5156,450.4375 Q493.8906,450.4375 494.125,450.6953 Q494.3594,450.9531 494.3594,451.5625 L494.3594,453.0156 Q494.3594,453.625 494.125,453.8906 Q493.8906,454.1563 493.5156,454.1563 Q493.1719,454.1563 492.9688,453.9531 Q492.7656,453.7656 492.6563,453.25 Q492.6094,452.8906 492.4219,452.7031 Q492.0938,452.3281 491.4844,452.1094 Q490.875,451.8906 490.25,451.8906 Q489.4844,451.8906 488.8516,452.2188 Q488.2188,452.5469 487.7266,453.2969 Q487.2344,454.0469 487.2344,455.0781 L487.2344,456.1719 Q487.2344,457.4063 488.125,458.2266 Q489.0156,459.0469 490.6094,459.0469 Q491.5469,459.0469 492.2031,458.7969 Q492.5938,458.6406 493.0156,458.2031 Q493.2813,457.9375 493.4297,457.8594 Q493.5781,457.7813 493.7813,457.7813 Q494.1094,457.7813 494.3672,458.0391 Q494.625,458.2969 494.625,458.6406 Q494.625,458.9844 494.2813,459.3906 Q493.7813,459.9688 492.9844,460.2969 Q491.9063,460.75 490.6094,460.75 Q489.0938,460.75 487.8906,460.125 Q486.9063,459.625 486.2188,458.5547 Q485.5313,457.4844 485.5313,456.2031 L485.5313,455.0469 Q485.5313,453.7188 486.1484,452.5703 Q486.7656,451.4219 487.8594,450.8047 Q488.9531,450.1875 490.1875,450.1875 Q490.9219,450.1875 491.5703,450.3516 Q492.2188,450.5156 492.7656,450.875 Z " fill="#000000"/><text fill="#000000" font-family="sans-serif" font-size="12" lengthAdjust="spacing" textLength="87" x="504" y="459.9102">PowerUpHealth</text><line style="stroke:#A80036;stroke-width:1.5;" x1="476" x2="593" y1="471" y2="471"/><line style="stroke:#A80036;stroke-width:1.5;" x1="476" x2="593" y1="479" y2="479"/><!--MD5=[95b81e5cbf3fae420eb8d85a4728edbb]
class PowerUpRotation--><rect codeLine="15" fill="#FEFECE" filter="url(#f9epbk8oxk5sk)" height="48" id="PowerUpRotation" style="stroke:#A80036;stroke-width:1.5;" width="129" x="629" y="439"/><ellipse cx="644" cy="455" fill="#ADD1B2" rx="11" ry="11" style="stroke:#A80036;stroke-width:1.0;"/><path d="M646.7656,450.875 Q646.9219,450.6563 647.1094,450.5469 Q647.2969,450.4375 647.5156,450.4375 Q647.8906,450.4375 648.125,450.6953 Q648.3594,450.9531 648.3594,451.5625 L648.3594,453.0156 Q648.3594,453.625 648.125,453.8906 Q647.8906,454.1563 647.5156,454.1563 Q647.1719,454.1563 646.9688,453.9531 Q646.7656,453.7656 646.6563,453.25 Q646.6094,452.8906 646.4219,452.7031 Q646.0938,452.3281 645.4844,452.1094 Q644.875,451.8906 644.25,451.8906 Q643.4844,451.8906 642.8516,452.2188 Q642.2188,452.5469 641.7266,453.2969 Q641.2344,454.0469 641.2344,455.0781 L641.2344,456.1719 Q641.2344,457.4063 642.125,458.2266 Q643.0156,459.0469 644.6094,459.0469 Q645.5469,459.0469 646.2031,458.7969 Q646.5938,458.6406 647.0156,458.2031 Q647.2813,457.9375 647.4297,457.8594 Q647.5781,457.7813 647.7813,457.7813 Q648.1094,457.7813 648.3672,458.0391 Q648.625,458.2969 648.625,458.6406 Q648.625,458.9844 648.2813,459.3906 Q647.7813,459.9688 646.9844,460.2969 Q645.9063,460.75 644.6094,460.75 Q643.0938,460.75 641.8906,460.125 Q640.9063,459.625 640.2188,458.5547 Q639.5313,457.4844 639.5313,456.2031 L639.5313,455.0469 Q639.5313,453.7188 640.1484,452.5703 Q640.7656,451.4219 641.8594,450.8047 Q642.9531,450.1875 644.1875,450.1875 Q644.9219,450.1875 645.5703,450.3516 Q646.2188,450.5156 646.7656,450.875 Z " fill="#000000"/><text fill="#000000" font-family="sans-serif" font-size="12" lengthAdjust="spacing" textLength="97" x="658" y="459.9102">PowerUpRotation</text><line style="stroke:#A80036;stroke-width:1.5;" x1="630" x2="757" y1="471" y2="471"/><line style="stroke:#A80036;stroke-width:1.5;" x1="630" x2="757" y1="479" y2="479"/><!--MD5=[4547f04c185f2c4543cd5e5112560fdc]
class ObstacleBranch--><rect codeLine="16" fill="#FEFECE" filter="url(#f9epbk8oxk5sk)" height="48" id="ObstacleBranch" style="stroke:#A80036;stroke-width:1.5;" width="120" x="319.5" y="439"/><ellipse cx="334.5" cy="455" fill="#ADD1B2" rx="11" ry="11" style="stroke:#A80036;stroke-width:1.0;"/><path d="M337.2656,450.875 Q337.4219,450.6563 337.6094,450.5469 Q337.7969,450.4375 338.0156,450.4375 Q338.3906,450.4375 338.625,450.6953 Q338.8594,450.9531 338.8594,451.5625 L338.8594,453.0156 Q338.8594,453.625 338.625,453.8906 Q338.3906,454.1563 338.0156,454.1563 Q337.6719,454.1563 337.4688,453.9531 Q337.2656,453.7656 337.1563,453.25 Q337.1094,452.8906 336.9219,452.7031 Q336.5938,452.3281 335.9844,452.1094 Q335.375,451.8906 334.75,451.8906 Q333.9844,451.8906 333.3516,452.2188 Q332.7188,452.5469 332.2266,453.2969 Q331.7344,454.0469 331.7344,455.0781 L331.7344,456.1719 Q331.7344,457.4063 332.625,458.2266 Q333.5156,459.0469 335.1094,459.0469 Q336.0469,459.0469 336.7031,458.7969 Q337.0938,458.6406 337.5156,458.2031 Q337.7813,457.9375 337.9297,457.8594 Q338.0781,457.7813 338.2813,457.7813 Q338.6094,457.7813 338.8672,458.0391 Q339.125,458.2969 339.125,458.6406 Q339.125,458.9844 338.7813,459.3906 Q338.2813,459.9688 337.4844,460.2969 Q336.4063,460.75 335.1094,460.75 Q333.5938,460.75 332.3906,460.125 Q331.4063,459.625 330.7188,458.5547 Q330.0313,457.4844 330.0313,456.2031 L330.0313,455.0469 Q330.0313,453.7188 330.6484,452.5703 Q331.2656,451.4219 332.3594,450.8047 Q333.4531,450.1875 334.6875,450.1875 Q335.4219,450.1875 336.0703,450.3516 Q336.7188,450.5156 337.2656,450.875 Z " fill="#000000"/><text fill="#000000" font-family="sans-serif" font-size="12" lengthAdjust="spacing" textLength="88" x="348.5" y="459.9102">ObstacleBranch</text><line style="stroke:#A80036;stroke-width:1.5;" x1="320.5" x2="438.5" y1="471" y2="471"/><line style="stroke:#A80036;stroke-width:1.5;" x1="320.5" x2="438.5" y1="479" y2="479"/><!--MD5=[b19bd0575d5e9b89c418741af47506da]
class ObstacleDuck--><rect codeLine="17" fill="#FEFECE" filter="url(#f9epbk8oxk5sk)" height="48" id="ObstacleDuck" style="stroke:#A80036;stroke-width:1.5;" width="109" x="7" y="439"/><ellipse cx="22" cy="455" fill="#ADD1B2" rx="11" ry="11" style="stroke:#A80036;stroke-width:1.0;"/><path d="M24.7656,450.875 Q24.9219,450.6563 25.1094,450.5469 Q25.2969,450.4375 25.5156,450.4375 Q25.8906,450.4375 26.125,450.6953 Q26.3594,450.9531 26.3594,451.5625 L26.3594,453.0156 Q26.3594,453.625 26.125,453.8906 Q25.8906,454.1563 25.5156,454.1563 Q25.1719,454.1563 24.9688,453.9531 Q24.7656,453.7656 24.6563,453.25 Q24.6094,452.8906 24.4219,452.7031 Q24.0938,452.3281 23.4844,452.1094 Q22.875,451.8906 22.25,451.8906 Q21.4844,451.8906 20.8516,452.2188 Q20.2188,452.5469 19.7266,453.2969 Q19.2344,454.0469 19.2344,455.0781 L19.2344,456.1719 Q19.2344,457.4063 20.125,458.2266 Q21.0156,459.0469 22.6094,459.0469 Q23.5469,459.0469 24.2031,458.7969 Q24.5938,458.6406 25.0156,458.2031 Q25.2813,457.9375 25.4297,457.8594 Q25.5781,457.7813 25.7813,457.7813 Q26.1094,457.7813 26.3672,458.0391 Q26.625,458.2969 26.625,458.6406 Q26.625,458.9844 26.2813,459.3906 Q25.7813,459.9688 24.9844,460.2969 Q23.9063,460.75 22.6094,460.75 Q21.0938,460.75 19.8906,460.125 Q18.9063,459.625 18.2188,458.5547 Q17.5313,457.4844 17.5313,456.2031 L17.5313,455.0469 Q17.5313,453.7188 18.1484,452.5703 Q18.7656,451.4219 19.8594,450.8047 Q20.9531,450.1875 22.1875,450.1875 Q22.9219,450.1875 23.5703,450.3516 Q24.2188,450.5156 24.7656,450.875 Z " fill="#000000"/><text fill="#000000" font-family="sans-serif" font-size="12" lengthAdjust="spacing" textLength="77" x="36" y="459.9102">ObstacleDuck</text><line style="stroke:#A80036;stroke-width:1.5;" x1="8" x2="115" y1="471" y2="471"/><line style="stroke:#A80036;stroke-width:1.5;" x1="8" x2="115" y1="479" y2="479"/><!--MD5=[984dbebc17ca09c7aea9ae108686ba45]
class ObstacleFloatingBranch--><rect codeLine="18" fill="#FEFECE" filter="url(#f9epbk8oxk5sk)" height="48" id="ObstacleFloatingBranch" style="stroke:#A80036;stroke-width:1.5;" width="164" x="297.5" y="547"/><ellipse cx="312.5" cy="563" fill="#ADD1B2" rx="11" ry="11" style="stroke:#A80036;stroke-width:1.0;"/><path d="M315.2656,558.875 Q315.4219,558.6563 315.6094,558.5469 Q315.7969,558.4375 316.0156,558.4375 Q316.3906,558.4375 316.625,558.6953 Q316.8594,558.9531 316.8594,559.5625 L316.8594,561.0156 Q316.8594,561.625 316.625,561.8906 Q316.3906,562.1563 316.0156,562.1563 Q315.6719,562.1563 315.4688,561.9531 Q315.2656,561.7656 315.1563,561.25 Q315.1094,560.8906 314.9219,560.7031 Q314.5938,560.3281 313.9844,560.1094 Q313.375,559.8906 312.75,559.8906 Q311.9844,559.8906 311.3516,560.2188 Q310.7188,560.5469 310.2266,561.2969 Q309.7344,562.0469 309.7344,563.0781 L309.7344,564.1719 Q309.7344,565.4063 310.625,566.2266 Q311.5156,567.0469 313.1094,567.0469 Q314.0469,567.0469 314.7031,566.7969 Q315.0938,566.6406 315.5156,566.2031 Q315.7813,565.9375 315.9297,565.8594 Q316.0781,565.7813 316.2813,565.7813 Q316.6094,565.7813 316.8672,566.0391 Q317.125,566.2969 317.125,566.6406 Q317.125,566.9844 316.7813,567.3906 Q316.2813,567.9688 315.4844,568.2969 Q314.4063,568.75 313.1094,568.75 Q311.5938,568.75 310.3906,568.125 Q309.4063,567.625 308.7188,566.5547 Q308.0313,565.4844 308.0313,564.2031 L308.0313,563.0469 Q308.0313,561.7188 308.6484,560.5703 Q309.2656,559.4219 310.3594,558.8047 Q311.4531,558.1875 312.6875,558.1875 Q313.4219,558.1875 314.0703,558.3516 Q314.7188,558.5156 315.2656,558.875 Z " fill="#000000"/><text fill="#000000" font-family="sans-serif" font-size="12" lengthAdjust="spacing" textLength="132" x="326.5" y="567.9102">ObstacleFloatingBranch</text><line style="stroke:#A80036;stroke-width:1.5;" x1="298.5" x2="460.5" y1="579" y2="579"/><line style="stroke:#A80036;stroke-width:1.5;" x1="298.5" x2="460.5" y1="587" y2="587"/><!--MD5=[be48d278c37504bf038512057d0f5275]
class ObstacleLaneWall--><rect codeLine="19" fill="#FEFECE" filter="url(#f9epbk8oxk5sk)" height="48" id="ObstacleLaneWall" style="stroke:#A80036;stroke-width:1.5;" width="133" x="151" y="439"/><ellipse cx="166" cy="455" fill="#ADD1B2" rx="11" ry="11" style="stroke:#A80036;stroke-width:1.0;"/><path d="M168.7656,450.875 Q168.9219,450.6563 169.1094,450.5469 Q169.2969,450.4375 169.5156,450.4375 Q169.8906,450.4375 170.125,450.6953 Q170.3594,450.9531 170.3594,451.5625 L170.3594,453.0156 Q170.3594,453.625 170.125,453.8906 Q169.8906,454.1563 169.5156,454.1563 Q169.1719,454.1563 168.9688,453.9531 Q168.7656,453.7656 168.6563,453.25 Q168.6094,452.8906 168.4219,452.7031 Q168.0938,452.3281 167.4844,452.1094 Q166.875,451.8906 166.25,451.8906 Q165.4844,451.8906 164.8516,452.2188 Q164.2188,452.5469 163.7266,453.2969 Q163.2344,454.0469 163.2344,455.0781 L163.2344,456.1719 Q163.2344,457.4063 164.125,458.2266 Q165.0156,459.0469 166.6094,459.0469 Q167.5469,459.0469 168.2031,458.7969 Q168.5938,458.6406 169.0156,458.2031 Q169.2813,457.9375 169.4297,457.8594 Q169.5781,457.7813 169.7813,457.7813 Q170.1094,457.7813 170.3672,458.0391 Q170.625,458.2969 170.625,458.6406 Q170.625,458.9844 170.2813,459.3906 Q169.7813,459.9688 168.9844,460.2969 Q167.9063,460.75 166.6094,460.75 Q165.0938,460.75 163.8906,460.125 Q162.9063,459.625 162.2188,458.5547 Q161.5313,457.4844 161.5313,456.2031 L161.5313,455.0469 Q161.5313,453.7188 162.1484,452.5703 Q162.7656,451.4219 163.8594,450.8047 Q164.9531,450.1875 166.1875,450.1875 Q166.9219,450.1875 167.5703,450.3516 Q168.2188,450.5156 168.7656,450.875 Z " fill="#000000"/><text fill="#000000" font-family="sans-serif" font-size="12" lengthAdjust="spacing" textLength="101" x="180" y="459.9102">ObstacleLaneWall</text><line style="stroke:#A80036;stroke-width:1.5;" x1="152" x2="283" y1="471" y2="471"/><line style="stroke:#A80036;stroke-width:1.5;" x1="152" x2="283" y1="479" y2="479"/><!--MD5=[3c83b70202e58b87ef51d700e986ab12]
class PixelBoat--><rect codeLine="20" fill="#FEFECE" filter="url(#f9epbk8oxk5sk)" height="48" id="PixelBoat" style="stroke:#A80036;stroke-width:1.5;" width="83" x="690" y="7"/><ellipse cx="705" cy="23" fill="#ADD1B2" rx="11" ry="11" style="stroke:#A80036;stroke-width:1.0;"/><path d="M707.7656,18.875 Q707.9219,18.6563 708.1094,18.5469 Q708.2969,18.4375 708.5156,18.4375 Q708.8906,18.4375 709.125,18.6953 Q709.3594,18.9531 709.3594,19.5625 L709.3594,21.0156 Q709.3594,21.625 709.125,21.8906 Q708.8906,22.1563 708.5156,22.1563 Q708.1719,22.1563 707.9688,21.9531 Q707.7656,21.7656 707.6563,21.25 Q707.6094,20.8906 707.4219,20.7031 Q707.0938,20.3281 706.4844,20.1094 Q705.875,19.8906 705.25,19.8906 Q704.4844,19.8906 703.8516,20.2188 Q703.2188,20.5469 702.7266,21.2969 Q702.2344,22.0469 702.2344,23.0781 L702.2344,24.1719 Q702.2344,25.4063 703.125,26.2266 Q704.0156,27.0469 705.6094,27.0469 Q706.5469,27.0469 707.2031,26.7969 Q707.5938,26.6406 708.0156,26.2031 Q708.2813,25.9375 708.4297,25.8594 Q708.5781,25.7813 708.7813,25.7813 Q709.1094,25.7813 709.3672,26.0391 Q709.625,26.2969 709.625,26.6406 Q709.625,26.9844 709.2813,27.3906 Q708.7813,27.9688 707.9844,28.2969 Q706.9063,28.75 705.6094,28.75 Q704.0938,28.75 702.8906,28.125 Q701.9063,27.625 701.2188,26.5547 Q700.5313,25.4844 700.5313,24.2031 L700.5313,23.0469 Q700.5313,21.7188 701.1484,20.5703 Q701.7656,19.4219 702.8594,18.8047 Q703.9531,18.1875 705.1875,18.1875 Q705.9219,18.1875 706.5703,18.3516 Q707.2188,18.5156 707.7656,18.875 Z " fill="#000000"/><text fill="#000000" font-family="sans-serif" font-size="12" lengthAdjust="spacing" textLength="51" x="719" y="27.9102">PixelBoat</text><line style="stroke:#A80036;stroke-width:1.5;" x1="691" x2="772" y1="39" y2="39"/><line style="stroke:#A80036;stroke-width:1.5;" x1="691" x2="772" y1="47" y2="47"/><!--MD5=[8b809054524057386b660902a6971129]
class PlayerBoat--><rect codeLine="21" fill="#FEFECE" filter="url(#f9epbk8oxk5sk)" height="48" id="PlayerBoat" style="stroke:#A80036;stroke-width:1.5;" width="91" x="1249" y="439"/><ellipse cx="1264" cy="455" fill="#ADD1B2" rx="11" ry="11" style="stroke:#A80036;stroke-width:1.0;"/><path d="M1266.7656,450.875 Q1266.9219,450.6563 1267.1094,450.5469 Q1267.2969,450.4375 1267.5156,450.4375 Q1267.8906,450.4375 1268.125,450.6953 Q1268.3594,450.9531 1268.3594,451.5625 L1268.3594,453.0156 Q1268.3594,453.625 1268.125,453.8906 Q1267.8906,454.1563 1267.5156,454.1563 Q1267.1719,454.1563 1266.9688,453.9531 Q1266.7656,453.7656 1266.6563,453.25 Q1266.6094,452.8906 1266.4219,452.7031 Q1266.0938,452.3281 1265.4844,452.1094 Q1264.875,451.8906 1264.25,451.8906 Q1263.4844,451.8906 1262.8516,452.2188 Q1262.2188,452.5469 1261.7266,453.2969 Q1261.2344,454.0469 1261.2344,455.0781 L1261.2344,456.1719 Q1261.2344,457.4063 1262.125,458.2266 Q1263.0156,459.0469 1264.6094,459.0469 Q1265.5469,459.0469 1266.2031,458.7969 Q1266.5938,458.6406 1267.0156,458.2031 Q1267.2813,457.9375 1267.4297,457.8594 Q1267.5781,457.7813 1267.7813,457.7813 Q1268.1094,457.7813 1268.3672,458.0391 Q1268.625,458.2969 1268.625,458.6406 Q1268.625,458.9844 1268.2813,459.3906 Q1267.7813,459.9688 1266.9844,460.2969 Q1265.9063,460.75 1264.6094,460.75 Q1263.0938,460.75 1261.8906,460.125 Q1260.9063,459.625 1260.2188,458.5547 Q1259.5313,457.4844 1259.5313,456.2031 L1259.5313,455.0469 Q1259.5313,453.7188 1260.1484,452.5703 Q1260.7656,451.4219 1261.8594,450.8047 Q1262.9531,450.1875 1264.1875,450.1875 Q1264.9219,450.1875 1265.5703,450.3516 Q1266.2188,450.5156 1266.7656,450.875 Z " fill="#000000"/><text fill="#000000" font-family="sans-serif" font-size="12" lengthAdjust="spacing" textLength="59" x="1278" y="459.9102">PlayerBoat</text><line style="stroke:#A80036;stroke-width:1.5;" x1="1250" x2="1339" y1="471" y2="471"/><line style="stroke:#A80036;stroke-width:1.5;" x1="1250" x2="1339" y1="479" y2="479"/><!--MD5=[e4faacc5b8aef66b11ab0c816bbbc7f8]
class Scene--><rect codeLine="22" fill="#FEFECE" filter="url(#f9epbk8oxk5sk)" height="48" id="Scene" style="stroke:#A80036;stroke-width:1.5;" width="67" x="1189" y="7"/><ellipse cx="1204" cy="23" fill="#B4A7E5" rx="11" ry="11" style="stroke:#A80036;stroke-width:1.0;"/><path d="M1204.9531,19.6406 L1204.9531,26.2969 L1206.6719,26.2969 Q1207.2813,26.2969 1207.5469,26.5313 Q1207.8125,26.7656 1207.8125,27.1563 Q1207.8125,27.5313 1207.5469,27.7656 Q1207.2813,28 1206.6719,28 L1201.5313,28 Q1200.9219,28 1200.6563,27.7656 Q1200.3906,27.5313 1200.3906,27.1406 Q1200.3906,26.7656 1200.6563,26.5313 Q1200.9219,26.2969 1201.5313,26.2969 L1203.25,26.2969 L1203.25,19.6406 L1201.5313,19.6406 Q1200.9219,19.6406 1200.6563,19.4063 Q1200.3906,19.1719 1200.3906,18.7813 Q1200.3906,18.4063 1200.6563,18.1719 Q1200.9219,17.9375 1201.5313,17.9375 L1206.6719,17.9375 Q1207.2813,17.9375 1207.5469,18.1719 Q1207.8125,18.4063 1207.8125,18.7813 Q1207.8125,19.1719 1207.5469,19.4063 Q1207.2813,19.6406 1206.6719,19.6406 L1204.9531,19.6406 Z " fill="#000000"/><text fill="#000000" font-family="sans-serif" font-size="12" font-style="italic" lengthAdjust="spacing" textLength="35" x="1218" y="27.9102">Scene</text><line style="stroke:#A80036;stroke-width:1.5;" x1="1190" x2="1255" y1="39" y2="39"/><line style="stroke:#A80036;stroke-width:1.5;" x1="1190" x2="1255" y1="47" y2="47"/><!--MD5=[b3b4ac0d5377cc5253bac1ff73b36524]
class SceneDifficulty--><rect codeLine="23" fill="#FEFECE" filter="url(#f9epbk8oxk5sk)" height="48" id="SceneDifficulty" style="stroke:#A80036;stroke-width:1.5;" width="112" x="1472.5" y="115"/><ellipse cx="1487.5" cy="131" fill="#ADD1B2" rx="11" ry="11" style="stroke:#A80036;stroke-width:1.0;"/><path d="M1490.2656,126.875 Q1490.4219,126.6563 1490.6094,126.5469 Q1490.7969,126.4375 1491.0156,126.4375 Q1491.3906,126.4375 1491.625,126.6953 Q1491.8594,126.9531 1491.8594,127.5625 L1491.8594,129.0156 Q1491.8594,129.625 1491.625,129.8906 Q1491.3906,130.1563 1491.0156,130.1563 Q1490.6719,130.1563 1490.4688,129.9531 Q1490.2656,129.7656 1490.1563,129.25 Q1490.1094,128.8906 1489.9219,128.7031 Q1489.5938,128.3281 1488.9844,128.1094 Q1488.375,127.8906 1487.75,127.8906 Q1486.9844,127.8906 1486.3516,128.2188 Q1485.7188,128.5469 1485.2266,129.2969 Q1484.7344,130.0469 1484.7344,131.0781 L1484.7344,132.1719 Q1484.7344,133.4063 1485.625,134.2266 Q1486.5156,135.0469 1488.1094,135.0469 Q1489.0469,135.0469 1489.7031,134.7969 Q1490.0938,134.6406 1490.5156,134.2031 Q1490.7813,133.9375 1490.9297,133.8594 Q1491.0781,133.7813 1491.2813,133.7813 Q1491.6094,133.7813 1491.8672,134.0391 Q1492.125,134.2969 1492.125,134.6406 Q1492.125,134.9844 1491.7813,135.3906 Q1491.2813,135.9688 1490.4844,136.2969 Q1489.4063,136.75 1488.1094,136.75 Q1486.5938,136.75 1485.3906,136.125 Q1484.4063,135.625 1483.7188,134.5547 Q1483.0313,133.4844 1483.0313,132.2031 L1483.0313,131.0469 Q1483.0313,129.7188 1483.6484,128.5703 Q1484.2656,127.4219 1485.3594,126.8047 Q1486.4531,126.1875 1487.6875,126.1875 Q1488.4219,126.1875 1489.0703,126.3516 Q1489.7188,126.5156 1490.2656,126.875 Z " fill="#000000"/><text fill="#000000" font-family="sans-serif" font-size="12" lengthAdjust="spacing" textLength="80" x="1501.5" y="135.9102">SceneDifficulty</text><line style="stroke:#A80036;stroke-width:1.5;" x1="1473.5" x2="1583.5" y1="147" y2="147"/><line style="stroke:#A80036;stroke-width:1.5;" x1="1473.5" x2="1583.5" y1="155" y2="155"/><!--MD5=[191f5a5662fedcdee87af3bba77ae1e5]
class SceneMainGame--><rect codeLine="24" fill="#FEFECE" filter="url(#f9epbk8oxk5sk)" height="48" id="SceneMainGame" style="stroke:#A80036;stroke-width:1.5;" width="127" x="1078" y="115"/><ellipse cx="1093" cy="131" fill="#ADD1B2" rx="11" ry="11" style="stroke:#A80036;stroke-width:1.0;"/><path d="M1095.7656,126.875 Q1095.9219,126.6563 1096.1094,126.5469 Q1096.2969,126.4375 1096.5156,126.4375 Q1096.8906,126.4375 1097.125,126.6953 Q1097.3594,126.9531 1097.3594,127.5625 L1097.3594,129.0156 Q1097.3594,129.625 1097.125,129.8906 Q1096.8906,130.1563 1096.5156,130.1563 Q1096.1719,130.1563 1095.9688,129.9531 Q1095.7656,129.7656 1095.6563,129.25 Q1095.6094,128.8906 1095.4219,128.7031 Q1095.0938,128.3281 1094.4844,128.1094 Q1093.875,127.8906 1093.25,127.8906 Q1092.4844,127.8906 1091.8516,128.2188 Q1091.2188,128.5469 1090.7266,129.2969 Q1090.2344,130.0469 1090.2344,131.0781 L1090.2344,132.1719 Q1090.2344,133.4063 1091.125,134.2266 Q1092.0156,135.0469 1093.6094,135.0469 Q1094.5469,135.0469 1095.2031,134.7969 Q1095.5938,134.6406 1096.0156,134.2031 Q1096.2813,133.9375 1096.4297,133.8594 Q1096.5781,133.7813 1096.7813,133.7813 Q1097.1094,133.7813 1097.3672,134.0391 Q1097.625,134.2969 1097.625,134.6406 Q1097.625,134.9844 1097.2813,135.3906 Q1096.7813,135.9688 1095.9844,136.2969 Q1094.9063,136.75 1093.6094,136.75 Q1092.0938,136.75 1090.8906,136.125 Q1089.9063,135.625 1089.2188,134.5547 Q1088.5313,133.4844 1088.5313,132.2031 L1088.5313,131.0469 Q1088.5313,129.7188 1089.1484,128.5703 Q1089.7656,127.4219 1090.8594,126.8047 Q1091.9531,126.1875 1093.1875,126.1875 Q1093.9219,126.1875 1094.5703,126.3516 Q1095.2188,126.5156 1095.7656,126.875 Z " fill="#000000"/><text fill="#000000" font-family="sans-serif" font-size="12" lengthAdjust="spacing" textLength="95" x="1107" y="135.9102">SceneMainGame</text><line style="stroke:#A80036;stroke-width:1.5;" x1="1079" x2="1204" y1="147" y2="147"/><line style="stroke:#A80036;stroke-width:1.5;" x1="1079" x2="1204" y1="155" y2="155"/><!--MD5=[10fad2eef0002dd70ab0ee7e095a83d7]
class SceneOptionsMenu--><rect codeLine="25" fill="#FEFECE" filter="url(#f9epbk8oxk5sk)" height="48" id="SceneOptionsMenu" style="stroke:#A80036;stroke-width:1.5;" width="140" x="287.5" y="115"/><ellipse cx="302.5" cy="131" fill="#ADD1B2" rx="11" ry="11" style="stroke:#A80036;stroke-width:1.0;"/><path d="M305.2656,126.875 Q305.4219,126.6563 305.6094,126.5469 Q305.7969,126.4375 306.0156,126.4375 Q306.3906,126.4375 306.625,126.6953 Q306.8594,126.9531 306.8594,127.5625 L306.8594,129.0156 Q306.8594,129.625 306.625,129.8906 Q306.3906,130.1563 306.0156,130.1563 Q305.6719,130.1563 305.4688,129.9531 Q305.2656,129.7656 305.1563,129.25 Q305.1094,128.8906 304.9219,128.7031 Q304.5938,128.3281 303.9844,128.1094 Q303.375,127.8906 302.75,127.8906 Q301.9844,127.8906 301.3516,128.2188 Q300.7188,128.5469 300.2266,129.2969 Q299.7344,130.0469 299.7344,131.0781 L299.7344,132.1719 Q299.7344,133.4063 300.625,134.2266 Q301.5156,135.0469 303.1094,135.0469 Q304.0469,135.0469 304.7031,134.7969 Q305.0938,134.6406 305.5156,134.2031 Q305.7813,133.9375 305.9297,133.8594 Q306.0781,133.7813 306.2813,133.7813 Q306.6094,133.7813 306.8672,134.0391 Q307.125,134.2969 307.125,134.6406 Q307.125,134.9844 306.7813,135.3906 Q306.2813,135.9688 305.4844,136.2969 Q304.4063,136.75 303.1094,136.75 Q301.5938,136.75 300.3906,136.125 Q299.4063,135.625 298.7188,134.5547 Q298.0313,133.4844 298.0313,132.2031 L298.0313,131.0469 Q298.0313,129.7188 298.6484,128.5703 Q299.2656,127.4219 300.3594,126.8047 Q301.4531,126.1875 302.6875,126.1875 Q303.4219,126.1875 304.0703,126.3516 Q304.7188,126.5156 305.2656,126.875 Z " fill="#000000"/><text fill="#000000" font-family="sans-serif" font-size="12" lengthAdjust="spacing" textLength="108" x="316.5" y="135.9102">SceneOptionsMenu</text><line style="stroke:#A80036;stroke-width:1.5;" x1="288.5" x2="426.5" y1="147" y2="147"/><line style="stroke:#A80036;stroke-width:1.5;" x1="288.5" x2="426.5" y1="155" y2="155"/><!--MD5=[705050e7dc8a0f9ad873dfab94d81211]
class SceneStartScreen--><rect codeLine="26" fill="#FEFECE" filter="url(#f9epbk8oxk5sk)" height="48" id="SceneStartScreen" style="stroke:#A80036;stroke-width:1.5;" width="131" x="912" y="115"/><ellipse cx="927" cy="131" fill="#ADD1B2" rx="11" ry="11" style="stroke:#A80036;stroke-width:1.0;"/><path d="M929.7656,126.875 Q929.9219,126.6563 930.1094,126.5469 Q930.2969,126.4375 930.5156,126.4375 Q930.8906,126.4375 931.125,126.6953 Q931.3594,126.9531 931.3594,127.5625 L931.3594,129.0156 Q931.3594,129.625 931.125,129.8906 Q930.8906,130.1563 930.5156,130.1563 Q930.1719,130.1563 929.9688,129.9531 Q929.7656,129.7656 929.6563,129.25 Q929.6094,128.8906 929.4219,128.7031 Q929.0938,128.3281 928.4844,128.1094 Q927.875,127.8906 927.25,127.8906 Q926.4844,127.8906 925.8516,128.2188 Q925.2188,128.5469 924.7266,129.2969 Q924.2344,130.0469 924.2344,131.0781 L924.2344,132.1719 Q924.2344,133.4063 925.125,134.2266 Q926.0156,135.0469 927.6094,135.0469 Q928.5469,135.0469 929.2031,134.7969 Q929.5938,134.6406 930.0156,134.2031 Q930.2813,133.9375 930.4297,133.8594 Q930.5781,133.7813 930.7813,133.7813 Q931.1094,133.7813 931.3672,134.0391 Q931.625,134.2969 931.625,134.6406 Q931.625,134.9844 931.2813,135.3906 Q930.7813,135.9688 929.9844,136.2969 Q928.9063,136.75 927.6094,136.75 Q926.0938,136.75 924.8906,136.125 Q923.9063,135.625 923.2188,134.5547 Q922.5313,133.4844 922.5313,132.2031 L922.5313,131.0469 Q922.5313,129.7188 923.1484,128.5703 Q923.7656,127.4219 924.8594,126.8047 Q925.9531,126.1875 927.1875,126.1875 Q927.9219,126.1875 928.5703,126.3516 Q929.2188,126.5156 929.7656,126.875 Z " fill="#000000"/><text fill="#000000" font-family="sans-serif" font-size="12" lengthAdjust="spacing" textLength="99" x="941" y="135.9102">SceneStartScreen</text><line style="stroke:#A80036;stroke-width:1.5;" x1="913" x2="1042" y1="147" y2="147"/><line style="stroke:#A80036;stroke-width:1.5;" x1="913" x2="1042" y1="155" y2="155"/><!--MD5=[eb8347e17286b04f108bb989edee2135]
class SceneTutorial--><rect codeLine="27" fill="#FEFECE" filter="url(#f9epbk8oxk5sk)" height="48" id="SceneTutorial" style="stroke:#A80036;stroke-width:1.5;" width="108" x="599.5" y="115"/><ellipse cx="614.5" cy="131" fill="#ADD1B2" rx="11" ry="11" style="stroke:#A80036;stroke-width:1.0;"/><path d="M617.2656,126.875 Q617.4219,126.6563 617.6094,126.5469 Q617.7969,126.4375 618.0156,126.4375 Q618.3906,126.4375 618.625,126.6953 Q618.8594,126.9531 618.8594,127.5625 L618.8594,129.0156 Q618.8594,129.625 618.625,129.8906 Q618.3906,130.1563 618.0156,130.1563 Q617.6719,130.1563 617.4688,129.9531 Q617.2656,129.7656 617.1563,129.25 Q617.1094,128.8906 616.9219,128.7031 Q616.5938,128.3281 615.9844,128.1094 Q615.375,127.8906 614.75,127.8906 Q613.9844,127.8906 613.3516,128.2188 Q612.7188,128.5469 612.2266,129.2969 Q611.7344,130.0469 611.7344,131.0781 L611.7344,132.1719 Q611.7344,133.4063 612.625,134.2266 Q613.5156,135.0469 615.1094,135.0469 Q616.0469,135.0469 616.7031,134.7969 Q617.0938,134.6406 617.5156,134.2031 Q617.7813,133.9375 617.9297,133.8594 Q618.0781,133.7813 618.2813,133.7813 Q618.6094,133.7813 618.8672,134.0391 Q619.125,134.2969 619.125,134.6406 Q619.125,134.9844 618.7813,135.3906 Q618.2813,135.9688 617.4844,136.2969 Q616.4063,136.75 615.1094,136.75 Q613.5938,136.75 612.3906,136.125 Q611.4063,135.625 610.7188,134.5547 Q610.0313,133.4844 610.0313,132.2031 L610.0313,131.0469 Q610.0313,129.7188 610.6484,128.5703 Q611.2656,127.4219 612.3594,126.8047 Q613.4531,126.1875 614.6875,126.1875 Q615.4219,126.1875 616.0703,126.3516 Q616.7188,126.5156 617.2656,126.875 Z " fill="#000000"/><text fill="#000000" font-family="sans-serif" font-size="12" lengthAdjust="spacing" textLength="76" x="628.5" y="135.9102">SceneTutorial</text><line style="stroke:#A80036;stroke-width:1.5;" x1="600.5" x2="706.5" y1="147" y2="147"/><line style="stroke:#A80036;stroke-width:1.5;" x1="600.5" x2="706.5" y1="155" y2="155"/><!--MD5=[292687bb7eb5fe0d5f0b123bf926d4fb]
class SceneAwardScreen--><rect codeLine="28" fill="#FEFECE" filter="url(#f9epbk8oxk5sk)" height="48" id="SceneAwardScreen" style="stroke:#A80036;stroke-width:1.5;" width="140" x="1619.5" y="115"/><ellipse cx="1634.5" cy="131" fill="#ADD1B2" rx="11" ry="11" style="stroke:#A80036;stroke-width:1.0;"/><path d="M1637.2656,126.875 Q1637.4219,126.6563 1637.6094,126.5469 Q1637.7969,126.4375 1638.0156,126.4375 Q1638.3906,126.4375 1638.625,126.6953 Q1638.8594,126.9531 1638.8594,127.5625 L1638.8594,129.0156 Q1638.8594,129.625 1638.625,129.8906 Q1638.3906,130.1563 1638.0156,130.1563 Q1637.6719,130.1563 1637.4688,129.9531 Q1637.2656,129.7656 1637.1563,129.25 Q1637.1094,128.8906 1636.9219,128.7031 Q1636.5938,128.3281 1635.9844,128.1094 Q1635.375,127.8906 1634.75,127.8906 Q1633.9844,127.8906 1633.3516,128.2188 Q1632.7188,128.5469 1632.2266,129.2969 Q1631.7344,130.0469 1631.7344,131.0781 L1631.7344,132.1719 Q1631.7344,133.4063 1632.625,134.2266 Q1633.5156,135.0469 1635.1094,135.0469 Q1636.0469,135.0469 1636.7031,134.7969 Q1637.0938,134.6406 1637.5156,134.2031 Q1637.7813,133.9375 1637.9297,133.8594 Q1638.0781,133.7813 1638.2813,133.7813 Q1638.6094,133.7813 1638.8672,134.0391 Q1639.125,134.2969 1639.125,134.6406 Q1639.125,134.9844 1638.7813,135.3906 Q1638.2813,135.9688 1637.4844,136.2969 Q1636.4063,136.75 1635.1094,136.75 Q1633.5938,136.75 1632.3906,136.125 Q1631.4063,135.625 1630.7188,134.5547 Q1630.0313,133.4844 1630.0313,132.2031 L1630.0313,131.0469 Q1630.0313,129.7188 1630.6484,128.5703 Q1631.2656,127.4219 1632.3594,126.8047 Q1633.4531,126.1875 1634.6875,126.1875 Q1635.4219,126.1875 1636.0703,126.3516 Q1636.7188,126.5156 1637.2656,126.875 Z " fill="#000000"/><text fill="#000000" font-family="sans-serif" font-size="12" lengthAdjust="spacing" textLength="108" x="1648.5" y="135.9102">SceneAwardScreen</text><line style="stroke:#A80036;stroke-width:1.5;" x1="1620.5" x2="1758.5" y1="147" y2="147"/><line style="stroke:#A80036;stroke-width:1.5;" x1="1620.5" x2="1758.5" y1="155" y2="155"/><!--MD5=[5471448ac764769a8a042e87d31159a5]
class SceneGameOver--><rect codeLine="29" fill="#FEFECE" filter="url(#f9epbk8oxk5sk)" height="48" id="SceneGameOver" style="stroke:#A80036;stroke-width:1.5;" width="126" x="1240.5" y="115"/><ellipse cx="1255.5" cy="131" fill="#ADD1B2" rx="11" ry="11" style="stroke:#A80036;stroke-width:1.0;"/><path d="M1258.2656,126.875 Q1258.4219,126.6563 1258.6094,126.5469 Q1258.7969,126.4375 1259.0156,126.4375 Q1259.3906,126.4375 1259.625,126.6953 Q1259.8594,126.9531 1259.8594,127.5625 L1259.8594,129.0156 Q1259.8594,129.625 1259.625,129.8906 Q1259.3906,130.1563 1259.0156,130.1563 Q1258.6719,130.1563 1258.4688,129.9531 Q1258.2656,129.7656 1258.1563,129.25 Q1258.1094,128.8906 1257.9219,128.7031 Q1257.5938,128.3281 1256.9844,128.1094 Q1256.375,127.8906 1255.75,127.8906 Q1254.9844,127.8906 1254.3516,128.2188 Q1253.7188,128.5469 1253.2266,129.2969 Q1252.7344,130.0469 1252.7344,131.0781 L1252.7344,132.1719 Q1252.7344,133.4063 1253.625,134.2266 Q1254.5156,135.0469 1256.1094,135.0469 Q1257.0469,135.0469 1257.7031,134.7969 Q1258.0938,134.6406 1258.5156,134.2031 Q1258.7813,133.9375 1258.9297,133.8594 Q1259.0781,133.7813 1259.2813,133.7813 Q1259.6094,133.7813 1259.8672,134.0391 Q1260.125,134.2969 1260.125,134.6406 Q1260.125,134.9844 1259.7813,135.3906 Q1259.2813,135.9688 1258.4844,136.2969 Q1257.4063,136.75 1256.1094,136.75 Q1254.5938,136.75 1253.3906,136.125 Q1252.4063,135.625 1251.7188,134.5547 Q1251.0313,133.4844 1251.0313,132.2031 L1251.0313,131.0469 Q1251.0313,129.7188 1251.6484,128.5703 Q1252.2656,127.4219 1253.3594,126.8047 Q1254.4531,126.1875 1255.6875,126.1875 Q1256.4219,126.1875 1257.0703,126.3516 Q1257.7188,126.5156 1258.2656,126.875 Z " fill="#000000"/><text fill="#000000" font-family="sans-serif" font-size="12" lengthAdjust="spacing" textLength="94" x="1269.5" y="135.9102">SceneGameOver</text><line style="stroke:#A80036;stroke-width:1.5;" x1="1241.5" x2="1365.5" y1="147" y2="147"/><line style="stroke:#A80036;stroke-width:1.5;" x1="1241.5" x2="1365.5" y1="155" y2="155"/><!--MD5=[8b2b398dce0e1cff930c6759e8a8c711]
class SceneResultsScreen--><rect codeLine="30" fill="#FEFECE" filter="url(#f9epbk8oxk5sk)" height="48" id="SceneResultsScreen" style="stroke:#A80036;stroke-width:1.5;" width="149" x="1590" y="223"/><ellipse cx="1605" cy="239" fill="#ADD1B2" rx="11" ry="11" style="stroke:#A80036;stroke-width:1.0;"/><path d="M1607.7656,234.875 Q1607.9219,234.6563 1608.1094,234.5469 Q1608.2969,234.4375 1608.5156,234.4375 Q1608.8906,234.4375 1609.125,234.6953 Q1609.3594,234.9531 1609.3594,235.5625 L1609.3594,237.0156 Q1609.3594,237.625 1609.125,237.8906 Q1608.8906,238.1563 1608.5156,238.1563 Q1608.1719,238.1563 1607.9688,237.9531 Q1607.7656,237.7656 1607.6563,237.25 Q1607.6094,236.8906 1607.4219,236.7031 Q1607.0938,236.3281 1606.4844,236.1094 Q1605.875,235.8906 1605.25,235.8906 Q1604.4844,235.8906 1603.8516,236.2188 Q1603.2188,236.5469 1602.7266,237.2969 Q1602.2344,238.0469 1602.2344,239.0781 L1602.2344,240.1719 Q1602.2344,241.4063 1603.125,242.2266 Q1604.0156,243.0469 1605.6094,243.0469 Q1606.5469,243.0469 1607.2031,242.7969 Q1607.5938,242.6406 1608.0156,242.2031 Q1608.2813,241.9375 1608.4297,241.8594 Q1608.5781,241.7813 1608.7813,241.7813 Q1609.1094,241.7813 1609.3672,242.0391 Q1609.625,242.2969 1609.625,242.6406 Q1609.625,242.9844 1609.2813,243.3906 Q1608.7813,243.9688 1607.9844,244.2969 Q1606.9063,244.75 1605.6094,244.75 Q1604.0938,244.75 1602.8906,244.125 Q1601.9063,243.625 1601.2188,242.5547 Q1600.5313,241.4844 1600.5313,240.2031 L1600.5313,239.0469 Q1600.5313,237.7188 1601.1484,236.5703 Q1601.7656,235.4219 1602.8594,234.8047 Q1603.9531,234.1875 1605.1875,234.1875 Q1605.9219,234.1875 1606.5703,234.3516 Q1607.2188,234.5156 1607.7656,234.875 Z " fill="#000000"/><text fill="#000000" font-family="sans-serif" font-size="12" lengthAdjust="spacing" textLength="117" x="1619" y="243.9102">SceneResultsScreen</text><line style="stroke:#A80036;stroke-width:1.5;" x1="1591" x2="1738" y1="255" y2="255"/><line style="stroke:#A80036;stroke-width:1.5;" x1="1591" x2="1738" y1="263" y2="263"/><!--MD5=[4663939172911429a54d44baff5bb5c4]
class SceneLoadScreen--><rect codeLine="31" fill="#FEFECE" filter="url(#f9epbk8oxk5sk)" height="48" id="SceneLoadScreen" style="stroke:#A80036;stroke-width:1.5;" width="134" x="742.5" y="115"/><ellipse cx="757.5" cy="131" fill="#ADD1B2" rx="11" ry="11" style="stroke:#A80036;stroke-width:1.0;"/><path d="M760.2656,126.875 Q760.4219,126.6563 760.6094,126.5469 Q760.7969,126.4375 761.0156,126.4375 Q761.3906,126.4375 761.625,126.6953 Q761.8594,126.9531 761.8594,127.5625 L761.8594,129.0156 Q761.8594,129.625 761.625,129.8906 Q761.3906,130.1563 761.0156,130.1563 Q760.6719,130.1563 760.4688,129.9531 Q760.2656,129.7656 760.1563,129.25 Q760.1094,128.8906 759.9219,128.7031 Q759.5938,128.3281 758.9844,128.1094 Q758.375,127.8906 757.75,127.8906 Q756.9844,127.8906 756.3516,128.2188 Q755.7188,128.5469 755.2266,129.2969 Q754.7344,130.0469 754.7344,131.0781 L754.7344,132.1719 Q754.7344,133.4063 755.625,134.2266 Q756.5156,135.0469 758.1094,135.0469 Q759.0469,135.0469 759.7031,134.7969 Q760.0938,134.6406 760.5156,134.2031 Q760.7813,133.9375 760.9297,133.8594 Q761.0781,133.7813 761.2813,133.7813 Q761.6094,133.7813 761.8672,134.0391 Q762.125,134.2969 762.125,134.6406 Q762.125,134.9844 761.7813,135.3906 Q761.2813,135.9688 760.4844,136.2969 Q759.4063,136.75 758.1094,136.75 Q756.5938,136.75 755.3906,136.125 Q754.4063,135.625 753.7188,134.5547 Q753.0313,133.4844 753.0313,132.2031 L753.0313,131.0469 Q753.0313,129.7188 753.6484,128.5703 Q754.2656,127.4219 755.3594,126.8047 Q756.4531,126.1875 757.6875,126.1875 Q758.4219,126.1875 759.0703,126.3516 Q759.7188,126.5156 760.2656,126.875 Z " fill="#000000"/><text fill="#000000" font-family="sans-serif" font-size="12" lengthAdjust="spacing" textLength="102" x="771.5" y="135.9102">SceneLoadScreen</text><line style="stroke:#A80036;stroke-width:1.5;" x1="743.5" x2="875.5" y1="147" y2="147"/><line style="stroke:#A80036;stroke-width:1.5;" x1="743.5" x2="875.5" y1="155" y2="155"/><!--MD5=[5750843ec52a4b67c1d9e2b786e74bc0]
class SceneSaveScreen--><rect codeLine="32" fill="#FEFECE" filter="url(#f9epbk8oxk5sk)" height="48" id="SceneSaveScreen" style="stroke:#A80036;stroke-width:1.5;" width="133" x="1274" y="223"/><ellipse cx="1289" cy="239" fill="#ADD1B2" rx="11" ry="11" style="stroke:#A80036;stroke-width:1.0;"/><path d="M1291.7656,234.875 Q1291.9219,234.6563 1292.1094,234.5469 Q1292.2969,234.4375 1292.5156,234.4375 Q1292.8906,234.4375 1293.125,234.6953 Q1293.3594,234.9531 1293.3594,235.5625 L1293.3594,237.0156 Q1293.3594,237.625 1293.125,237.8906 Q1292.8906,238.1563 1292.5156,238.1563 Q1292.1719,238.1563 1291.9688,237.9531 Q1291.7656,237.7656 1291.6563,237.25 Q1291.6094,236.8906 1291.4219,236.7031 Q1291.0938,236.3281 1290.4844,236.1094 Q1289.875,235.8906 1289.25,235.8906 Q1288.4844,235.8906 1287.8516,236.2188 Q1287.2188,236.5469 1286.7266,237.2969 Q1286.2344,238.0469 1286.2344,239.0781 L1286.2344,240.1719 Q1286.2344,241.4063 1287.125,242.2266 Q1288.0156,243.0469 1289.6094,243.0469 Q1290.5469,243.0469 1291.2031,242.7969 Q1291.5938,242.6406 1292.0156,242.2031 Q1292.2813,241.9375 1292.4297,241.8594 Q1292.5781,241.7813 1292.7813,241.7813 Q1293.1094,241.7813 1293.3672,242.0391 Q1293.625,242.2969 1293.625,242.6406 Q1293.625,242.9844 1293.2813,243.3906 Q1292.7813,243.9688 1291.9844,244.2969 Q1290.9063,244.75 1289.6094,244.75 Q1288.0938,244.75 1286.8906,244.125 Q1285.9063,243.625 1285.2188,242.5547 Q1284.5313,241.4844 1284.5313,240.2031 L1284.5313,239.0469 Q1284.5313,237.7188 1285.1484,236.5703 Q1285.7656,235.4219 1286.8594,234.8047 Q1287.9531,234.1875 1289.1875,234.1875 Q1289.9219,234.1875 1290.5703,234.3516 Q1291.2188,234.5156 1291.7656,234.875 Z " fill="#000000"/><text fill="#000000" font-family="sans-serif" font-size="12" lengthAdjust="spacing" textLength="101" x="1303" y="243.9102">SceneSaveScreen</text><line style="stroke:#A80036;stroke-width:1.5;" x1="1275" x2="1406" y1="255" y2="255"/><line style="stroke:#A80036;stroke-width:1.5;" x1="1275" x2="1406" y1="263" y2="263"/><!--MD5=[cc3de0a176daa3c4ec875deafdf5ddd1]
class Serializable--><rect codeLine="33" fill="#FEFECE" filter="url(#f9epbk8oxk5sk)" height="48" id="Serializable" style="stroke:#A80036;stroke-width:1.5;" width="99" x="153" y="115"/><ellipse cx="168" cy="131" fill="#B4A7E5" rx="11" ry="11" style="stroke:#A80036;stroke-width:1.0;"/><path d="M168.9531,127.6406 L168.9531,134.2969 L170.6719,134.2969 Q171.2813,134.2969 171.5469,134.5313 Q171.8125,134.7656 171.8125,135.1563 Q171.8125,135.5313 171.5469,135.7656 Q171.2813,136 170.6719,136 L165.5313,136 Q164.9219,136 164.6563,135.7656 Q164.3906,135.5313 164.3906,135.1406 Q164.3906,134.7656 164.6563,134.5313 Q164.9219,134.2969 165.5313,134.2969 L167.25,134.2969 L167.25,127.6406 L165.5313,127.6406 Q164.9219,127.6406 164.6563,127.4063 Q164.3906,127.1719 164.3906,126.7813 Q164.3906,126.4063 164.6563,126.1719 Q164.9219,125.9375 165.5313,125.9375 L170.6719,125.9375 Q171.2813,125.9375 171.5469,126.1719 Q171.8125,126.4063 171.8125,126.7813 Q171.8125,127.1719 171.5469,127.4063 Q171.2813,127.6406 170.6719,127.6406 L168.9531,127.6406 Z " fill="#000000"/><text fill="#000000" font-family="sans-serif" font-size="12" font-style="italic" lengthAdjust="spacing" textLength="67" x="182" y="135.9102">Serializable</text><line style="stroke:#A80036;stroke-width:1.5;" x1="154" x2="251" y1="147" y2="147"/><line style="stroke:#A80036;stroke-width:1.5;" x1="154" x2="251" y1="155" y2="155"/><!--MD5=[ddcb0def8caaeba08e48822c426b4854]
class SerializableGameObject--><rect codeLine="35" fill="#FEFECE" filter="url(#f9epbk8oxk5sk)" height="48" id="SerializableGameObject" style="stroke:#A80036;stroke-width:1.5;" width="165" x="170" y="331"/><ellipse cx="185" cy="347" fill="#ADD1B2" rx="11" ry="11" style="stroke:#A80036;stroke-width:1.0;"/><path d="M187.7656,342.875 Q187.9219,342.6563 188.1094,342.5469 Q188.2969,342.4375 188.5156,342.4375 Q188.8906,342.4375 189.125,342.6953 Q189.3594,342.9531 189.3594,343.5625 L189.3594,345.0156 Q189.3594,345.625 189.125,345.8906 Q188.8906,346.1563 188.5156,346.1563 Q188.1719,346.1563 187.9688,345.9531 Q187.7656,345.7656 187.6563,345.25 Q187.6094,344.8906 187.4219,344.7031 Q187.0938,344.3281 186.4844,344.1094 Q185.875,343.8906 185.25,343.8906 Q184.4844,343.8906 183.8516,344.2188 Q183.2188,344.5469 182.7266,345.2969 Q182.2344,346.0469 182.2344,347.0781 L182.2344,348.1719 Q182.2344,349.4063 183.125,350.2266 Q184.0156,351.0469 185.6094,351.0469 Q186.5469,351.0469 187.2031,350.7969 Q187.5938,350.6406 188.0156,350.2031 Q188.2813,349.9375 188.4297,349.8594 Q188.5781,349.7813 188.7813,349.7813 Q189.1094,349.7813 189.3672,350.0391 Q189.625,350.2969 189.625,350.6406 Q189.625,350.9844 189.2813,351.3906 Q188.7813,351.9688 187.9844,352.2969 Q186.9063,352.75 185.6094,352.75 Q184.0938,352.75 182.8906,352.125 Q181.9063,351.625 181.2188,350.5547 Q180.5313,349.4844 180.5313,348.2031 L180.5313,347.0469 Q180.5313,345.7188 181.1484,344.5703 Q181.7656,343.4219 182.8594,342.8047 Q183.9531,342.1875 185.1875,342.1875 Q185.9219,342.1875 186.5703,342.3516 Q187.2188,342.5156 187.7656,342.875 Z " fill="#000000"/><text fill="#000000" font-family="sans-serif" font-size="12" lengthAdjust="spacing" textLength="133" x="199" y="351.9102">SerializableGameObject</text><line style="stroke:#A80036;stroke-width:1.5;" x1="171" x2="334" y1="363" y2="363"/><line style="stroke:#A80036;stroke-width:1.5;" x1="171" x2="334" y1="371" y2="371"/><!--MD5=[cd6ca9da01b2947ed5371bc0660d8ff3]
class ObjectType--><rect codeLine="36" fill="#FEFECE" filter="url(#f9epbk8oxk5sk)" height="48" id="ObjectType" style="stroke:#A80036;stroke-width:1.5;" width="93" x="42" y="331"/><ellipse cx="57" cy="347" fill="#EB937F" rx="11" ry="11" style="stroke:#A80036;stroke-width:1.0;"/><path d="M55.8594,347.7969 L55.8594,350.2969 L60.1875,350.2969 L60.1875,349.375 Q60.1875,348.7656 60.4297,348.5 Q60.6719,348.2344 61.0469,348.2344 Q61.4219,348.2344 61.6563,348.5 Q61.8906,348.7656 61.8906,349.375 L61.8906,352 L53.8906,352 Q53.2656,352 53.0078,351.7656 Q52.75,351.5313 52.75,351.1406 Q52.75,350.7656 53.0156,350.5313 Q53.2813,350.2969 53.8906,350.2969 L54.1563,350.2969 L54.1563,343.6406 L53.8906,343.6406 Q53.2656,343.6406 53.0078,343.4063 Q52.75,343.1719 52.75,342.7813 Q52.75,342.4063 53.0078,342.1719 Q53.2656,341.9375 53.8906,341.9375 L61.5156,341.9375 L61.5156,344.5313 Q61.5156,345.1406 61.2891,345.3984 Q61.0625,345.6563 60.6719,345.6563 Q60.2969,345.6563 60.0625,345.3984 Q59.8281,345.1406 59.8281,344.5313 L59.8281,343.6406 L55.8594,343.6406 L55.8594,346.0938 L57.3438,346.0938 Q57.3438,345.4375 57.4688,345.25 Q57.7344,344.8438 58.2031,344.8438 Q58.5781,344.8438 58.8125,345.1016 Q59.0469,345.3594 59.0469,345.9688 L59.0469,347.9375 Q59.0469,348.4844 58.9219,348.6719 Q58.6563,349.0625 58.2031,349.0625 Q57.7344,349.0625 57.4688,348.6563 Q57.3438,348.4688 57.3438,347.7969 L55.8594,347.7969 Z " fill="#000000"/><text fill="#000000" font-family="sans-serif" font-size="12" lengthAdjust="spacing" textLength="61" x="71" y="351.9102">ObjectType</text><line style="stroke:#A80036;stroke-width:1.5;" x1="43" x2="134" y1="363" y2="363"/><line style="stroke:#A80036;stroke-width:1.5;" x1="43" x2="134" y1="371" y2="371"/><!--MD5=[67eb2a2e46f9471956d08809acd99ce2]
reverse link GameObject to MoveableObject--><path codeLine="39" d="M583.11,169.4 C623.18,186.32 672.79,207.27 710,222.98 " fill="none" id="GameObject-backto-MoveableObject" style="stroke:#A80036;stroke-width:1.0;"/><polygon fill="none" points="580.3,175.81,564.6,161.58,585.74,162.91,580.3,175.81" style="stroke:#A80036;stroke-width:1.0;"/><!--MD5=[4dcd3dfe2fa9670111ad6516839d5bfa]
reverse link MoveableObject to Obstacle--><path codeLine="41" d="M684.38,276.12 C626.05,296.59 549.48,323.47 503.24,339.7 " fill="none" id="MoveableObject-backto-Obstacle" style="stroke:#A80036;stroke-width:1.0;"/><polygon fill="none" points="682.2,269.47,703.39,269.45,686.83,282.68,682.2,269.47" style="stroke:#A80036;stroke-width:1.0;"/><!--MD5=[5261a6ab5a16501f424602d3127a7c44]
reverse link CollisionObject to Obstacle--><path codeLine="42" d="M840.38,271.29 C706.36,305.62 569.8,333.22 503.24,346.2 " fill="none" id="CollisionObject-backto-Obstacle" style="stroke:#A80036;stroke-width:1.0;"/><polygon fill="none" points="839.01,264.41,860.13,266.17,842.52,277.96,839.01,264.41" style="stroke:#A80036;stroke-width:1.0;"/><!--MD5=[2447f226540ec9c560347afc2c55664a]
reverse link Obstacle to ObstacleBranch--><path codeLine="43" d="M431.82,395.18 C420.37,409.8 407.74,425.93 397.76,438.68 " fill="none" id="Obstacle-backto-ObstacleBranch" style="stroke:#A80036;stroke-width:1.0;"/><polygon fill="none" points="426.65,390.43,444.49,379,437.67,399.06,426.65,390.43" style="stroke:#A80036;stroke-width:1.0;"/><!--MD5=[74ea1e852bbb142d1f2055725197de01]
reverse link Obstacle to ObstacleDuck--><path codeLine="44" d="M402.26,370.01 C336.06,385.68 226.72,412.38 133.5,439 C127.82,440.62 121.92,442.38 116.04,444.19 " fill="none" id="Obstacle-backto-ObstacleDuck" style="stroke:#A80036;stroke-width:1.0;"/><polygon fill="none" points="400.69,363.19,421.76,365.42,403.9,376.82,400.69,363.19" style="stroke:#A80036;stroke-width:1.0;"/><!--MD5=[d39e13981833993a391e28dcff3f4c08]
reverse link ObstacleBranch to ObstacleFloatingBranch--><path codeLine="45" d="M379.5,507.02 C379.5,520.58 379.5,535.04 379.5,546.68 " fill="none" id="ObstacleBranch-backto-ObstacleFloatingBranch" style="stroke:#A80036;stroke-width:1.0;"/><polygon fill="none" points="372.5,507,379.5,487,386.5,507,372.5,507" style="stroke:#A80036;stroke-width:1.0;"/><!--MD5=[8e2ecfac9517fa4870172ee422e4ef6e]
reverse link Obstacle to ObstacleLaneWall--><path codeLine="46" d="M403.35,381.59 C362.95,399.07 309.85,422.04 270.77,438.95 " fill="none" id="Obstacle-backto-ObstacleLaneWall" style="stroke:#A80036;stroke-width:1.0;"/><polygon fill="none" points="400.63,375.14,421.77,373.62,406.19,387.99,400.63,375.14" style="stroke:#A80036;stroke-width:1.0;"/><!--MD5=[298bff1c342649cb830efb293b769409]
reverse link MoveableObject to PowerUp--><path codeLine="48" d="M767.75,291.02 C768.77,304.58 769.86,319.04 770.74,330.68 " fill="none" id="MoveableObject-backto-PowerUp" style="stroke:#A80036;stroke-width:1.0;"/><polygon fill="none" points="760.76,291.47,766.24,271,774.72,290.42,760.76,291.47" style="stroke:#A80036;stroke-width:1.0;"/><!--MD5=[d05f3ba7c416abf4098b182fdab41a58]
reverse link CollisionObject to PowerUp--><path codeLine="49" d="M870.32,282.98 C848.65,298.71 823.66,316.85 804.37,330.86 " fill="none" id="CollisionObject-backto-PowerUp" style="stroke:#A80036;stroke-width:1.0;"/><polygon fill="none" points="866.52,277.09,886.82,271,874.75,288.42,866.52,277.09" style="stroke:#A80036;stroke-width:1.0;"/><!--MD5=[16c5051b7bcfc3a101dc4c644fe178ab]
reverse link PowerUp to PowerUpEnergy--><path codeLine="50" d="M832.71,377.22 C834.66,377.83 836.59,378.43 838.5,379 C942.14,410.17 970.08,410.54 1074.5,439 C1080.43,440.62 1086.59,442.34 1092.75,444.08 " fill="none" id="PowerUp-backto-PowerUpEnergy" style="stroke:#A80036;stroke-width:1.0;"/><polygon fill="none" points="830.32,383.81,813.51,370.91,834.7,370.51,830.32,383.81" style="stroke:#A80036;stroke-width:1.0;"/><!--MD5=[ae392a56f60e0b4744b70cc2bfb057c0]
reverse link PowerUp to PowerUpSpeed--><path codeLine="51" d="M802.07,395.18 C813.1,409.8 825.28,425.93 834.9,438.68 " fill="none" id="PowerUp-backto-PowerUpSpeed" style="stroke:#A80036;stroke-width:1.0;"/><polygon fill="none" points="796.32,399.18,789.86,379,807.49,390.75,796.32,399.18" style="stroke:#A80036;stroke-width:1.0;"/><!--MD5=[054e8f4ab364f5efe309622673eae5b2]
reverse link PowerUp to PowerUpRotation--><path codeLine="52" d="M743.3,395.18 C732.4,409.8 720.38,425.93 710.88,438.68 " fill="none" id="PowerUp-backto-PowerUpRotation" style="stroke:#A80036;stroke-width:1.0;"/><polygon fill="none" points="737.79,390.85,755.36,379,749.02,399.22,737.79,390.85" style="stroke:#A80036;stroke-width:1.0;"/><!--MD5=[bb487c4031ab0cb225bb0e14c07f1b21]
reverse link PowerUp to PowerUpDrag--><path codeLine="53" d="M831.85,383.35 C869.27,400.6 917.04,422.62 952.52,438.97 " fill="none" id="PowerUp-backto-PowerUpDrag" style="stroke:#A80036;stroke-width:1.0;"/><polygon fill="none" points="828.85,389.68,813.62,374.95,834.71,376.96,828.85,389.68" style="stroke:#A80036;stroke-width:1.0;"/><!--MD5=[d21346eac00faed809b96df6e155989b]
reverse link PowerUp to PowerUpHealth--><path codeLine="54" d="M712.96,382.52 C674.03,399.86 623.68,422.28 586.39,438.89 " fill="none" id="PowerUp-backto-PowerUpHealth" style="stroke:#A80036;stroke-width:1.0;"/><polygon fill="none" points="710.2,376.09,731.32,374.34,715.89,388.87,710.2,376.09" style="stroke:#A80036;stroke-width:1.0;"/><!--MD5=[556f525838ff4f21499678df80e5dac3]
reverse link MoveableObject to Boat--><path codeLine="56" d="M845.11,271.7 C954.33,302.85 1062.15,332.39 1112.59,346.14 " fill="none" id="MoveableObject-backto-Boat" style="stroke:#A80036;stroke-width:1.0;"/><polygon fill="none" points="843.09,278.4,825.79,266.17,846.94,264.94,843.09,278.4" style="stroke:#A80036;stroke-width:1.0;"/><!--MD5=[02282af48b966665939bd48eb72da4be]
reverse link CollisionObject to Boat--><path codeLine="57" d="M985.02,279.62 C1027.67,299.89 1080.86,325.18 1112.95,340.43 " fill="none" id="CollisionObject-backto-Boat" style="stroke:#A80036;stroke-width:1.0;"/><polygon fill="none" points="981.95,285.91,966.89,271,987.96,273.26,981.95,285.91" style="stroke:#A80036;stroke-width:1.0;"/><!--MD5=[98cb05a5852845d19943ffcf66c8c39b]
reverse link Boat to PlayerBoat--><path codeLine="58" d="M1186.95,387.49 C1210.73,403.96 1239.33,423.78 1261.06,438.83 " fill="none" id="Boat-backto-PlayerBoat" style="stroke:#A80036;stroke-width:1.0;"/><polygon fill="none" points="1182.73,393.08,1170.28,375.94,1190.7,381.57,1182.73,393.08" style="stroke:#A80036;stroke-width:1.0;"/><!--MD5=[2f77c2c140af5a9927a9dd3039ffea70]
reverse link Boat to AIBoat--><path codeLine="59" d="M1189.03,373.38 C1233.01,389.67 1300.05,415.03 1357.5,439 C1363.15,441.36 1369.1,443.95 1374.88,446.51 " fill="none" id="Boat-backto-AIBoat" style="stroke:#A80036;stroke-width:1.0;"/><polygon fill="none" points="1186.35,379.85,1170.01,366.37,1191.2,366.72,1186.35,379.85" style="stroke:#A80036;stroke-width:1.0;"/><!--MD5=[a0aa917fa3c85539bb76fa1aa9e5e473]
reverse link Scene to SceneMainGame--><path codeLine="61" d="M1192.56,71.18 C1181.39,85.8 1169.06,101.93 1159.32,114.68 " fill="none" id="Scene-backto-SceneMainGame" style="stroke:#A80036;stroke-width:1.0;"/><polygon fill="none" points="1187.22,66.64,1204.92,55,1198.34,75.14,1187.22,66.64" style="stroke:#A80036;stroke-width:1.0;"/><!--MD5=[f5866c8437053a6f5437e389243267e3]
reverse link Scene to SceneOptionsMenu--><path codeLine="62" d="M1168.55,34.92 C1041.49,42.42 713.83,65.33 444.5,115 C438.97,116.02 433.27,117.21 427.57,118.5 " fill="none" id="Scene-backto-SceneOptionsMenu" style="stroke:#A80036;stroke-width:1.0;"/><polygon fill="none" points="1168.5,27.91,1188.87,33.75,1169.31,41.89,1168.5,27.91" style="stroke:#A80036;stroke-width:1.0;"/><!--MD5=[97fbcc543611354a47a07c5f8f6cae89]
reverse link Scene to SceneStartScreen--><path codeLine="63" d="M1170.48,54.51 C1129.39,72.29 1072.26,97 1030.83,114.93 " fill="none" id="Scene-backto-SceneStartScreen" style="stroke:#A80036;stroke-width:1.0;"/><polygon fill="none" points="1167.81,48.03,1188.95,46.52,1173.37,60.88,1167.81,48.03" style="stroke:#A80036;stroke-width:1.0;"/><!--MD5=[dc132ea77ed0156e517550f67054d034]
reverse link Scene to SceneTutorial--><path codeLine="64" d="M1168.87,38.29 C1077.03,49.64 884.14,76.07 724.5,115 C718.96,116.35 713.23,117.92 707.53,119.58 " fill="none" id="Scene-backto-SceneTutorial" style="stroke:#A80036;stroke-width:1.0;"/><polygon fill="none" points="1168.24,31.31,1188.93,35.85,1169.93,45.21,1168.24,31.31" style="stroke:#A80036;stroke-width:1.0;"/><!--MD5=[9e072197b2792edc590de9d690ff7a6d]
reverse link Scene to SceneDifficulty--><path codeLine="65" d="M1275.21,50.26 C1330.19,69.3 1416.04,99.04 1472.28,118.53 " fill="none" id="Scene-backto-SceneDifficulty" style="stroke:#A80036;stroke-width:1.0;"/><polygon fill="none" points="1272.73,56.81,1256.12,43.65,1277.31,43.58,1272.73,56.81" style="stroke:#A80036;stroke-width:1.0;"/><!--MD5=[e394019d8e707edccadc7957d8c0d2a8]
reverse link Scene to SceneAwardScreen--><path codeLine="66" d="M1276.07,42.94 C1349.8,58.16 1486.59,87.03 1602.5,115 C1607.97,116.32 1613.62,117.72 1619.29,119.16 " fill="none" id="Scene-backto-SceneAwardScreen" style="stroke:#A80036;stroke-width:1.0;"/><polygon fill="none" points="1274.34,49.73,1256.16,38.84,1277.16,36.01,1274.34,49.73" style="stroke:#A80036;stroke-width:1.0;"/><!--MD5=[ee81c073ffd5b92ae3bdf6919cd75d13]
reverse link Scene to SceneGameOver--><path codeLine="67" d="M1252.44,71.18 C1263.61,85.8 1275.94,101.93 1285.68,114.68 " fill="none" id="Scene-backto-SceneGameOver" style="stroke:#A80036;stroke-width:1.0;"/><polygon fill="none" points="1246.66,75.14,1240.08,55,1257.78,66.64,1246.66,75.14" style="stroke:#A80036;stroke-width:1.0;"/><!--MD5=[7e39c84f1af1012627564284022932a9]
reverse link Scene to SceneResultsScreen--><path codeLine="68" d="M1276.54,31.57 C1403.14,31.83 1713.09,40.25 1777.5,115 C1810.04,152.77 1752.87,196.64 1708.65,222.82 " fill="none" id="Scene-backto-SceneResultsScreen" style="stroke:#A80036;stroke-width:1.0;"/><polygon fill="none" points="1276.16,38.57,1256.15,31.6,1276.14,24.57,1276.16,38.57" style="stroke:#A80036;stroke-width:1.0;"/><!--MD5=[f56170c7bb5fe1e4218f334a593bb3c2]
reverse link Scene to SceneLoadScreen--><path codeLine="69" d="M1169.23,45.2 C1104.28,61.35 991.2,89.68 894.5,115 C888.73,116.51 882.75,118.09 876.75,119.69 " fill="none" id="Scene-backto-SceneLoadScreen" style="stroke:#A80036;stroke-width:1.0;"/><polygon fill="none" points="1167.83,38.33,1188.93,40.3,1171.21,51.92,1167.83,38.33" style="stroke:#A80036;stroke-width:1.0;"/><!--MD5=[d5b94e3923de6cba27f8c198231f879e]
reverse link Scene to SceneSaveScreen--><path codeLine="70" d="M1275.55,43.89 C1312.87,55.32 1360.16,76.71 1383.5,115 C1404.55,149.54 1379.07,195.57 1359.32,222.86 " fill="none" id="Scene-backto-SceneSaveScreen" style="stroke:#A80036;stroke-width:1.0;"/><polygon fill="none" points="1273.48,50.58,1256.06,38.52,1277.2,37.09,1273.48,50.58" style="stroke:#A80036;stroke-width:1.0;"/><!--MD5=[6774d3f715b13d27728f407867366100]
reverse link Serializable to GameState--><path codeLine="72" d="M183.12,181.09 C176.46,195.2 169.25,210.48 163.5,222.68 " fill="none" id="Serializable-backto-GameState" style="stroke:#A80036;stroke-width:1.0;"/><polygon fill="none" points="176.79,178.1,191.65,163,189.45,184.08,176.79,178.1" style="stroke:#A80036;stroke-width:1.0;"/><!--MD5=[df7dc5bf715dc72859b47f3e3e2f1e17]
reverse link Serializable to SerializableGameObject--><path codeLine="73" d="M212.56,183.04 C222.95,227.54 238.8,295.36 247.06,330.72 " fill="none" id="Serializable-backto-SerializableGameObject" style="stroke:#A80036;stroke-width:1.0;"/><polygon fill="none" points="205.68,184.38,207.95,163.31,219.31,181.19,205.68,184.38" style="stroke:#A80036;stroke-width:1.0;"/><!--MD5=[a4805e0ae02cde47a35b7df8b44072fa]
reverse link PixelBoat to SceneMainGame--><path codeLine="76" d="M785.96,45.22 C851.32,61.2 964.15,89.17 1060.5,115 C1066.15,116.51 1072.01,118.12 1077.88,119.74 " fill="none" id="PixelBoat-backto-SceneMainGame" style="stroke:#A80036;stroke-width:1.0;"/><polygon fill="#A80036" points="773.15,42.09,778.0291,47.3999,784.8071,44.9383,779.928,39.6285,773.15,42.09" style="stroke:#A80036;stroke-width:1.0;"/><text fill="#000000" font-family="sans-serif" font-size="13" lengthAdjust="spacing" textLength="7" x="780.9102" y="40.1464">1</text><text fill="#000000" font-family="sans-serif" font-size="13" lengthAdjust="spacing" textLength="7" x="1063.1193" y="114.1035">1</text><!--MD5=[f3c77e877333280ea32333856addcbe6]
reverse link PixelBoat to SceneOptionsMenu--><path codeLine="77" d="M677.13,47.41 C611.21,66.09 499.96,97.62 427.64,118.12 " fill="none" id="PixelBoat-backto-SceneOptionsMenu" style="stroke:#A80036;stroke-width:1.0;"/><polygon fill="#A80036" points="689.69,43.85,682.8266,41.6377,678.1448,47.1222,685.0081,49.3345,689.69,43.85" style="stroke:#A80036;stroke-width:1.0;"/><text fill="#000000" font-family="sans-serif" font-size="13" lengthAdjust="spacing" textLength="7" x="674.9023" y="60.9589">1</text><text fill="#000000" font-family="sans-serif" font-size="13" lengthAdjust="spacing" textLength="7" x="435.6944" y="112.4756">1</text><!--MD5=[43e0c177b5f6e6fc119675eb6fdb340f]
reverse link PixelBoat to SceneStartScreen--><path codeLine="78" d="M785.2,55.14 C826.34,72.87 882.83,97.21 923.94,114.92 " fill="none" id="PixelBoat-backto-SceneStartScreen" style="stroke:#A80036;stroke-width:1.0;"/><polygon fill="#A80036" points="773.23,49.98,777.1561,56.0286,784.2495,54.7309,780.3234,48.6823,773.23,49.98" style="stroke:#A80036;stroke-width:1.0;"/><text fill="#000000" font-family="sans-serif" font-size="13" lengthAdjust="spacing" textLength="7" x="781.0039" y="68.1425">1</text><text fill="#000000" font-family="sans-serif" font-size="13" lengthAdjust="spacing" textLength="7" x="902.3184" y="104.2397">1</text><!--MD5=[81a756b288c897a1f2c95945e59f9d82]
reverse link PixelBoat to SceneTutorial--><path codeLine="79" d="M706.82,65.54 C695.05,81.53 681.27,100.27 670.66,114.68 " fill="none" id="PixelBoat-backto-SceneTutorial" style="stroke:#A80036;stroke-width:1.0;"/><polygon fill="#A80036" points="714.58,55,707.8008,57.4582,707.4625,64.6613,714.2417,62.2032,714.58,55" style="stroke:#A80036;stroke-width:1.0;"/><text fill="#000000" font-family="sans-serif" font-size="13" lengthAdjust="spacing" textLength="7" x="702.6026" y="76.338">1</text><text fill="#000000" font-family="sans-serif" font-size="13" lengthAdjust="spacing" textLength="7" x="666.9896" y="104.34">1</text><!--MD5=[c007ee29f40127c144abf6801e8b3522]
reverse link PixelBoat to SceneLoadScreen--><path codeLine="80" d="M756.18,65.54 C767.95,81.53 781.73,100.27 792.34,114.68 " fill="none" id="PixelBoat-backto-SceneLoadScreen" style="stroke:#A80036;stroke-width:1.0;"/><polygon fill="#A80036" points="748.42,55,748.7583,62.2032,755.5375,64.6613,755.1992,57.4582,748.42,55" style="stroke:#A80036;stroke-width:1.0;"/><text fill="#000000" font-family="sans-serif" font-size="13" lengthAdjust="spacing" textLength="7" x="744.6911" y="76.338">1</text><text fill="#000000" font-family="sans-serif" font-size="13" lengthAdjust="spacing" textLength="7" x="780.3041" y="104.34">1</text><!--MD5=[82c176f830b657eb1d244a1a534d724b]
reverse link PixelBoat to GameState--><path codeLine="82" d="M676.5,35.6 C535.7,45.36 170.85,74.39 135.5,115 C109.6,144.75 126.18,193.66 139.85,222.55 " fill="none" id="PixelBoat-backto-GameState" style="stroke:#A80036;stroke-width:1.0;"/><polygon fill="#A80036" points="689.79,34.69,683.5273,31.1154,677.8188,35.5215,684.0816,39.0961,689.79,34.69" style="stroke:#A80036;stroke-width:1.0;"/><text fill="#000000" font-family="sans-serif" font-size="13" lengthAdjust="spacing" textLength="7" x="675.0195" y="31.4745">1</text><text fill="#000000" font-family="sans-serif" font-size="13" lengthAdjust="spacing" textLength="7" x="128.9134" y="212.1783">1</text><!--MD5=[9956ec25f5cdc2df3ee74f0be5f0dcce]
reverse link BoatRace to Obstacle--><path codeLine="84" d="M579.13,278.16 C553.39,294.9 521.86,315.4 498.08,330.86 " fill="none" id="BoatRace-backto-Obstacle" style="stroke:#A80036;stroke-width:1.0;"/><polygon fill="#A80036" points="590.13,271,582.9194,270.9165,580.069,277.5403,587.2796,277.6238,590.13,271" style="stroke:#A80036;stroke-width:1.0;"/><text fill="#000000" font-family="sans-serif" font-size="13" lengthAdjust="spacing" textLength="7" x="573.6554" y="292.338">1</text><text fill="#000000" font-family="sans-serif" font-size="13" lengthAdjust="spacing" textLength="20" x="484.6349" y="320.1643">0..*</text><!--MD5=[987fb3fc77ec8005e41d34febf688004]
reverse link BoatRace to PowerUp--><path codeLine="85" d="M667.95,278.61 C691.05,295.26 719.16,315.54 740.41,330.86 " fill="none" id="BoatRace-backto-PowerUp" style="stroke:#A80036;stroke-width:1.0;"/><polygon fill="#A80036" points="657.4,271,659.9281,277.7534,667.1344,278.0172,664.6063,271.2638,657.4,271" style="stroke:#A80036;stroke-width:1.0;"/><text fill="#000000" font-family="sans-serif" font-size="13" lengthAdjust="spacing" textLength="7" x="657.3225" y="292.338">1</text><text fill="#000000" font-family="sans-serif" font-size="13" lengthAdjust="spacing" textLength="20" x="709.6244" y="320.1643">0..*</text><!--MD5=[dea9aff65749270c567862b6383c97c5]
reverse link SceneMainGame to BoatRace--><path codeLine="87" d="M1064.71,162.05 C1063.29,162.37 1061.89,162.69 1060.5,163 C895.7,199.45 848.51,179.22 685.5,223 C680.01,224.48 674.32,226.28 668.73,228.21 " fill="none" id="SceneMainGame-backto-BoatRace" style="stroke:#A80036;stroke-width:1.0;"/><polygon fill="#A80036" points="1077.57,158.91,1070.792,156.4485,1065.9129,161.7583,1072.6909,164.2199,1077.57,158.91" style="stroke:#A80036;stroke-width:1.0;"/><text fill="#000000" font-family="sans-serif" font-size="13" lengthAdjust="spacing" textLength="7" x="1063.1948" y="157.727">1</text><text fill="#000000" font-family="sans-serif" font-size="13" lengthAdjust="spacing" textLength="7" x="676.4697" y="221.2971">1</text><!--MD5=[d6a101e2663756f0c64d370b5dcb7656]
reverse link SceneMainGame to SceneResultsScreen--><path codeLine="88" d="M1217.65,161.84 C1219.28,162.24 1220.9,162.62 1222.5,163 C1350.56,193.14 1501.53,219.56 1589.77,234.1 " fill="none" id="SceneMainGame-backto-SceneResultsScreen" style="stroke:#A80036;stroke-width:1.0;"/><polygon fill="#A80036" points="1205.03,158.63,1209.8608,163.9838,1216.6608,161.5838,1211.83,156.23,1205.03,158.63" style="stroke:#A80036;stroke-width:1.0;"/><text fill="#000000" font-family="sans-serif" font-size="13" lengthAdjust="spacing" textLength="7" x="1213.1993" y="157.5639">1</text><text fill="#000000" font-family="sans-serif" font-size="13" lengthAdjust="spacing" textLength="7" x="1575.0692" y="229.5551">1</text><!--MD5=[4920121928632d1c55313bba7d983c59]
reverse link SceneMainGame to Boat--><path codeLine="89" d="M1141.5,176.54 C1141.5,220.68 1141.5,293.59 1141.5,330.72 " fill="none" id="SceneMainGame-backto-Boat" style="stroke:#A80036;stroke-width:1.0;"/><polygon fill="#A80036" points="1141.5,163.31,1137.5,169.31,1141.5,175.31,1145.5,169.31,1141.5,163.31" style="stroke:#A80036;stroke-width:1.0;"/><text fill="#000000" font-family="sans-serif" font-size="13" lengthAdjust="spacing" textLength="7" x="1133.6906" y="184.3175">1</text><text fill="#000000" font-family="sans-serif" font-size="13" lengthAdjust="spacing" textLength="20" x="1118.9375" y="319.9884">1..*</text><!--MD5=[5e732c069ef9445006a29673c529473e]
reverse link SceneMainGame to GameState--><path codeLine="90" d="M1064.73,162.18 C1063.31,162.47 1061.9,162.74 1060.5,163 C892.42,194.26 361.56,231.86 199.77,242.84 " fill="none" id="SceneMainGame-backto-GameState" style="stroke:#A80036;stroke-width:1.0;"/><polygon fill="#A80036" points="1077.65,159.31,1070.9261,156.7044,1065.9348,161.909,1072.6587,164.5145,1077.65,159.31" style="stroke:#A80036;stroke-width:1.0;"/><text fill="#000000" font-family="sans-serif" font-size="13" lengthAdjust="spacing" textLength="7" x="1062.8627" y="176.0988">1</text><text fill="#000000" font-family="sans-serif" font-size="13" lengthAdjust="spacing" textLength="15" x="207.472" y="238.6498">0..</text><!--MD5=[6e5ca71cfca24ea3890b9aa1460a8021]
reverse link SceneMainGame to SceneSaveScreen--><path codeLine="91" d="M1196.43,169.26 C1228.16,186.16 1267.51,207.12 1297.06,222.86 " fill="none" id="SceneMainGame-backto-SceneSaveScreen" style="stroke:#A80036;stroke-width:1.0;"/><polygon fill="#A80036" points="1184.68,163,1188.0934,169.3521,1195.2697,168.6443,1191.8563,162.2923,1184.68,163" style="stroke:#A80036;stroke-width:1.0;"/><text fill="#000000" font-family="sans-serif" font-size="13" lengthAdjust="spacing" textLength="7" x="1187.352" y="184.338">1</text><text fill="#000000" font-family="sans-serif" font-size="13" lengthAdjust="spacing" textLength="7" x="1278.0316" y="212.1643">1</text><!--MD5=[67b6a674f1d7d07ee52a4c24924bed86]
reverse link GameState to ObjectType--><path codeLine="93" d="M131.69,282.47 C122.16,298.25 111.12,316.54 102.58,330.68 " fill="none" id="GameState-backto-ObjectType" style="stroke:#A80036;stroke-width:1.0;"/><polygon fill="#A80036" points="138.61,271,132.0855,274.071,132.4109,281.2748,138.9353,278.2038,138.61,271" style="stroke:#A80036;stroke-width:1.0;"/><text fill="#000000" font-family="sans-serif" font-size="13" lengthAdjust="spacing" textLength="7" x="127.3712" y="292.338">1</text><text fill="#000000" font-family="sans-serif" font-size="13" lengthAdjust="spacing" textLength="7" x="98.1589" y="320.34">1</text><!--MD5=[4ea9ba8f7259d8fa3c5f4698750064ad]
reverse link GameState to SerializableGameObject--><path codeLine="94" d="M183.28,280.63 C198.55,296.81 216.64,315.99 230.5,330.68 " fill="none" id="GameState-backto-SerializableGameObject" style="stroke:#A80036;stroke-width:1.0;"/><polygon fill="#A80036" points="174.2,271,175.4104,278.1088,182.4379,279.7256,181.2275,272.6168,174.2,271" style="stroke:#A80036;stroke-width:1.0;"/><text fill="#000000" font-family="sans-serif" font-size="13" lengthAdjust="spacing" textLength="7" x="171.6363" y="292.338">1</text><text fill="#000000" font-family="sans-serif" font-size="13" lengthAdjust="spacing" textLength="20" x="202.7" y="320.34">1..*</text><!--MD5=[fb1e0a30be4f7cf3976387db5b7d50d9]
reverse link CollisionObject to CollisionBounds--><path codeLine="96" d="M918.5,284.34 C918.5,299.68 918.5,317.1 918.5,330.68 " fill="none" id="CollisionObject-backto-CollisionBounds" style="stroke:#A80036;stroke-width:1.0;"/><polygon fill="#A80036" points="918.5,271,914.5,277,918.5,283,922.5,277,918.5,271" style="stroke:#A80036;stroke-width:1.0;"/><text fill="#000000" font-family="sans-serif" font-size="13" lengthAdjust="spacing" textLength="7" x="910.6469" y="292.338">1</text><text fill="#000000" font-family="sans-serif" font-size="13" lengthAdjust="spacing" textLength="7" x="910.6469" y="320.34">1</text><!--MD5=[77deca6e5fb20bef9778f1df39d87b13]
@startuml
class AIBoat
abstract class Boat
class GameState
class BoatRace
class CollisionBounds
interface CollisionObject
abstract class GameObject
abstract class MoveableObject
abstract class Obstacle
abstract class PowerUp
class PowerUpSpeed
class PowerUpDrag
class PowerUpEnergy
class PowerUpHealth
class PowerUpRotation
class ObstacleBranch
class ObstacleDuck
class ObstacleFloatingBranch
class ObstacleLaneWall
class PixelBoat
class PlayerBoat
interface Scene
class SceneDifficulty
class SceneMainGame
class SceneOptionsMenu
class SceneStartScreen
class SceneTutorial
class SceneAwardScreen
class SceneGameOver
class SceneResultsScreen
class SceneLoadScreen
class SceneSaveScreen
interface Serializable
class GameState
class SerializableGameObject
enum ObjectType


GameObject <|- - MoveableObject

MoveableObject <|- - Obstacle
CollisionObject <|- - Obstacle
Obstacle <|- - ObstacleBranch
Obstacle <|- - ObstacleDuck
ObstacleBranch <|- - ObstacleFloatingBranch
Obstacle <|- - ObstacleLaneWall

MoveableObject <|- - PowerUp
CollisionObject <|- - PowerUp
PowerUp <|- - PowerUpEnergy
PowerUp <|- - PowerUpSpeed
PowerUp <|- - PowerUpRotation
PowerUp <|- - PowerUpDrag
PowerUp <|- - PowerUpHealth

MoveableObject <|- - Boat
CollisionObject <|- - Boat
Boat <|- - PlayerBoat
Boat <|- - AIBoat

Scene <|- - SceneMainGame
Scene <|- - SceneOptionsMenu
Scene <|- - SceneStartScreen
Scene <|- - SceneTutorial
Scene <|- - SceneDifficulty
Scene <|- - SceneAwardScreen
Scene <|- - SceneGameOver
Scene <|- - SceneResultsScreen
Scene <|- - SceneLoadScreen
Scene <|- - SceneSaveScreen

Serializable <|- - GameState
Serializable <|- - SerializableGameObject


PixelBoat "1" *- - "1" SceneMainGame
PixelBoat "1" *- - "1" SceneOptionsMenu
PixelBoat "1" *- - "1" SceneStartScreen
PixelBoat "1" *- - "1" SceneTutorial
PixelBoat "1" *- - "1" SceneLoadScreen

PixelBoat "1" *- - "1" GameState

BoatRace "1" *- - "0..*" Obstacle
BoatRace "1" *- - "0..*" PowerUp

SceneMainGame "1" *- - "1" BoatRace
SceneMainGame "1" *- - "1" SceneResultsScreen
SceneMainGame "1" *- - "1..*" Boat
SceneMainGame "1" *- - "0.." GameState
SceneMainGame "1" *- - "1" SceneSaveScreen

GameState "1" *- - "1" ObjectType
GameState "1" *- - "1..*" SerializableGameObject

CollisionObject "1" *- - "1" CollisionBounds
@enduml

PlantUML version 1.2021.00(Sun Jan 10 10:25:05 GMT 2021)
(GPL source distribution)
Java Runtime: Java(TM) SE Runtime Environment
JVM: Java HotSpot(TM) 64-Bit Server VM
Default Encoding: Cp1252
Language: en
Country: GB
--></g></svg>