<?xml version="1.0" encoding="UTF-8" standalone="no"?><svg xmlns="http://www.w3.org/2000/svg" xmlns:xlink="http://www.w3.org/1999/xlink" contentScriptType="application/ecmascript" contentStyleType="text/css" height="501px" preserveAspectRatio="none" style="width:2592px;height:501px;" version="1.1" viewBox="0 0 2592 501" width="2592px" zoomAndPan="magnify"><defs><filter height="300%" id="f1j7z5nt4jjv42" width="300%" x="-1" y="-1"><feGaussianBlur result="blurOut" stdDeviation="2.0"/><feColorMatrix in="blurOut" result="blurOut2" type="matrix" values="0 0 0 0 0 0 0 0 0 0 0 0 0 0 0 0 0 0 .4 0"/><feOffset dx="4.0" dy="4.0" in="blurOut2" result="blurOut3"/><feBlend in="SourceGraphic" in2="blurOut3" mode="normal"/></filter></defs><g><!--MD5=[18fb3b8b891fcc2cffdb0edb6f0580a1]
class AIBoat--><rect codeLine="1" fill="#FEFECE" filter="url(#f1j7z5nt4jjv42)" height="48" id="AIBoat" style="stroke:#A80036;stroke-width:1.5;" width="67" x="7" y="331"/><ellipse cx="22" cy="347" fill="#ADD1B2" rx="11" ry="11" style="stroke:#A80036;stroke-width:1.0;"/><path d="M24.7656,342.875 Q24.9219,342.6563 25.1094,342.5469 Q25.2969,342.4375 25.5156,342.4375 Q25.8906,342.4375 26.125,342.6953 Q26.3594,342.9531 26.3594,343.5625 L26.3594,345.0156 Q26.3594,345.625 26.125,345.8906 Q25.8906,346.1563 25.5156,346.1563 Q25.1719,346.1563 24.9688,345.9531 Q24.7656,345.7656 24.6563,345.25 Q24.6094,344.8906 24.4219,344.7031 Q24.0938,344.3281 23.4844,344.1094 Q22.875,343.8906 22.25,343.8906 Q21.4844,343.8906 20.8516,344.2188 Q20.2188,344.5469 19.7266,345.2969 Q19.2344,346.0469 19.2344,347.0781 L19.2344,348.1719 Q19.2344,349.4063 20.125,350.2266 Q21.0156,351.0469 22.6094,351.0469 Q23.5469,351.0469 24.2031,350.7969 Q24.5938,350.6406 25.0156,350.2031 Q25.2813,349.9375 25.4297,349.8594 Q25.5781,349.7813 25.7813,349.7813 Q26.1094,349.7813 26.3672,350.0391 Q26.625,350.2969 26.625,350.6406 Q26.625,350.9844 26.2813,351.3906 Q25.7813,351.9688 24.9844,352.2969 Q23.9063,352.75 22.6094,352.75 Q21.0938,352.75 19.8906,352.125 Q18.9063,351.625 18.2188,350.5547 Q17.5313,349.4844 17.5313,348.2031 L17.5313,347.0469 Q17.5313,345.7188 18.1484,344.5703 Q18.7656,343.4219 19.8594,342.8047 Q20.9531,342.1875 22.1875,342.1875 Q22.9219,342.1875 23.5703,342.3516 Q24.2188,342.5156 24.7656,342.875 Z " fill="#000000"/><text fill="#000000" font-family="sans-serif" font-size="12" lengthAdjust="spacing" textLength="35" x="36" y="351.9102">AIBoat</text><line style="stroke:#A80036;stroke-width:1.5;" x1="8" x2="73" y1="363" y2="363"/><line style="stroke:#A80036;stroke-width:1.5;" x1="8" x2="73" y1="371" y2="371"/><!--MD5=[d7378ac8501ce6417ec16634b4f30c76]
class Boat--><rect codeLine="2" fill="#FEFECE" filter="url(#f1j7z5nt4jjv42)" height="48" id="Boat" style="stroke:#A80036;stroke-width:1.5;" width="57" x="288" y="223"/><ellipse cx="303" cy="239" fill="#A9DCDF" rx="11" ry="11" style="stroke:#A80036;stroke-width:1.0;"/><path d="M305.1875,240.7656 L301.0469,240.7656 L300.625,241.7969 L301.0469,241.7969 Q301.6563,241.7969 301.9219,242.0313 Q302.1875,242.2656 302.1875,242.6563 Q302.1875,243.0313 301.9219,243.2656 Q301.6563,243.5 301.0469,243.5 L298.75,243.5 Q298.1406,243.5 297.8828,243.2656 Q297.625,243.0313 297.625,242.6406 Q297.625,242.2656 297.8984,242.0234 Q298.1719,241.7813 298.7969,241.7969 L301.4688,235.1406 L300.3594,235.1406 Q299.75,235.1406 299.4844,234.9063 Q299.2188,234.6719 299.2188,234.2813 Q299.2188,233.9063 299.4844,233.6719 Q299.75,233.4375 300.3594,233.4375 L304.0313,233.4375 L307.4219,241.7969 Q308.0156,241.7969 308.2031,241.9375 Q308.5938,242.2031 308.5938,242.6563 Q308.5938,243.0313 308.3359,243.2656 Q308.0781,243.5 307.4688,243.5 L305.1719,243.5 Q304.5625,243.5 304.2969,243.2656 Q304.0313,243.0313 304.0313,242.6406 Q304.0313,242.2656 304.2969,242.0313 Q304.5625,241.7969 305.1719,241.7969 L305.5938,241.7969 L305.1875,240.7656 Z M304.4688,239.0625 L303.1094,235.6875 L301.7344,239.0625 L304.4688,239.0625 Z " fill="#000000"/><text fill="#000000" font-family="sans-serif" font-size="12" font-style="italic" lengthAdjust="spacing" textLength="25" x="317" y="243.9102">Boat</text><line style="stroke:#A80036;stroke-width:1.5;" x1="289" x2="344" y1="255" y2="255"/><line style="stroke:#A80036;stroke-width:1.5;" x1="289" x2="344" y1="263" y2="263"/><!--MD5=[7ad87d4687b1c74665962eea80f8b40b]
class BoatRace--><rect codeLine="3" fill="#FEFECE" filter="url(#f1j7z5nt4jjv42)" height="48" id="BoatRace" style="stroke:#A80036;stroke-width:1.5;" width="86" x="74.5" y="7"/><ellipse cx="89.5" cy="23" fill="#ADD1B2" rx="11" ry="11" style="stroke:#A80036;stroke-width:1.0;"/><path d="M92.2656,18.875 Q92.4219,18.6563 92.6094,18.5469 Q92.7969,18.4375 93.0156,18.4375 Q93.3906,18.4375 93.625,18.6953 Q93.8594,18.9531 93.8594,19.5625 L93.8594,21.0156 Q93.8594,21.625 93.625,21.8906 Q93.3906,22.1563 93.0156,22.1563 Q92.6719,22.1563 92.4688,21.9531 Q92.2656,21.7656 92.1563,21.25 Q92.1094,20.8906 91.9219,20.7031 Q91.5938,20.3281 90.9844,20.1094 Q90.375,19.8906 89.75,19.8906 Q88.9844,19.8906 88.3516,20.2188 Q87.7188,20.5469 87.2266,21.2969 Q86.7344,22.0469 86.7344,23.0781 L86.7344,24.1719 Q86.7344,25.4063 87.625,26.2266 Q88.5156,27.0469 90.1094,27.0469 Q91.0469,27.0469 91.7031,26.7969 Q92.0938,26.6406 92.5156,26.2031 Q92.7813,25.9375 92.9297,25.8594 Q93.0781,25.7813 93.2813,25.7813 Q93.6094,25.7813 93.8672,26.0391 Q94.125,26.2969 94.125,26.6406 Q94.125,26.9844 93.7813,27.3906 Q93.2813,27.9688 92.4844,28.2969 Q91.4063,28.75 90.1094,28.75 Q88.5938,28.75 87.3906,28.125 Q86.4063,27.625 85.7188,26.5547 Q85.0313,25.4844 85.0313,24.2031 L85.0313,23.0469 Q85.0313,21.7188 85.6484,20.5703 Q86.2656,19.4219 87.3594,18.8047 Q88.4531,18.1875 89.6875,18.1875 Q90.4219,18.1875 91.0703,18.3516 Q91.7188,18.5156 92.2656,18.875 Z " fill="#000000"/><text fill="#000000" font-family="sans-serif" font-size="12" lengthAdjust="spacing" textLength="54" x="103.5" y="27.9102">BoatRace</text><line style="stroke:#A80036;stroke-width:1.5;" x1="75.5" x2="159.5" y1="39" y2="39"/><line style="stroke:#A80036;stroke-width:1.5;" x1="75.5" x2="159.5" y1="47" y2="47"/><!--MD5=[48e88c162c5505361c629eb6ff3812a8]
class GameState--><rect codeLine="34" fill="#FEFECE" filter="url(#f1j7z5nt4jjv42)" height="48" id="GameState" style="stroke:#A80036;stroke-width:1.5;" width="94" x="630.5" y="115"/><ellipse cx="645.5" cy="131" fill="#ADD1B2" rx="11" ry="11" style="stroke:#A80036;stroke-width:1.0;"/><path d="M648.2656,126.875 Q648.4219,126.6563 648.6094,126.5469 Q648.7969,126.4375 649.0156,126.4375 Q649.3906,126.4375 649.625,126.6953 Q649.8594,126.9531 649.8594,127.5625 L649.8594,129.0156 Q649.8594,129.625 649.625,129.8906 Q649.3906,130.1563 649.0156,130.1563 Q648.6719,130.1563 648.4688,129.9531 Q648.2656,129.7656 648.1563,129.25 Q648.1094,128.8906 647.9219,128.7031 Q647.5938,128.3281 646.9844,128.1094 Q646.375,127.8906 645.75,127.8906 Q644.9844,127.8906 644.3516,128.2188 Q643.7188,128.5469 643.2266,129.2969 Q642.7344,130.0469 642.7344,131.0781 L642.7344,132.1719 Q642.7344,133.4063 643.625,134.2266 Q644.5156,135.0469 646.1094,135.0469 Q647.0469,135.0469 647.7031,134.7969 Q648.0938,134.6406 648.5156,134.2031 Q648.7813,133.9375 648.9297,133.8594 Q649.0781,133.7813 649.2813,133.7813 Q649.6094,133.7813 649.8672,134.0391 Q650.125,134.2969 650.125,134.6406 Q650.125,134.9844 649.7813,135.3906 Q649.2813,135.9688 648.4844,136.2969 Q647.4063,136.75 646.1094,136.75 Q644.5938,136.75 643.3906,136.125 Q642.4063,135.625 641.7188,134.5547 Q641.0313,133.4844 641.0313,132.2031 L641.0313,131.0469 Q641.0313,129.7188 641.6484,128.5703 Q642.2656,127.4219 643.3594,126.8047 Q644.4531,126.1875 645.6875,126.1875 Q646.4219,126.1875 647.0703,126.3516 Q647.7188,126.5156 648.2656,126.875 Z " fill="#000000"/><text fill="#000000" font-family="sans-serif" font-size="12" lengthAdjust="spacing" textLength="62" x="659.5" y="135.9102">GameState</text><line style="stroke:#A80036;stroke-width:1.5;" x1="631.5" x2="723.5" y1="147" y2="147"/><line style="stroke:#A80036;stroke-width:1.5;" x1="631.5" x2="723.5" y1="155" y2="155"/><!--MD5=[dad577432b370c149ed719f544827710]
class CollisionBounds--><rect codeLine="5" fill="#FEFECE" filter="url(#f1j7z5nt4jjv42)" height="48" id="CollisionBounds" style="stroke:#A80036;stroke-width:1.5;" width="124" x="195.5" y="7"/><ellipse cx="210.5" cy="23" fill="#ADD1B2" rx="11" ry="11" style="stroke:#A80036;stroke-width:1.0;"/><path d="M213.2656,18.875 Q213.4219,18.6563 213.6094,18.5469 Q213.7969,18.4375 214.0156,18.4375 Q214.3906,18.4375 214.625,18.6953 Q214.8594,18.9531 214.8594,19.5625 L214.8594,21.0156 Q214.8594,21.625 214.625,21.8906 Q214.3906,22.1563 214.0156,22.1563 Q213.6719,22.1563 213.4688,21.9531 Q213.2656,21.7656 213.1563,21.25 Q213.1094,20.8906 212.9219,20.7031 Q212.5938,20.3281 211.9844,20.1094 Q211.375,19.8906 210.75,19.8906 Q209.9844,19.8906 209.3516,20.2188 Q208.7188,20.5469 208.2266,21.2969 Q207.7344,22.0469 207.7344,23.0781 L207.7344,24.1719 Q207.7344,25.4063 208.625,26.2266 Q209.5156,27.0469 211.1094,27.0469 Q212.0469,27.0469 212.7031,26.7969 Q213.0938,26.6406 213.5156,26.2031 Q213.7813,25.9375 213.9297,25.8594 Q214.0781,25.7813 214.2813,25.7813 Q214.6094,25.7813 214.8672,26.0391 Q215.125,26.2969 215.125,26.6406 Q215.125,26.9844 214.7813,27.3906 Q214.2813,27.9688 213.4844,28.2969 Q212.4063,28.75 211.1094,28.75 Q209.5938,28.75 208.3906,28.125 Q207.4063,27.625 206.7188,26.5547 Q206.0313,25.4844 206.0313,24.2031 L206.0313,23.0469 Q206.0313,21.7188 206.6484,20.5703 Q207.2656,19.4219 208.3594,18.8047 Q209.4531,18.1875 210.6875,18.1875 Q211.4219,18.1875 212.0703,18.3516 Q212.7188,18.5156 213.2656,18.875 Z " fill="#000000"/><text fill="#000000" font-family="sans-serif" font-size="12" lengthAdjust="spacing" textLength="92" x="224.5" y="27.9102">CollisionBounds</text><line style="stroke:#A80036;stroke-width:1.5;" x1="196.5" x2="318.5" y1="39" y2="39"/><line style="stroke:#A80036;stroke-width:1.5;" x1="196.5" x2="318.5" y1="47" y2="47"/><!--MD5=[aacfa9e8a43f0443332ec4be3ea5f7a8]
class CollisionObject--><rect codeLine="6" fill="#FEFECE" filter="url(#f1j7z5nt4jjv42)" height="48" id="CollisionObject" style="stroke:#A80036;stroke-width:1.5;" width="116" x="322.5" y="115"/><ellipse cx="337.5" cy="131" fill="#B4A7E5" rx="11" ry="11" style="stroke:#A80036;stroke-width:1.0;"/><path d="M338.4531,127.6406 L338.4531,134.2969 L340.1719,134.2969 Q340.7813,134.2969 341.0469,134.5313 Q341.3125,134.7656 341.3125,135.1563 Q341.3125,135.5313 341.0469,135.7656 Q340.7813,136 340.1719,136 L335.0313,136 Q334.4219,136 334.1563,135.7656 Q333.8906,135.5313 333.8906,135.1406 Q333.8906,134.7656 334.1563,134.5313 Q334.4219,134.2969 335.0313,134.2969 L336.75,134.2969 L336.75,127.6406 L335.0313,127.6406 Q334.4219,127.6406 334.1563,127.4063 Q333.8906,127.1719 333.8906,126.7813 Q333.8906,126.4063 334.1563,126.1719 Q334.4219,125.9375 335.0313,125.9375 L340.1719,125.9375 Q340.7813,125.9375 341.0469,126.1719 Q341.3125,126.4063 341.3125,126.7813 Q341.3125,127.1719 341.0469,127.4063 Q340.7813,127.6406 340.1719,127.6406 L338.4531,127.6406 Z " fill="#000000"/><text fill="#000000" font-family="sans-serif" font-size="12" font-style="italic" lengthAdjust="spacing" textLength="84" x="351.5" y="135.9102">CollisionObject</text><line style="stroke:#A80036;stroke-width:1.5;" x1="323.5" x2="437.5" y1="147" y2="147"/><line style="stroke:#A80036;stroke-width:1.5;" x1="323.5" x2="437.5" y1="155" y2="155"/><!--MD5=[064f7a74fee85463ec1a30143664ee17]
class GameObject--><rect codeLine="7" fill="#FEFECE" filter="url(#f1j7z5nt4jjv42)" height="48" id="GameObject" style="stroke:#A80036;stroke-width:1.5;" width="102" x="483.5" y="7"/><ellipse cx="498.5" cy="23" fill="#A9DCDF" rx="11" ry="11" style="stroke:#A80036;stroke-width:1.0;"/><path d="M500.6875,24.7656 L496.5469,24.7656 L496.125,25.7969 L496.5469,25.7969 Q497.1563,25.7969 497.4219,26.0313 Q497.6875,26.2656 497.6875,26.6563 Q497.6875,27.0313 497.4219,27.2656 Q497.1563,27.5 496.5469,27.5 L494.25,27.5 Q493.6406,27.5 493.3828,27.2656 Q493.125,27.0313 493.125,26.6406 Q493.125,26.2656 493.3984,26.0234 Q493.6719,25.7813 494.2969,25.7969 L496.9688,19.1406 L495.8594,19.1406 Q495.25,19.1406 494.9844,18.9063 Q494.7188,18.6719 494.7188,18.2813 Q494.7188,17.9063 494.9844,17.6719 Q495.25,17.4375 495.8594,17.4375 L499.5313,17.4375 L502.9219,25.7969 Q503.5156,25.7969 503.7031,25.9375 Q504.0938,26.2031 504.0938,26.6563 Q504.0938,27.0313 503.8359,27.2656 Q503.5781,27.5 502.9688,27.5 L500.6719,27.5 Q500.0625,27.5 499.7969,27.2656 Q499.5313,27.0313 499.5313,26.6406 Q499.5313,26.2656 499.7969,26.0313 Q500.0625,25.7969 500.6719,25.7969 L501.0938,25.7969 L500.6875,24.7656 Z M499.9688,23.0625 L498.6094,19.6875 L497.2344,23.0625 L499.9688,23.0625 Z " fill="#000000"/><text fill="#000000" font-family="sans-serif" font-size="12" font-style="italic" lengthAdjust="spacing" textLength="70" x="512.5" y="27.9102">GameObject</text><line style="stroke:#A80036;stroke-width:1.5;" x1="484.5" x2="584.5" y1="39" y2="39"/><line style="stroke:#A80036;stroke-width:1.5;" x1="484.5" x2="584.5" y1="47" y2="47"/><!--MD5=[fe88339b2988a1ef1c95b68c104d7624]
class MoveableObject--><rect codeLine="8" fill="#FEFECE" filter="url(#f1j7z5nt4jjv42)" height="48" id="MoveableObject" style="stroke:#A80036;stroke-width:1.5;" width="122" x="473.5" y="115"/><ellipse cx="488.5" cy="131" fill="#A9DCDF" rx="11" ry="11" style="stroke:#A80036;stroke-width:1.0;"/><path d="M490.6875,132.7656 L486.5469,132.7656 L486.125,133.7969 L486.5469,133.7969 Q487.1563,133.7969 487.4219,134.0313 Q487.6875,134.2656 487.6875,134.6563 Q487.6875,135.0313 487.4219,135.2656 Q487.1563,135.5 486.5469,135.5 L484.25,135.5 Q483.6406,135.5 483.3828,135.2656 Q483.125,135.0313 483.125,134.6406 Q483.125,134.2656 483.3984,134.0234 Q483.6719,133.7813 484.2969,133.7969 L486.9688,127.1406 L485.8594,127.1406 Q485.25,127.1406 484.9844,126.9063 Q484.7188,126.6719 484.7188,126.2813 Q484.7188,125.9063 484.9844,125.6719 Q485.25,125.4375 485.8594,125.4375 L489.5313,125.4375 L492.9219,133.7969 Q493.5156,133.7969 493.7031,133.9375 Q494.0938,134.2031 494.0938,134.6563 Q494.0938,135.0313 493.8359,135.2656 Q493.5781,135.5 492.9688,135.5 L490.6719,135.5 Q490.0625,135.5 489.7969,135.2656 Q489.5313,135.0313 489.5313,134.6406 Q489.5313,134.2656 489.7969,134.0313 Q490.0625,133.7969 490.6719,133.7969 L491.0938,133.7969 L490.6875,132.7656 Z M489.9688,131.0625 L488.6094,127.6875 L487.2344,131.0625 L489.9688,131.0625 Z " fill="#000000"/><text fill="#000000" font-family="sans-serif" font-size="12" font-style="italic" lengthAdjust="spacing" textLength="90" x="502.5" y="135.9102">MoveableObject</text><line style="stroke:#A80036;stroke-width:1.5;" x1="474.5" x2="594.5" y1="147" y2="147"/><line style="stroke:#A80036;stroke-width:1.5;" x1="474.5" x2="594.5" y1="155" y2="155"/><!--MD5=[23868d926b4091f874f65c50fc3e197e]
class Obstacle--><rect codeLine="9" fill="#FEFECE" filter="url(#f1j7z5nt4jjv42)" height="48" id="Obstacle" style="stroke:#A80036;stroke-width:1.5;" width="81" x="405" y="223"/><ellipse cx="420" cy="239" fill="#A9DCDF" rx="11" ry="11" style="stroke:#A80036;stroke-width:1.0;"/><path d="M422.1875,240.7656 L418.0469,240.7656 L417.625,241.7969 L418.0469,241.7969 Q418.6563,241.7969 418.9219,242.0313 Q419.1875,242.2656 419.1875,242.6563 Q419.1875,243.0313 418.9219,243.2656 Q418.6563,243.5 418.0469,243.5 L415.75,243.5 Q415.1406,243.5 414.8828,243.2656 Q414.625,243.0313 414.625,242.6406 Q414.625,242.2656 414.8984,242.0234 Q415.1719,241.7813 415.7969,241.7969 L418.4688,235.1406 L417.3594,235.1406 Q416.75,235.1406 416.4844,234.9063 Q416.2188,234.6719 416.2188,234.2813 Q416.2188,233.9063 416.4844,233.6719 Q416.75,233.4375 417.3594,233.4375 L421.0313,233.4375 L424.4219,241.7969 Q425.0156,241.7969 425.2031,241.9375 Q425.5938,242.2031 425.5938,242.6563 Q425.5938,243.0313 425.3359,243.2656 Q425.0781,243.5 424.4688,243.5 L422.1719,243.5 Q421.5625,243.5 421.2969,243.2656 Q421.0313,243.0313 421.0313,242.6406 Q421.0313,242.2656 421.2969,242.0313 Q421.5625,241.7969 422.1719,241.7969 L422.5938,241.7969 L422.1875,240.7656 Z M421.4688,239.0625 L420.1094,235.6875 L418.7344,239.0625 L421.4688,239.0625 Z " fill="#000000"/><text fill="#000000" font-family="sans-serif" font-size="12" font-style="italic" lengthAdjust="spacing" textLength="49" x="434" y="243.9102">Obstacle</text><line style="stroke:#A80036;stroke-width:1.5;" x1="406" x2="485" y1="255" y2="255"/><line style="stroke:#A80036;stroke-width:1.5;" x1="406" x2="485" y1="263" y2="263"/><!--MD5=[4547f04c185f2c4543cd5e5112560fdc]
class ObstacleBranch--><rect codeLine="10" fill="#FEFECE" filter="url(#f1j7z5nt4jjv42)" height="48" id="ObstacleBranch" style="stroke:#A80036;stroke-width:1.5;" width="120" x="235.5" y="331"/><ellipse cx="250.5" cy="347" fill="#ADD1B2" rx="11" ry="11" style="stroke:#A80036;stroke-width:1.0;"/><path d="M253.2656,342.875 Q253.4219,342.6563 253.6094,342.5469 Q253.7969,342.4375 254.0156,342.4375 Q254.3906,342.4375 254.625,342.6953 Q254.8594,342.9531 254.8594,343.5625 L254.8594,345.0156 Q254.8594,345.625 254.625,345.8906 Q254.3906,346.1563 254.0156,346.1563 Q253.6719,346.1563 253.4688,345.9531 Q253.2656,345.7656 253.1563,345.25 Q253.1094,344.8906 252.9219,344.7031 Q252.5938,344.3281 251.9844,344.1094 Q251.375,343.8906 250.75,343.8906 Q249.9844,343.8906 249.3516,344.2188 Q248.7188,344.5469 248.2266,345.2969 Q247.7344,346.0469 247.7344,347.0781 L247.7344,348.1719 Q247.7344,349.4063 248.625,350.2266 Q249.5156,351.0469 251.1094,351.0469 Q252.0469,351.0469 252.7031,350.7969 Q253.0938,350.6406 253.5156,350.2031 Q253.7813,349.9375 253.9297,349.8594 Q254.0781,349.7813 254.2813,349.7813 Q254.6094,349.7813 254.8672,350.0391 Q255.125,350.2969 255.125,350.6406 Q255.125,350.9844 254.7813,351.3906 Q254.2813,351.9688 253.4844,352.2969 Q252.4063,352.75 251.1094,352.75 Q249.5938,352.75 248.3906,352.125 Q247.4063,351.625 246.7188,350.5547 Q246.0313,349.4844 246.0313,348.2031 L246.0313,347.0469 Q246.0313,345.7188 246.6484,344.5703 Q247.2656,343.4219 248.3594,342.8047 Q249.4531,342.1875 250.6875,342.1875 Q251.4219,342.1875 252.0703,342.3516 Q252.7188,342.5156 253.2656,342.875 Z " fill="#000000"/><text fill="#000000" font-family="sans-serif" font-size="12" lengthAdjust="spacing" textLength="88" x="264.5" y="351.9102">ObstacleBranch</text><line style="stroke:#A80036;stroke-width:1.5;" x1="236.5" x2="354.5" y1="363" y2="363"/><line style="stroke:#A80036;stroke-width:1.5;" x1="236.5" x2="354.5" y1="371" y2="371"/><!--MD5=[b19bd0575d5e9b89c418741af47506da]
class ObstacleDuck--><rect codeLine="11" fill="#FEFECE" filter="url(#f1j7z5nt4jjv42)" height="48" id="ObstacleDuck" style="stroke:#A80036;stroke-width:1.5;" width="109" x="391" y="331"/><ellipse cx="406" cy="347" fill="#ADD1B2" rx="11" ry="11" style="stroke:#A80036;stroke-width:1.0;"/><path d="M408.7656,342.875 Q408.9219,342.6563 409.1094,342.5469 Q409.2969,342.4375 409.5156,342.4375 Q409.8906,342.4375 410.125,342.6953 Q410.3594,342.9531 410.3594,343.5625 L410.3594,345.0156 Q410.3594,345.625 410.125,345.8906 Q409.8906,346.1563 409.5156,346.1563 Q409.1719,346.1563 408.9688,345.9531 Q408.7656,345.7656 408.6563,345.25 Q408.6094,344.8906 408.4219,344.7031 Q408.0938,344.3281 407.4844,344.1094 Q406.875,343.8906 406.25,343.8906 Q405.4844,343.8906 404.8516,344.2188 Q404.2188,344.5469 403.7266,345.2969 Q403.2344,346.0469 403.2344,347.0781 L403.2344,348.1719 Q403.2344,349.4063 404.125,350.2266 Q405.0156,351.0469 406.6094,351.0469 Q407.5469,351.0469 408.2031,350.7969 Q408.5938,350.6406 409.0156,350.2031 Q409.2813,349.9375 409.4297,349.8594 Q409.5781,349.7813 409.7813,349.7813 Q410.1094,349.7813 410.3672,350.0391 Q410.625,350.2969 410.625,350.6406 Q410.625,350.9844 410.2813,351.3906 Q409.7813,351.9688 408.9844,352.2969 Q407.9063,352.75 406.6094,352.75 Q405.0938,352.75 403.8906,352.125 Q402.9063,351.625 402.2188,350.5547 Q401.5313,349.4844 401.5313,348.2031 L401.5313,347.0469 Q401.5313,345.7188 402.1484,344.5703 Q402.7656,343.4219 403.8594,342.8047 Q404.9531,342.1875 406.1875,342.1875 Q406.9219,342.1875 407.5703,342.3516 Q408.2188,342.5156 408.7656,342.875 Z " fill="#000000"/><text fill="#000000" font-family="sans-serif" font-size="12" lengthAdjust="spacing" textLength="77" x="420" y="351.9102">ObstacleDuck</text><line style="stroke:#A80036;stroke-width:1.5;" x1="392" x2="499" y1="363" y2="363"/><line style="stroke:#A80036;stroke-width:1.5;" x1="392" x2="499" y1="371" y2="371"/><!--MD5=[984dbebc17ca09c7aea9ae108686ba45]
class ObstacleFloatingBranch--><rect codeLine="12" fill="#FEFECE" filter="url(#f1j7z5nt4jjv42)" height="48" id="ObstacleFloatingBranch" style="stroke:#A80036;stroke-width:1.5;" width="164" x="213.5" y="439"/><ellipse cx="228.5" cy="455" fill="#ADD1B2" rx="11" ry="11" style="stroke:#A80036;stroke-width:1.0;"/><path d="M231.2656,450.875 Q231.4219,450.6563 231.6094,450.5469 Q231.7969,450.4375 232.0156,450.4375 Q232.3906,450.4375 232.625,450.6953 Q232.8594,450.9531 232.8594,451.5625 L232.8594,453.0156 Q232.8594,453.625 232.625,453.8906 Q232.3906,454.1563 232.0156,454.1563 Q231.6719,454.1563 231.4688,453.9531 Q231.2656,453.7656 231.1563,453.25 Q231.1094,452.8906 230.9219,452.7031 Q230.5938,452.3281 229.9844,452.1094 Q229.375,451.8906 228.75,451.8906 Q227.9844,451.8906 227.3516,452.2188 Q226.7188,452.5469 226.2266,453.2969 Q225.7344,454.0469 225.7344,455.0781 L225.7344,456.1719 Q225.7344,457.4063 226.625,458.2266 Q227.5156,459.0469 229.1094,459.0469 Q230.0469,459.0469 230.7031,458.7969 Q231.0938,458.6406 231.5156,458.2031 Q231.7813,457.9375 231.9297,457.8594 Q232.0781,457.7813 232.2813,457.7813 Q232.6094,457.7813 232.8672,458.0391 Q233.125,458.2969 233.125,458.6406 Q233.125,458.9844 232.7813,459.3906 Q232.2813,459.9688 231.4844,460.2969 Q230.4063,460.75 229.1094,460.75 Q227.5938,460.75 226.3906,460.125 Q225.4063,459.625 224.7188,458.5547 Q224.0313,457.4844 224.0313,456.2031 L224.0313,455.0469 Q224.0313,453.7188 224.6484,452.5703 Q225.2656,451.4219 226.3594,450.8047 Q227.4531,450.1875 228.6875,450.1875 Q229.4219,450.1875 230.0703,450.3516 Q230.7188,450.5156 231.2656,450.875 Z " fill="#000000"/><text fill="#000000" font-family="sans-serif" font-size="12" lengthAdjust="spacing" textLength="132" x="242.5" y="459.9102">ObstacleFloatingBranch</text><line style="stroke:#A80036;stroke-width:1.5;" x1="214.5" x2="376.5" y1="471" y2="471"/><line style="stroke:#A80036;stroke-width:1.5;" x1="214.5" x2="376.5" y1="479" y2="479"/><!--MD5=[be48d278c37504bf038512057d0f5275]
class ObstacleLaneWall--><rect codeLine="13" fill="#FEFECE" filter="url(#f1j7z5nt4jjv42)" height="48" id="ObstacleLaneWall" style="stroke:#A80036;stroke-width:1.5;" width="133" x="535" y="331"/><ellipse cx="550" cy="347" fill="#ADD1B2" rx="11" ry="11" style="stroke:#A80036;stroke-width:1.0;"/><path d="M552.7656,342.875 Q552.9219,342.6563 553.1094,342.5469 Q553.2969,342.4375 553.5156,342.4375 Q553.8906,342.4375 554.125,342.6953 Q554.3594,342.9531 554.3594,343.5625 L554.3594,345.0156 Q554.3594,345.625 554.125,345.8906 Q553.8906,346.1563 553.5156,346.1563 Q553.1719,346.1563 552.9688,345.9531 Q552.7656,345.7656 552.6563,345.25 Q552.6094,344.8906 552.4219,344.7031 Q552.0938,344.3281 551.4844,344.1094 Q550.875,343.8906 550.25,343.8906 Q549.4844,343.8906 548.8516,344.2188 Q548.2188,344.5469 547.7266,345.2969 Q547.2344,346.0469 547.2344,347.0781 L547.2344,348.1719 Q547.2344,349.4063 548.125,350.2266 Q549.0156,351.0469 550.6094,351.0469 Q551.5469,351.0469 552.2031,350.7969 Q552.5938,350.6406 553.0156,350.2031 Q553.2813,349.9375 553.4297,349.8594 Q553.5781,349.7813 553.7813,349.7813 Q554.1094,349.7813 554.3672,350.0391 Q554.625,350.2969 554.625,350.6406 Q554.625,350.9844 554.2813,351.3906 Q553.7813,351.9688 552.9844,352.2969 Q551.9063,352.75 550.6094,352.75 Q549.0938,352.75 547.8906,352.125 Q546.9063,351.625 546.2188,350.5547 Q545.5313,349.4844 545.5313,348.2031 L545.5313,347.0469 Q545.5313,345.7188 546.1484,344.5703 Q546.7656,343.4219 547.8594,342.8047 Q548.9531,342.1875 550.1875,342.1875 Q550.9219,342.1875 551.5703,342.3516 Q552.2188,342.5156 552.7656,342.875 Z " fill="#000000"/><text fill="#000000" font-family="sans-serif" font-size="12" lengthAdjust="spacing" textLength="101" x="564" y="351.9102">ObstacleLaneWall</text><line style="stroke:#A80036;stroke-width:1.5;" x1="536" x2="667" y1="363" y2="363"/><line style="stroke:#A80036;stroke-width:1.5;" x1="536" x2="667" y1="371" y2="371"/><!--MD5=[6e59e257303d1e16cb6f7f17f2110772]
class PowerUp--><rect codeLine="14" fill="#FEFECE" filter="url(#f1j7z5nt4jjv42)" height="48" id="PowerUp" style="stroke:#A80036;stroke-width:1.5;" width="82" x="871.5" y="223"/><ellipse cx="886.5" cy="239" fill="#A9DCDF" rx="11" ry="11" style="stroke:#A80036;stroke-width:1.0;"/><path d="M888.6875,240.7656 L884.5469,240.7656 L884.125,241.7969 L884.5469,241.7969 Q885.1563,241.7969 885.4219,242.0313 Q885.6875,242.2656 885.6875,242.6563 Q885.6875,243.0313 885.4219,243.2656 Q885.1563,243.5 884.5469,243.5 L882.25,243.5 Q881.6406,243.5 881.3828,243.2656 Q881.125,243.0313 881.125,242.6406 Q881.125,242.2656 881.3984,242.0234 Q881.6719,241.7813 882.2969,241.7969 L884.9688,235.1406 L883.8594,235.1406 Q883.25,235.1406 882.9844,234.9063 Q882.7188,234.6719 882.7188,234.2813 Q882.7188,233.9063 882.9844,233.6719 Q883.25,233.4375 883.8594,233.4375 L887.5313,233.4375 L890.9219,241.7969 Q891.5156,241.7969 891.7031,241.9375 Q892.0938,242.2031 892.0938,242.6563 Q892.0938,243.0313 891.8359,243.2656 Q891.5781,243.5 890.9688,243.5 L888.6719,243.5 Q888.0625,243.5 887.7969,243.2656 Q887.5313,243.0313 887.5313,242.6406 Q887.5313,242.2656 887.7969,242.0313 Q888.0625,241.7969 888.6719,241.7969 L889.0938,241.7969 L888.6875,240.7656 Z M887.9688,239.0625 L886.6094,235.6875 L885.2344,239.0625 L887.9688,239.0625 Z " fill="#000000"/><text fill="#000000" font-family="sans-serif" font-size="12" font-style="italic" lengthAdjust="spacing" textLength="50" x="900.5" y="243.9102">PowerUp</text><line style="stroke:#A80036;stroke-width:1.5;" x1="872.5" x2="952.5" y1="255" y2="255"/><line style="stroke:#A80036;stroke-width:1.5;" x1="872.5" x2="952.5" y1="263" y2="263"/><!--MD5=[70eb40ec4e98294ad6befc3105d328c0]
class PowerUpSpeed--><rect codeLine="15" fill="#FEFECE" filter="url(#f1j7z5nt4jjv42)" height="48" id="PowerUpSpeed" style="stroke:#A80036;stroke-width:1.5;" width="119" x="703" y="331"/><ellipse cx="718" cy="347" fill="#ADD1B2" rx="11" ry="11" style="stroke:#A80036;stroke-width:1.0;"/><path d="M720.7656,342.875 Q720.9219,342.6563 721.1094,342.5469 Q721.2969,342.4375 721.5156,342.4375 Q721.8906,342.4375 722.125,342.6953 Q722.3594,342.9531 722.3594,343.5625 L722.3594,345.0156 Q722.3594,345.625 722.125,345.8906 Q721.8906,346.1563 721.5156,346.1563 Q721.1719,346.1563 720.9688,345.9531 Q720.7656,345.7656 720.6563,345.25 Q720.6094,344.8906 720.4219,344.7031 Q720.0938,344.3281 719.4844,344.1094 Q718.875,343.8906 718.25,343.8906 Q717.4844,343.8906 716.8516,344.2188 Q716.2188,344.5469 715.7266,345.2969 Q715.2344,346.0469 715.2344,347.0781 L715.2344,348.1719 Q715.2344,349.4063 716.125,350.2266 Q717.0156,351.0469 718.6094,351.0469 Q719.5469,351.0469 720.2031,350.7969 Q720.5938,350.6406 721.0156,350.2031 Q721.2813,349.9375 721.4297,349.8594 Q721.5781,349.7813 721.7813,349.7813 Q722.1094,349.7813 722.3672,350.0391 Q722.625,350.2969 722.625,350.6406 Q722.625,350.9844 722.2813,351.3906 Q721.7813,351.9688 720.9844,352.2969 Q719.9063,352.75 718.6094,352.75 Q717.0938,352.75 715.8906,352.125 Q714.9063,351.625 714.2188,350.5547 Q713.5313,349.4844 713.5313,348.2031 L713.5313,347.0469 Q713.5313,345.7188 714.1484,344.5703 Q714.7656,343.4219 715.8594,342.8047 Q716.9531,342.1875 718.1875,342.1875 Q718.9219,342.1875 719.5703,342.3516 Q720.2188,342.5156 720.7656,342.875 Z " fill="#000000"/><text fill="#000000" font-family="sans-serif" font-size="12" lengthAdjust="spacing" textLength="87" x="732" y="351.9102">PowerUpSpeed</text><line style="stroke:#A80036;stroke-width:1.5;" x1="704" x2="821" y1="363" y2="363"/><line style="stroke:#A80036;stroke-width:1.5;" x1="704" x2="821" y1="371" y2="371"/><!--MD5=[25e00a08e13561d55d72e4d01232f4bf]
class PowerUpDrag--><rect codeLine="16" fill="#FEFECE" filter="url(#f1j7z5nt4jjv42)" height="48" id="PowerUpDrag" style="stroke:#A80036;stroke-width:1.5;" width="110" x="857.5" y="331"/><ellipse cx="872.5" cy="347" fill="#ADD1B2" rx="11" ry="11" style="stroke:#A80036;stroke-width:1.0;"/><path d="M875.2656,342.875 Q875.4219,342.6563 875.6094,342.5469 Q875.7969,342.4375 876.0156,342.4375 Q876.3906,342.4375 876.625,342.6953 Q876.8594,342.9531 876.8594,343.5625 L876.8594,345.0156 Q876.8594,345.625 876.625,345.8906 Q876.3906,346.1563 876.0156,346.1563 Q875.6719,346.1563 875.4688,345.9531 Q875.2656,345.7656 875.1563,345.25 Q875.1094,344.8906 874.9219,344.7031 Q874.5938,344.3281 873.9844,344.1094 Q873.375,343.8906 872.75,343.8906 Q871.9844,343.8906 871.3516,344.2188 Q870.7188,344.5469 870.2266,345.2969 Q869.7344,346.0469 869.7344,347.0781 L869.7344,348.1719 Q869.7344,349.4063 870.625,350.2266 Q871.5156,351.0469 873.1094,351.0469 Q874.0469,351.0469 874.7031,350.7969 Q875.0938,350.6406 875.5156,350.2031 Q875.7813,349.9375 875.9297,349.8594 Q876.0781,349.7813 876.2813,349.7813 Q876.6094,349.7813 876.8672,350.0391 Q877.125,350.2969 877.125,350.6406 Q877.125,350.9844 876.7813,351.3906 Q876.2813,351.9688 875.4844,352.2969 Q874.4063,352.75 873.1094,352.75 Q871.5938,352.75 870.3906,352.125 Q869.4063,351.625 868.7188,350.5547 Q868.0313,349.4844 868.0313,348.2031 L868.0313,347.0469 Q868.0313,345.7188 868.6484,344.5703 Q869.2656,343.4219 870.3594,342.8047 Q871.4531,342.1875 872.6875,342.1875 Q873.4219,342.1875 874.0703,342.3516 Q874.7188,342.5156 875.2656,342.875 Z " fill="#000000"/><text fill="#000000" font-family="sans-serif" font-size="12" lengthAdjust="spacing" textLength="78" x="886.5" y="351.9102">PowerUpDrag</text><line style="stroke:#A80036;stroke-width:1.5;" x1="858.5" x2="966.5" y1="363" y2="363"/><line style="stroke:#A80036;stroke-width:1.5;" x1="858.5" x2="966.5" y1="371" y2="371"/><!--MD5=[baa69d73fe455a6639bca7ddb1d35c15]
class PowerUpEnergy--><rect codeLine="17" fill="#FEFECE" filter="url(#f1j7z5nt4jjv42)" height="48" id="PowerUpEnergy" style="stroke:#A80036;stroke-width:1.5;" width="121" x="1003" y="331"/><ellipse cx="1018" cy="347" fill="#ADD1B2" rx="11" ry="11" style="stroke:#A80036;stroke-width:1.0;"/><path d="M1020.7656,342.875 Q1020.9219,342.6563 1021.1094,342.5469 Q1021.2969,342.4375 1021.5156,342.4375 Q1021.8906,342.4375 1022.125,342.6953 Q1022.3594,342.9531 1022.3594,343.5625 L1022.3594,345.0156 Q1022.3594,345.625 1022.125,345.8906 Q1021.8906,346.1563 1021.5156,346.1563 Q1021.1719,346.1563 1020.9688,345.9531 Q1020.7656,345.7656 1020.6563,345.25 Q1020.6094,344.8906 1020.4219,344.7031 Q1020.0938,344.3281 1019.4844,344.1094 Q1018.875,343.8906 1018.25,343.8906 Q1017.4844,343.8906 1016.8516,344.2188 Q1016.2188,344.5469 1015.7266,345.2969 Q1015.2344,346.0469 1015.2344,347.0781 L1015.2344,348.1719 Q1015.2344,349.4063 1016.125,350.2266 Q1017.0156,351.0469 1018.6094,351.0469 Q1019.5469,351.0469 1020.2031,350.7969 Q1020.5938,350.6406 1021.0156,350.2031 Q1021.2813,349.9375 1021.4297,349.8594 Q1021.5781,349.7813 1021.7813,349.7813 Q1022.1094,349.7813 1022.3672,350.0391 Q1022.625,350.2969 1022.625,350.6406 Q1022.625,350.9844 1022.2813,351.3906 Q1021.7813,351.9688 1020.9844,352.2969 Q1019.9063,352.75 1018.6094,352.75 Q1017.0938,352.75 1015.8906,352.125 Q1014.9063,351.625 1014.2188,350.5547 Q1013.5313,349.4844 1013.5313,348.2031 L1013.5313,347.0469 Q1013.5313,345.7188 1014.1484,344.5703 Q1014.7656,343.4219 1015.8594,342.8047 Q1016.9531,342.1875 1018.1875,342.1875 Q1018.9219,342.1875 1019.5703,342.3516 Q1020.2188,342.5156 1020.7656,342.875 Z " fill="#000000"/><text fill="#000000" font-family="sans-serif" font-size="12" lengthAdjust="spacing" textLength="89" x="1032" y="351.9102">PowerUpEnergy</text><line style="stroke:#A80036;stroke-width:1.5;" x1="1004" x2="1123" y1="363" y2="363"/><line style="stroke:#A80036;stroke-width:1.5;" x1="1004" x2="1123" y1="371" y2="371"/><!--MD5=[bb1664ab83e59acad550b7a0f7ef2002]
class PowerUpHealth--><rect codeLine="18" fill="#FEFECE" filter="url(#f1j7z5nt4jjv42)" height="48" id="PowerUpHealth" style="stroke:#A80036;stroke-width:1.5;" width="119" x="1159" y="331"/><ellipse cx="1174" cy="347" fill="#ADD1B2" rx="11" ry="11" style="stroke:#A80036;stroke-width:1.0;"/><path d="M1176.7656,342.875 Q1176.9219,342.6563 1177.1094,342.5469 Q1177.2969,342.4375 1177.5156,342.4375 Q1177.8906,342.4375 1178.125,342.6953 Q1178.3594,342.9531 1178.3594,343.5625 L1178.3594,345.0156 Q1178.3594,345.625 1178.125,345.8906 Q1177.8906,346.1563 1177.5156,346.1563 Q1177.1719,346.1563 1176.9688,345.9531 Q1176.7656,345.7656 1176.6563,345.25 Q1176.6094,344.8906 1176.4219,344.7031 Q1176.0938,344.3281 1175.4844,344.1094 Q1174.875,343.8906 1174.25,343.8906 Q1173.4844,343.8906 1172.8516,344.2188 Q1172.2188,344.5469 1171.7266,345.2969 Q1171.2344,346.0469 1171.2344,347.0781 L1171.2344,348.1719 Q1171.2344,349.4063 1172.125,350.2266 Q1173.0156,351.0469 1174.6094,351.0469 Q1175.5469,351.0469 1176.2031,350.7969 Q1176.5938,350.6406 1177.0156,350.2031 Q1177.2813,349.9375 1177.4297,349.8594 Q1177.5781,349.7813 1177.7813,349.7813 Q1178.1094,349.7813 1178.3672,350.0391 Q1178.625,350.2969 1178.625,350.6406 Q1178.625,350.9844 1178.2813,351.3906 Q1177.7813,351.9688 1176.9844,352.2969 Q1175.9063,352.75 1174.6094,352.75 Q1173.0938,352.75 1171.8906,352.125 Q1170.9063,351.625 1170.2188,350.5547 Q1169.5313,349.4844 1169.5313,348.2031 L1169.5313,347.0469 Q1169.5313,345.7188 1170.1484,344.5703 Q1170.7656,343.4219 1171.8594,342.8047 Q1172.9531,342.1875 1174.1875,342.1875 Q1174.9219,342.1875 1175.5703,342.3516 Q1176.2188,342.5156 1176.7656,342.875 Z " fill="#000000"/><text fill="#000000" font-family="sans-serif" font-size="12" lengthAdjust="spacing" textLength="87" x="1188" y="351.9102">PowerUpHealth</text><line style="stroke:#A80036;stroke-width:1.5;" x1="1160" x2="1277" y1="363" y2="363"/><line style="stroke:#A80036;stroke-width:1.5;" x1="1160" x2="1277" y1="371" y2="371"/><!--MD5=[95b81e5cbf3fae420eb8d85a4728edbb]
class PowerUpRotation--><rect codeLine="19" fill="#FEFECE" filter="url(#f1j7z5nt4jjv42)" height="48" id="PowerUpRotation" style="stroke:#A80036;stroke-width:1.5;" width="129" x="1313" y="331"/><ellipse cx="1328" cy="347" fill="#ADD1B2" rx="11" ry="11" style="stroke:#A80036;stroke-width:1.0;"/><path d="M1330.7656,342.875 Q1330.9219,342.6563 1331.1094,342.5469 Q1331.2969,342.4375 1331.5156,342.4375 Q1331.8906,342.4375 1332.125,342.6953 Q1332.3594,342.9531 1332.3594,343.5625 L1332.3594,345.0156 Q1332.3594,345.625 1332.125,345.8906 Q1331.8906,346.1563 1331.5156,346.1563 Q1331.1719,346.1563 1330.9688,345.9531 Q1330.7656,345.7656 1330.6563,345.25 Q1330.6094,344.8906 1330.4219,344.7031 Q1330.0938,344.3281 1329.4844,344.1094 Q1328.875,343.8906 1328.25,343.8906 Q1327.4844,343.8906 1326.8516,344.2188 Q1326.2188,344.5469 1325.7266,345.2969 Q1325.2344,346.0469 1325.2344,347.0781 L1325.2344,348.1719 Q1325.2344,349.4063 1326.125,350.2266 Q1327.0156,351.0469 1328.6094,351.0469 Q1329.5469,351.0469 1330.2031,350.7969 Q1330.5938,350.6406 1331.0156,350.2031 Q1331.2813,349.9375 1331.4297,349.8594 Q1331.5781,349.7813 1331.7813,349.7813 Q1332.1094,349.7813 1332.3672,350.0391 Q1332.625,350.2969 1332.625,350.6406 Q1332.625,350.9844 1332.2813,351.3906 Q1331.7813,351.9688 1330.9844,352.2969 Q1329.9063,352.75 1328.6094,352.75 Q1327.0938,352.75 1325.8906,352.125 Q1324.9063,351.625 1324.2188,350.5547 Q1323.5313,349.4844 1323.5313,348.2031 L1323.5313,347.0469 Q1323.5313,345.7188 1324.1484,344.5703 Q1324.7656,343.4219 1325.8594,342.8047 Q1326.9531,342.1875 1328.1875,342.1875 Q1328.9219,342.1875 1329.5703,342.3516 Q1330.2188,342.5156 1330.7656,342.875 Z " fill="#000000"/><text fill="#000000" font-family="sans-serif" font-size="12" lengthAdjust="spacing" textLength="97" x="1342" y="351.9102">PowerUpRotation</text><line style="stroke:#A80036;stroke-width:1.5;" x1="1314" x2="1441" y1="363" y2="363"/><line style="stroke:#A80036;stroke-width:1.5;" x1="1314" x2="1441" y1="371" y2="371"/><!--MD5=[3c83b70202e58b87ef51d700e986ab12]
class PixelBoat--><rect codeLine="20" fill="#FEFECE" filter="url(#f1j7z5nt4jjv42)" height="48" id="PixelBoat" style="stroke:#A80036;stroke-width:1.5;" width="83" x="76" y="115"/><ellipse cx="91" cy="131" fill="#ADD1B2" rx="11" ry="11" style="stroke:#A80036;stroke-width:1.0;"/><path d="M93.7656,126.875 Q93.9219,126.6563 94.1094,126.5469 Q94.2969,126.4375 94.5156,126.4375 Q94.8906,126.4375 95.125,126.6953 Q95.3594,126.9531 95.3594,127.5625 L95.3594,129.0156 Q95.3594,129.625 95.125,129.8906 Q94.8906,130.1563 94.5156,130.1563 Q94.1719,130.1563 93.9688,129.9531 Q93.7656,129.7656 93.6563,129.25 Q93.6094,128.8906 93.4219,128.7031 Q93.0938,128.3281 92.4844,128.1094 Q91.875,127.8906 91.25,127.8906 Q90.4844,127.8906 89.8516,128.2188 Q89.2188,128.5469 88.7266,129.2969 Q88.2344,130.0469 88.2344,131.0781 L88.2344,132.1719 Q88.2344,133.4063 89.125,134.2266 Q90.0156,135.0469 91.6094,135.0469 Q92.5469,135.0469 93.2031,134.7969 Q93.5938,134.6406 94.0156,134.2031 Q94.2813,133.9375 94.4297,133.8594 Q94.5781,133.7813 94.7813,133.7813 Q95.1094,133.7813 95.3672,134.0391 Q95.625,134.2969 95.625,134.6406 Q95.625,134.9844 95.2813,135.3906 Q94.7813,135.9688 93.9844,136.2969 Q92.9063,136.75 91.6094,136.75 Q90.0938,136.75 88.8906,136.125 Q87.9063,135.625 87.2188,134.5547 Q86.5313,133.4844 86.5313,132.2031 L86.5313,131.0469 Q86.5313,129.7188 87.1484,128.5703 Q87.7656,127.4219 88.8594,126.8047 Q89.9531,126.1875 91.1875,126.1875 Q91.9219,126.1875 92.5703,126.3516 Q93.2188,126.5156 93.7656,126.875 Z " fill="#000000"/><text fill="#000000" font-family="sans-serif" font-size="12" lengthAdjust="spacing" textLength="51" x="105" y="135.9102">PixelBoat</text><line style="stroke:#A80036;stroke-width:1.5;" x1="77" x2="158" y1="147" y2="147"/><line style="stroke:#A80036;stroke-width:1.5;" x1="77" x2="158" y1="155" y2="155"/><!--MD5=[8b809054524057386b660902a6971129]
class PlayerBoat--><rect codeLine="21" fill="#FEFECE" filter="url(#f1j7z5nt4jjv42)" height="48" id="PlayerBoat" style="stroke:#A80036;stroke-width:1.5;" width="91" x="109" y="331"/><ellipse cx="124" cy="347" fill="#ADD1B2" rx="11" ry="11" style="stroke:#A80036;stroke-width:1.0;"/><path d="M126.7656,342.875 Q126.9219,342.6563 127.1094,342.5469 Q127.2969,342.4375 127.5156,342.4375 Q127.8906,342.4375 128.125,342.6953 Q128.3594,342.9531 128.3594,343.5625 L128.3594,345.0156 Q128.3594,345.625 128.125,345.8906 Q127.8906,346.1563 127.5156,346.1563 Q127.1719,346.1563 126.9688,345.9531 Q126.7656,345.7656 126.6563,345.25 Q126.6094,344.8906 126.4219,344.7031 Q126.0938,344.3281 125.4844,344.1094 Q124.875,343.8906 124.25,343.8906 Q123.4844,343.8906 122.8516,344.2188 Q122.2188,344.5469 121.7266,345.2969 Q121.2344,346.0469 121.2344,347.0781 L121.2344,348.1719 Q121.2344,349.4063 122.125,350.2266 Q123.0156,351.0469 124.6094,351.0469 Q125.5469,351.0469 126.2031,350.7969 Q126.5938,350.6406 127.0156,350.2031 Q127.2813,349.9375 127.4297,349.8594 Q127.5781,349.7813 127.7813,349.7813 Q128.1094,349.7813 128.3672,350.0391 Q128.625,350.2969 128.625,350.6406 Q128.625,350.9844 128.2813,351.3906 Q127.7813,351.9688 126.9844,352.2969 Q125.9063,352.75 124.6094,352.75 Q123.0938,352.75 121.8906,352.125 Q120.9063,351.625 120.2188,350.5547 Q119.5313,349.4844 119.5313,348.2031 L119.5313,347.0469 Q119.5313,345.7188 120.1484,344.5703 Q120.7656,343.4219 121.8594,342.8047 Q122.9531,342.1875 124.1875,342.1875 Q124.9219,342.1875 125.5703,342.3516 Q126.2188,342.5156 126.7656,342.875 Z " fill="#000000"/><text fill="#000000" font-family="sans-serif" font-size="12" lengthAdjust="spacing" textLength="59" x="138" y="351.9102">PlayerBoat</text><line style="stroke:#A80036;stroke-width:1.5;" x1="110" x2="199" y1="363" y2="363"/><line style="stroke:#A80036;stroke-width:1.5;" x1="110" x2="199" y1="371" y2="371"/><!--MD5=[8b2b398dce0e1cff930c6759e8a8c711]
class SceneResultsScreen--><rect codeLine="22" fill="#FEFECE" filter="url(#f1j7z5nt4jjv42)" height="48" id="SceneResultsScreen" style="stroke:#A80036;stroke-width:1.5;" width="149" x="960" y="115"/><ellipse cx="975" cy="131" fill="#ADD1B2" rx="11" ry="11" style="stroke:#A80036;stroke-width:1.0;"/><path d="M977.7656,126.875 Q977.9219,126.6563 978.1094,126.5469 Q978.2969,126.4375 978.5156,126.4375 Q978.8906,126.4375 979.125,126.6953 Q979.3594,126.9531 979.3594,127.5625 L979.3594,129.0156 Q979.3594,129.625 979.125,129.8906 Q978.8906,130.1563 978.5156,130.1563 Q978.1719,130.1563 977.9688,129.9531 Q977.7656,129.7656 977.6563,129.25 Q977.6094,128.8906 977.4219,128.7031 Q977.0938,128.3281 976.4844,128.1094 Q975.875,127.8906 975.25,127.8906 Q974.4844,127.8906 973.8516,128.2188 Q973.2188,128.5469 972.7266,129.2969 Q972.2344,130.0469 972.2344,131.0781 L972.2344,132.1719 Q972.2344,133.4063 973.125,134.2266 Q974.0156,135.0469 975.6094,135.0469 Q976.5469,135.0469 977.2031,134.7969 Q977.5938,134.6406 978.0156,134.2031 Q978.2813,133.9375 978.4297,133.8594 Q978.5781,133.7813 978.7813,133.7813 Q979.1094,133.7813 979.3672,134.0391 Q979.625,134.2969 979.625,134.6406 Q979.625,134.9844 979.2813,135.3906 Q978.7813,135.9688 977.9844,136.2969 Q976.9063,136.75 975.6094,136.75 Q974.0938,136.75 972.8906,136.125 Q971.9063,135.625 971.2188,134.5547 Q970.5313,133.4844 970.5313,132.2031 L970.5313,131.0469 Q970.5313,129.7188 971.1484,128.5703 Q971.7656,127.4219 972.8594,126.8047 Q973.9531,126.1875 975.1875,126.1875 Q975.9219,126.1875 976.5703,126.3516 Q977.2188,126.5156 977.7656,126.875 Z " fill="#000000"/><text fill="#000000" font-family="sans-serif" font-size="12" lengthAdjust="spacing" textLength="117" x="989" y="135.9102">SceneResultsScreen</text><line style="stroke:#A80036;stroke-width:1.5;" x1="961" x2="1108" y1="147" y2="147"/><line style="stroke:#A80036;stroke-width:1.5;" x1="961" x2="1108" y1="155" y2="155"/><!--MD5=[e4faacc5b8aef66b11ab0c816bbbc7f8]
class Scene--><rect codeLine="23" fill="#FEFECE" filter="url(#f1j7z5nt4jjv42)" height="48" id="Scene" style="stroke:#A80036;stroke-width:1.5;" width="67" x="1739" y="7"/><ellipse cx="1754" cy="23" fill="#B4A7E5" rx="11" ry="11" style="stroke:#A80036;stroke-width:1.0;"/><path d="M1754.9531,19.6406 L1754.9531,26.2969 L1756.6719,26.2969 Q1757.2813,26.2969 1757.5469,26.5313 Q1757.8125,26.7656 1757.8125,27.1563 Q1757.8125,27.5313 1757.5469,27.7656 Q1757.2813,28 1756.6719,28 L1751.5313,28 Q1750.9219,28 1750.6563,27.7656 Q1750.3906,27.5313 1750.3906,27.1406 Q1750.3906,26.7656 1750.6563,26.5313 Q1750.9219,26.2969 1751.5313,26.2969 L1753.25,26.2969 L1753.25,19.6406 L1751.5313,19.6406 Q1750.9219,19.6406 1750.6563,19.4063 Q1750.3906,19.1719 1750.3906,18.7813 Q1750.3906,18.4063 1750.6563,18.1719 Q1750.9219,17.9375 1751.5313,17.9375 L1756.6719,17.9375 Q1757.2813,17.9375 1757.5469,18.1719 Q1757.8125,18.4063 1757.8125,18.7813 Q1757.8125,19.1719 1757.5469,19.4063 Q1757.2813,19.6406 1756.6719,19.6406 L1754.9531,19.6406 Z " fill="#000000"/><text fill="#000000" font-family="sans-serif" font-size="12" font-style="italic" lengthAdjust="spacing" textLength="35" x="1768" y="27.9102">Scene</text><line style="stroke:#A80036;stroke-width:1.5;" x1="1740" x2="1805" y1="39" y2="39"/><line style="stroke:#A80036;stroke-width:1.5;" x1="1740" x2="1805" y1="47" y2="47"/><!--MD5=[b3b4ac0d5377cc5253bac1ff73b36524]
class SceneDifficulty--><rect codeLine="24" fill="#FEFECE" filter="url(#f1j7z5nt4jjv42)" height="48" id="SceneDifficulty" style="stroke:#A80036;stroke-width:1.5;" width="112" x="1144.5" y="115"/><ellipse cx="1159.5" cy="131" fill="#ADD1B2" rx="11" ry="11" style="stroke:#A80036;stroke-width:1.0;"/><path d="M1162.2656,126.875 Q1162.4219,126.6563 1162.6094,126.5469 Q1162.7969,126.4375 1163.0156,126.4375 Q1163.3906,126.4375 1163.625,126.6953 Q1163.8594,126.9531 1163.8594,127.5625 L1163.8594,129.0156 Q1163.8594,129.625 1163.625,129.8906 Q1163.3906,130.1563 1163.0156,130.1563 Q1162.6719,130.1563 1162.4688,129.9531 Q1162.2656,129.7656 1162.1563,129.25 Q1162.1094,128.8906 1161.9219,128.7031 Q1161.5938,128.3281 1160.9844,128.1094 Q1160.375,127.8906 1159.75,127.8906 Q1158.9844,127.8906 1158.3516,128.2188 Q1157.7188,128.5469 1157.2266,129.2969 Q1156.7344,130.0469 1156.7344,131.0781 L1156.7344,132.1719 Q1156.7344,133.4063 1157.625,134.2266 Q1158.5156,135.0469 1160.1094,135.0469 Q1161.0469,135.0469 1161.7031,134.7969 Q1162.0938,134.6406 1162.5156,134.2031 Q1162.7813,133.9375 1162.9297,133.8594 Q1163.0781,133.7813 1163.2813,133.7813 Q1163.6094,133.7813 1163.8672,134.0391 Q1164.125,134.2969 1164.125,134.6406 Q1164.125,134.9844 1163.7813,135.3906 Q1163.2813,135.9688 1162.4844,136.2969 Q1161.4063,136.75 1160.1094,136.75 Q1158.5938,136.75 1157.3906,136.125 Q1156.4063,135.625 1155.7188,134.5547 Q1155.0313,133.4844 1155.0313,132.2031 L1155.0313,131.0469 Q1155.0313,129.7188 1155.6484,128.5703 Q1156.2656,127.4219 1157.3594,126.8047 Q1158.4531,126.1875 1159.6875,126.1875 Q1160.4219,126.1875 1161.0703,126.3516 Q1161.7188,126.5156 1162.2656,126.875 Z " fill="#000000"/><text fill="#000000" font-family="sans-serif" font-size="12" lengthAdjust="spacing" textLength="80" x="1173.5" y="135.9102">SceneDifficulty</text><line style="stroke:#A80036;stroke-width:1.5;" x1="1145.5" x2="1255.5" y1="147" y2="147"/><line style="stroke:#A80036;stroke-width:1.5;" x1="1145.5" x2="1255.5" y1="155" y2="155"/><!--MD5=[191f5a5662fedcdee87af3bba77ae1e5]
class SceneMainGame--><rect codeLine="25" fill="#FEFECE" filter="url(#f1j7z5nt4jjv42)" height="48" id="SceneMainGame" style="stroke:#A80036;stroke-width:1.5;" width="127" x="1292" y="115"/><ellipse cx="1307" cy="131" fill="#ADD1B2" rx="11" ry="11" style="stroke:#A80036;stroke-width:1.0;"/><path d="M1309.7656,126.875 Q1309.9219,126.6563 1310.1094,126.5469 Q1310.2969,126.4375 1310.5156,126.4375 Q1310.8906,126.4375 1311.125,126.6953 Q1311.3594,126.9531 1311.3594,127.5625 L1311.3594,129.0156 Q1311.3594,129.625 1311.125,129.8906 Q1310.8906,130.1563 1310.5156,130.1563 Q1310.1719,130.1563 1309.9688,129.9531 Q1309.7656,129.7656 1309.6563,129.25 Q1309.6094,128.8906 1309.4219,128.7031 Q1309.0938,128.3281 1308.4844,128.1094 Q1307.875,127.8906 1307.25,127.8906 Q1306.4844,127.8906 1305.8516,128.2188 Q1305.2188,128.5469 1304.7266,129.2969 Q1304.2344,130.0469 1304.2344,131.0781 L1304.2344,132.1719 Q1304.2344,133.4063 1305.125,134.2266 Q1306.0156,135.0469 1307.6094,135.0469 Q1308.5469,135.0469 1309.2031,134.7969 Q1309.5938,134.6406 1310.0156,134.2031 Q1310.2813,133.9375 1310.4297,133.8594 Q1310.5781,133.7813 1310.7813,133.7813 Q1311.1094,133.7813 1311.3672,134.0391 Q1311.625,134.2969 1311.625,134.6406 Q1311.625,134.9844 1311.2813,135.3906 Q1310.7813,135.9688 1309.9844,136.2969 Q1308.9063,136.75 1307.6094,136.75 Q1306.0938,136.75 1304.8906,136.125 Q1303.9063,135.625 1303.2188,134.5547 Q1302.5313,133.4844 1302.5313,132.2031 L1302.5313,131.0469 Q1302.5313,129.7188 1303.1484,128.5703 Q1303.7656,127.4219 1304.8594,126.8047 Q1305.9531,126.1875 1307.1875,126.1875 Q1307.9219,126.1875 1308.5703,126.3516 Q1309.2188,126.5156 1309.7656,126.875 Z " fill="#000000"/><text fill="#000000" font-family="sans-serif" font-size="12" lengthAdjust="spacing" textLength="95" x="1321" y="135.9102">SceneMainGame</text><line style="stroke:#A80036;stroke-width:1.5;" x1="1293" x2="1418" y1="147" y2="147"/><line style="stroke:#A80036;stroke-width:1.5;" x1="1293" x2="1418" y1="155" y2="155"/><!--MD5=[10fad2eef0002dd70ab0ee7e095a83d7]
class SceneOptionsMenu--><rect codeLine="26" fill="#FEFECE" filter="url(#f1j7z5nt4jjv42)" height="48" id="SceneOptionsMenu" style="stroke:#A80036;stroke-width:1.5;" width="140" x="1454.5" y="115"/><ellipse cx="1469.5" cy="131" fill="#ADD1B2" rx="11" ry="11" style="stroke:#A80036;stroke-width:1.0;"/><path d="M1472.2656,126.875 Q1472.4219,126.6563 1472.6094,126.5469 Q1472.7969,126.4375 1473.0156,126.4375 Q1473.3906,126.4375 1473.625,126.6953 Q1473.8594,126.9531 1473.8594,127.5625 L1473.8594,129.0156 Q1473.8594,129.625 1473.625,129.8906 Q1473.3906,130.1563 1473.0156,130.1563 Q1472.6719,130.1563 1472.4688,129.9531 Q1472.2656,129.7656 1472.1563,129.25 Q1472.1094,128.8906 1471.9219,128.7031 Q1471.5938,128.3281 1470.9844,128.1094 Q1470.375,127.8906 1469.75,127.8906 Q1468.9844,127.8906 1468.3516,128.2188 Q1467.7188,128.5469 1467.2266,129.2969 Q1466.7344,130.0469 1466.7344,131.0781 L1466.7344,132.1719 Q1466.7344,133.4063 1467.625,134.2266 Q1468.5156,135.0469 1470.1094,135.0469 Q1471.0469,135.0469 1471.7031,134.7969 Q1472.0938,134.6406 1472.5156,134.2031 Q1472.7813,133.9375 1472.9297,133.8594 Q1473.0781,133.7813 1473.2813,133.7813 Q1473.6094,133.7813 1473.8672,134.0391 Q1474.125,134.2969 1474.125,134.6406 Q1474.125,134.9844 1473.7813,135.3906 Q1473.2813,135.9688 1472.4844,136.2969 Q1471.4063,136.75 1470.1094,136.75 Q1468.5938,136.75 1467.3906,136.125 Q1466.4063,135.625 1465.7188,134.5547 Q1465.0313,133.4844 1465.0313,132.2031 L1465.0313,131.0469 Q1465.0313,129.7188 1465.6484,128.5703 Q1466.2656,127.4219 1467.3594,126.8047 Q1468.4531,126.1875 1469.6875,126.1875 Q1470.4219,126.1875 1471.0703,126.3516 Q1471.7188,126.5156 1472.2656,126.875 Z " fill="#000000"/><text fill="#000000" font-family="sans-serif" font-size="12" lengthAdjust="spacing" textLength="108" x="1483.5" y="135.9102">SceneOptionsMenu</text><line style="stroke:#A80036;stroke-width:1.5;" x1="1455.5" x2="1593.5" y1="147" y2="147"/><line style="stroke:#A80036;stroke-width:1.5;" x1="1455.5" x2="1593.5" y1="155" y2="155"/><!--MD5=[705050e7dc8a0f9ad873dfab94d81211]
class SceneStartScreen--><rect codeLine="27" fill="#FEFECE" filter="url(#f1j7z5nt4jjv42)" height="48" id="SceneStartScreen" style="stroke:#A80036;stroke-width:1.5;" width="131" x="1630" y="115"/><ellipse cx="1645" cy="131" fill="#ADD1B2" rx="11" ry="11" style="stroke:#A80036;stroke-width:1.0;"/><path d="M1647.7656,126.875 Q1647.9219,126.6563 1648.1094,126.5469 Q1648.2969,126.4375 1648.5156,126.4375 Q1648.8906,126.4375 1649.125,126.6953 Q1649.3594,126.9531 1649.3594,127.5625 L1649.3594,129.0156 Q1649.3594,129.625 1649.125,129.8906 Q1648.8906,130.1563 1648.5156,130.1563 Q1648.1719,130.1563 1647.9688,129.9531 Q1647.7656,129.7656 1647.6563,129.25 Q1647.6094,128.8906 1647.4219,128.7031 Q1647.0938,128.3281 1646.4844,128.1094 Q1645.875,127.8906 1645.25,127.8906 Q1644.4844,127.8906 1643.8516,128.2188 Q1643.2188,128.5469 1642.7266,129.2969 Q1642.2344,130.0469 1642.2344,131.0781 L1642.2344,132.1719 Q1642.2344,133.4063 1643.125,134.2266 Q1644.0156,135.0469 1645.6094,135.0469 Q1646.5469,135.0469 1647.2031,134.7969 Q1647.5938,134.6406 1648.0156,134.2031 Q1648.2813,133.9375 1648.4297,133.8594 Q1648.5781,133.7813 1648.7813,133.7813 Q1649.1094,133.7813 1649.3672,134.0391 Q1649.625,134.2969 1649.625,134.6406 Q1649.625,134.9844 1649.2813,135.3906 Q1648.7813,135.9688 1647.9844,136.2969 Q1646.9063,136.75 1645.6094,136.75 Q1644.0938,136.75 1642.8906,136.125 Q1641.9063,135.625 1641.2188,134.5547 Q1640.5313,133.4844 1640.5313,132.2031 L1640.5313,131.0469 Q1640.5313,129.7188 1641.1484,128.5703 Q1641.7656,127.4219 1642.8594,126.8047 Q1643.9531,126.1875 1645.1875,126.1875 Q1645.9219,126.1875 1646.5703,126.3516 Q1647.2188,126.5156 1647.7656,126.875 Z " fill="#000000"/><text fill="#000000" font-family="sans-serif" font-size="12" lengthAdjust="spacing" textLength="99" x="1659" y="135.9102">SceneStartScreen</text><line style="stroke:#A80036;stroke-width:1.5;" x1="1631" x2="1760" y1="147" y2="147"/><line style="stroke:#A80036;stroke-width:1.5;" x1="1631" x2="1760" y1="155" y2="155"/><!--MD5=[eb8347e17286b04f108bb989edee2135]
class SceneTutorial--><rect codeLine="28" fill="#FEFECE" filter="url(#f1j7z5nt4jjv42)" height="48" id="SceneTutorial" style="stroke:#A80036;stroke-width:1.5;" width="108" x="1796.5" y="115"/><ellipse cx="1811.5" cy="131" fill="#ADD1B2" rx="11" ry="11" style="stroke:#A80036;stroke-width:1.0;"/><path d="M1814.2656,126.875 Q1814.4219,126.6563 1814.6094,126.5469 Q1814.7969,126.4375 1815.0156,126.4375 Q1815.3906,126.4375 1815.625,126.6953 Q1815.8594,126.9531 1815.8594,127.5625 L1815.8594,129.0156 Q1815.8594,129.625 1815.625,129.8906 Q1815.3906,130.1563 1815.0156,130.1563 Q1814.6719,130.1563 1814.4688,129.9531 Q1814.2656,129.7656 1814.1563,129.25 Q1814.1094,128.8906 1813.9219,128.7031 Q1813.5938,128.3281 1812.9844,128.1094 Q1812.375,127.8906 1811.75,127.8906 Q1810.9844,127.8906 1810.3516,128.2188 Q1809.7188,128.5469 1809.2266,129.2969 Q1808.7344,130.0469 1808.7344,131.0781 L1808.7344,132.1719 Q1808.7344,133.4063 1809.625,134.2266 Q1810.5156,135.0469 1812.1094,135.0469 Q1813.0469,135.0469 1813.7031,134.7969 Q1814.0938,134.6406 1814.5156,134.2031 Q1814.7813,133.9375 1814.9297,133.8594 Q1815.0781,133.7813 1815.2813,133.7813 Q1815.6094,133.7813 1815.8672,134.0391 Q1816.125,134.2969 1816.125,134.6406 Q1816.125,134.9844 1815.7813,135.3906 Q1815.2813,135.9688 1814.4844,136.2969 Q1813.4063,136.75 1812.1094,136.75 Q1810.5938,136.75 1809.3906,136.125 Q1808.4063,135.625 1807.7188,134.5547 Q1807.0313,133.4844 1807.0313,132.2031 L1807.0313,131.0469 Q1807.0313,129.7188 1807.6484,128.5703 Q1808.2656,127.4219 1809.3594,126.8047 Q1810.4531,126.1875 1811.6875,126.1875 Q1812.4219,126.1875 1813.0703,126.3516 Q1813.7188,126.5156 1814.2656,126.875 Z " fill="#000000"/><text fill="#000000" font-family="sans-serif" font-size="12" lengthAdjust="spacing" textLength="76" x="1825.5" y="135.9102">SceneTutorial</text><line style="stroke:#A80036;stroke-width:1.5;" x1="1797.5" x2="1903.5" y1="147" y2="147"/><line style="stroke:#A80036;stroke-width:1.5;" x1="1797.5" x2="1903.5" y1="155" y2="155"/><!--MD5=[292687bb7eb5fe0d5f0b123bf926d4fb]
class SceneAwardScreen--><rect codeLine="29" fill="#FEFECE" filter="url(#f1j7z5nt4jjv42)" height="48" id="SceneAwardScreen" style="stroke:#A80036;stroke-width:1.5;" width="140" x="1939.5" y="115"/><ellipse cx="1954.5" cy="131" fill="#ADD1B2" rx="11" ry="11" style="stroke:#A80036;stroke-width:1.0;"/><path d="M1957.2656,126.875 Q1957.4219,126.6563 1957.6094,126.5469 Q1957.7969,126.4375 1958.0156,126.4375 Q1958.3906,126.4375 1958.625,126.6953 Q1958.8594,126.9531 1958.8594,127.5625 L1958.8594,129.0156 Q1958.8594,129.625 1958.625,129.8906 Q1958.3906,130.1563 1958.0156,130.1563 Q1957.6719,130.1563 1957.4688,129.9531 Q1957.2656,129.7656 1957.1563,129.25 Q1957.1094,128.8906 1956.9219,128.7031 Q1956.5938,128.3281 1955.9844,128.1094 Q1955.375,127.8906 1954.75,127.8906 Q1953.9844,127.8906 1953.3516,128.2188 Q1952.7188,128.5469 1952.2266,129.2969 Q1951.7344,130.0469 1951.7344,131.0781 L1951.7344,132.1719 Q1951.7344,133.4063 1952.625,134.2266 Q1953.5156,135.0469 1955.1094,135.0469 Q1956.0469,135.0469 1956.7031,134.7969 Q1957.0938,134.6406 1957.5156,134.2031 Q1957.7813,133.9375 1957.9297,133.8594 Q1958.0781,133.7813 1958.2813,133.7813 Q1958.6094,133.7813 1958.8672,134.0391 Q1959.125,134.2969 1959.125,134.6406 Q1959.125,134.9844 1958.7813,135.3906 Q1958.2813,135.9688 1957.4844,136.2969 Q1956.4063,136.75 1955.1094,136.75 Q1953.5938,136.75 1952.3906,136.125 Q1951.4063,135.625 1950.7188,134.5547 Q1950.0313,133.4844 1950.0313,132.2031 L1950.0313,131.0469 Q1950.0313,129.7188 1950.6484,128.5703 Q1951.2656,127.4219 1952.3594,126.8047 Q1953.4531,126.1875 1954.6875,126.1875 Q1955.4219,126.1875 1956.0703,126.3516 Q1956.7188,126.5156 1957.2656,126.875 Z " fill="#000000"/><text fill="#000000" font-family="sans-serif" font-size="12" lengthAdjust="spacing" textLength="108" x="1968.5" y="135.9102">SceneAwardScreen</text><line style="stroke:#A80036;stroke-width:1.5;" x1="1940.5" x2="2078.5" y1="147" y2="147"/><line style="stroke:#A80036;stroke-width:1.5;" x1="1940.5" x2="2078.5" y1="155" y2="155"/><!--MD5=[5471448ac764769a8a042e87d31159a5]
class SceneGameOver--><rect codeLine="30" fill="#FEFECE" filter="url(#f1j7z5nt4jjv42)" height="48" id="SceneGameOver" style="stroke:#A80036;stroke-width:1.5;" width="126" x="2114.5" y="115"/><ellipse cx="2129.5" cy="131" fill="#ADD1B2" rx="11" ry="11" style="stroke:#A80036;stroke-width:1.0;"/><path d="M2132.2656,126.875 Q2132.4219,126.6563 2132.6094,126.5469 Q2132.7969,126.4375 2133.0156,126.4375 Q2133.3906,126.4375 2133.625,126.6953 Q2133.8594,126.9531 2133.8594,127.5625 L2133.8594,129.0156 Q2133.8594,129.625 2133.625,129.8906 Q2133.3906,130.1563 2133.0156,130.1563 Q2132.6719,130.1563 2132.4688,129.9531 Q2132.2656,129.7656 2132.1563,129.25 Q2132.1094,128.8906 2131.9219,128.7031 Q2131.5938,128.3281 2130.9844,128.1094 Q2130.375,127.8906 2129.75,127.8906 Q2128.9844,127.8906 2128.3516,128.2188 Q2127.7188,128.5469 2127.2266,129.2969 Q2126.7344,130.0469 2126.7344,131.0781 L2126.7344,132.1719 Q2126.7344,133.4063 2127.625,134.2266 Q2128.5156,135.0469 2130.1094,135.0469 Q2131.0469,135.0469 2131.7031,134.7969 Q2132.0938,134.6406 2132.5156,134.2031 Q2132.7813,133.9375 2132.9297,133.8594 Q2133.0781,133.7813 2133.2813,133.7813 Q2133.6094,133.7813 2133.8672,134.0391 Q2134.125,134.2969 2134.125,134.6406 Q2134.125,134.9844 2133.7813,135.3906 Q2133.2813,135.9688 2132.4844,136.2969 Q2131.4063,136.75 2130.1094,136.75 Q2128.5938,136.75 2127.3906,136.125 Q2126.4063,135.625 2125.7188,134.5547 Q2125.0313,133.4844 2125.0313,132.2031 L2125.0313,131.0469 Q2125.0313,129.7188 2125.6484,128.5703 Q2126.2656,127.4219 2127.3594,126.8047 Q2128.4531,126.1875 2129.6875,126.1875 Q2130.4219,126.1875 2131.0703,126.3516 Q2131.7188,126.5156 2132.2656,126.875 Z " fill="#000000"/><text fill="#000000" font-family="sans-serif" font-size="12" lengthAdjust="spacing" textLength="94" x="2143.5" y="135.9102">SceneGameOver</text><line style="stroke:#A80036;stroke-width:1.5;" x1="2115.5" x2="2239.5" y1="147" y2="147"/><line style="stroke:#A80036;stroke-width:1.5;" x1="2115.5" x2="2239.5" y1="155" y2="155"/><!--MD5=[4663939172911429a54d44baff5bb5c4]
class SceneLoadScreen--><rect codeLine="31" fill="#FEFECE" filter="url(#f1j7z5nt4jjv42)" height="48" id="SceneLoadScreen" style="stroke:#A80036;stroke-width:1.5;" width="134" x="2275.5" y="115"/><ellipse cx="2290.5" cy="131" fill="#ADD1B2" rx="11" ry="11" style="stroke:#A80036;stroke-width:1.0;"/><path d="M2293.2656,126.875 Q2293.4219,126.6563 2293.6094,126.5469 Q2293.7969,126.4375 2294.0156,126.4375 Q2294.3906,126.4375 2294.625,126.6953 Q2294.8594,126.9531 2294.8594,127.5625 L2294.8594,129.0156 Q2294.8594,129.625 2294.625,129.8906 Q2294.3906,130.1563 2294.0156,130.1563 Q2293.6719,130.1563 2293.4688,129.9531 Q2293.2656,129.7656 2293.1563,129.25 Q2293.1094,128.8906 2292.9219,128.7031 Q2292.5938,128.3281 2291.9844,128.1094 Q2291.375,127.8906 2290.75,127.8906 Q2289.9844,127.8906 2289.3516,128.2188 Q2288.7188,128.5469 2288.2266,129.2969 Q2287.7344,130.0469 2287.7344,131.0781 L2287.7344,132.1719 Q2287.7344,133.4063 2288.625,134.2266 Q2289.5156,135.0469 2291.1094,135.0469 Q2292.0469,135.0469 2292.7031,134.7969 Q2293.0938,134.6406 2293.5156,134.2031 Q2293.7813,133.9375 2293.9297,133.8594 Q2294.0781,133.7813 2294.2813,133.7813 Q2294.6094,133.7813 2294.8672,134.0391 Q2295.125,134.2969 2295.125,134.6406 Q2295.125,134.9844 2294.7813,135.3906 Q2294.2813,135.9688 2293.4844,136.2969 Q2292.4063,136.75 2291.1094,136.75 Q2289.5938,136.75 2288.3906,136.125 Q2287.4063,135.625 2286.7188,134.5547 Q2286.0313,133.4844 2286.0313,132.2031 L2286.0313,131.0469 Q2286.0313,129.7188 2286.6484,128.5703 Q2287.2656,127.4219 2288.3594,126.8047 Q2289.4531,126.1875 2290.6875,126.1875 Q2291.4219,126.1875 2292.0703,126.3516 Q2292.7188,126.5156 2293.2656,126.875 Z " fill="#000000"/><text fill="#000000" font-family="sans-serif" font-size="12" lengthAdjust="spacing" textLength="102" x="2304.5" y="135.9102">SceneLoadScreen</text><line style="stroke:#A80036;stroke-width:1.5;" x1="2276.5" x2="2408.5" y1="147" y2="147"/><line style="stroke:#A80036;stroke-width:1.5;" x1="2276.5" x2="2408.5" y1="155" y2="155"/><!--MD5=[5750843ec52a4b67c1d9e2b786e74bc0]
class SceneSaveScreen--><rect codeLine="32" fill="#FEFECE" filter="url(#f1j7z5nt4jjv42)" height="48" id="SceneSaveScreen" style="stroke:#A80036;stroke-width:1.5;" width="133" x="2445" y="115"/><ellipse cx="2460" cy="131" fill="#ADD1B2" rx="11" ry="11" style="stroke:#A80036;stroke-width:1.0;"/><path d="M2462.7656,126.875 Q2462.9219,126.6563 2463.1094,126.5469 Q2463.2969,126.4375 2463.5156,126.4375 Q2463.8906,126.4375 2464.125,126.6953 Q2464.3594,126.9531 2464.3594,127.5625 L2464.3594,129.0156 Q2464.3594,129.625 2464.125,129.8906 Q2463.8906,130.1563 2463.5156,130.1563 Q2463.1719,130.1563 2462.9688,129.9531 Q2462.7656,129.7656 2462.6563,129.25 Q2462.6094,128.8906 2462.4219,128.7031 Q2462.0938,128.3281 2461.4844,128.1094 Q2460.875,127.8906 2460.25,127.8906 Q2459.4844,127.8906 2458.8516,128.2188 Q2458.2188,128.5469 2457.7266,129.2969 Q2457.2344,130.0469 2457.2344,131.0781 L2457.2344,132.1719 Q2457.2344,133.4063 2458.125,134.2266 Q2459.0156,135.0469 2460.6094,135.0469 Q2461.5469,135.0469 2462.2031,134.7969 Q2462.5938,134.6406 2463.0156,134.2031 Q2463.2813,133.9375 2463.4297,133.8594 Q2463.5781,133.7813 2463.7813,133.7813 Q2464.1094,133.7813 2464.3672,134.0391 Q2464.625,134.2969 2464.625,134.6406 Q2464.625,134.9844 2464.2813,135.3906 Q2463.7813,135.9688 2462.9844,136.2969 Q2461.9063,136.75 2460.6094,136.75 Q2459.0938,136.75 2457.8906,136.125 Q2456.9063,135.625 2456.2188,134.5547 Q2455.5313,133.4844 2455.5313,132.2031 L2455.5313,131.0469 Q2455.5313,129.7188 2456.1484,128.5703 Q2456.7656,127.4219 2457.8594,126.8047 Q2458.9531,126.1875 2460.1875,126.1875 Q2460.9219,126.1875 2461.5703,126.3516 Q2462.2188,126.5156 2462.7656,126.875 Z " fill="#000000"/><text fill="#000000" font-family="sans-serif" font-size="12" lengthAdjust="spacing" textLength="101" x="2474" y="135.9102">SceneSaveScreen</text><line style="stroke:#A80036;stroke-width:1.5;" x1="2446" x2="2577" y1="147" y2="147"/><line style="stroke:#A80036;stroke-width:1.5;" x1="2446" x2="2577" y1="155" y2="155"/><!--MD5=[cc3de0a176daa3c4ec875deafdf5ddd1]
class Serializable--><rect codeLine="33" fill="#FEFECE" filter="url(#f1j7z5nt4jjv42)" height="48" id="Serializable" style="stroke:#A80036;stroke-width:1.5;" width="99" x="710" y="7"/><ellipse cx="725" cy="23" fill="#B4A7E5" rx="11" ry="11" style="stroke:#A80036;stroke-width:1.0;"/><path d="M725.9531,19.6406 L725.9531,26.2969 L727.6719,26.2969 Q728.2813,26.2969 728.5469,26.5313 Q728.8125,26.7656 728.8125,27.1563 Q728.8125,27.5313 728.5469,27.7656 Q728.2813,28 727.6719,28 L722.5313,28 Q721.9219,28 721.6563,27.7656 Q721.3906,27.5313 721.3906,27.1406 Q721.3906,26.7656 721.6563,26.5313 Q721.9219,26.2969 722.5313,26.2969 L724.25,26.2969 L724.25,19.6406 L722.5313,19.6406 Q721.9219,19.6406 721.6563,19.4063 Q721.3906,19.1719 721.3906,18.7813 Q721.3906,18.4063 721.6563,18.1719 Q721.9219,17.9375 722.5313,17.9375 L727.6719,17.9375 Q728.2813,17.9375 728.5469,18.1719 Q728.8125,18.4063 728.8125,18.7813 Q728.8125,19.1719 728.5469,19.4063 Q728.2813,19.6406 727.6719,19.6406 L725.9531,19.6406 Z " fill="#000000"/><text fill="#000000" font-family="sans-serif" font-size="12" font-style="italic" lengthAdjust="spacing" textLength="67" x="739" y="27.9102">Serializable</text><line style="stroke:#A80036;stroke-width:1.5;" x1="711" x2="808" y1="39" y2="39"/><line style="stroke:#A80036;stroke-width:1.5;" x1="711" x2="808" y1="47" y2="47"/><!--MD5=[ddcb0def8caaeba08e48822c426b4854]
class SerializableGameObject--><rect codeLine="35" fill="#FEFECE" filter="url(#f1j7z5nt4jjv42)" height="48" id="SerializableGameObject" style="stroke:#A80036;stroke-width:1.5;" width="165" x="760" y="115"/><ellipse cx="775" cy="131" fill="#ADD1B2" rx="11" ry="11" style="stroke:#A80036;stroke-width:1.0;"/><path d="M777.7656,126.875 Q777.9219,126.6563 778.1094,126.5469 Q778.2969,126.4375 778.5156,126.4375 Q778.8906,126.4375 779.125,126.6953 Q779.3594,126.9531 779.3594,127.5625 L779.3594,129.0156 Q779.3594,129.625 779.125,129.8906 Q778.8906,130.1563 778.5156,130.1563 Q778.1719,130.1563 777.9688,129.9531 Q777.7656,129.7656 777.6563,129.25 Q777.6094,128.8906 777.4219,128.7031 Q777.0938,128.3281 776.4844,128.1094 Q775.875,127.8906 775.25,127.8906 Q774.4844,127.8906 773.8516,128.2188 Q773.2188,128.5469 772.7266,129.2969 Q772.2344,130.0469 772.2344,131.0781 L772.2344,132.1719 Q772.2344,133.4063 773.125,134.2266 Q774.0156,135.0469 775.6094,135.0469 Q776.5469,135.0469 777.2031,134.7969 Q777.5938,134.6406 778.0156,134.2031 Q778.2813,133.9375 778.4297,133.8594 Q778.5781,133.7813 778.7813,133.7813 Q779.1094,133.7813 779.3672,134.0391 Q779.625,134.2969 779.625,134.6406 Q779.625,134.9844 779.2813,135.3906 Q778.7813,135.9688 777.9844,136.2969 Q776.9063,136.75 775.6094,136.75 Q774.0938,136.75 772.8906,136.125 Q771.9063,135.625 771.2188,134.5547 Q770.5313,133.4844 770.5313,132.2031 L770.5313,131.0469 Q770.5313,129.7188 771.1484,128.5703 Q771.7656,127.4219 772.8594,126.8047 Q773.9531,126.1875 775.1875,126.1875 Q775.9219,126.1875 776.5703,126.3516 Q777.2188,126.5156 777.7656,126.875 Z " fill="#000000"/><text fill="#000000" font-family="sans-serif" font-size="12" lengthAdjust="spacing" textLength="133" x="789" y="135.9102">SerializableGameObject</text><line style="stroke:#A80036;stroke-width:1.5;" x1="761" x2="924" y1="147" y2="147"/><line style="stroke:#A80036;stroke-width:1.5;" x1="761" x2="924" y1="155" y2="155"/><!--MD5=[cd6ca9da01b2947ed5371bc0660d8ff3]
class ObjectType--><rect codeLine="36" fill="#FEFECE" filter="url(#f1j7z5nt4jjv42)" height="48" id="ObjectType" style="stroke:#A80036;stroke-width:1.5;" width="93" x="194" y="115"/><ellipse cx="209" cy="131" fill="#EB937F" rx="11" ry="11" style="stroke:#A80036;stroke-width:1.0;"/><path d="M207.8594,131.7969 L207.8594,134.2969 L212.1875,134.2969 L212.1875,133.375 Q212.1875,132.7656 212.4297,132.5 Q212.6719,132.2344 213.0469,132.2344 Q213.4219,132.2344 213.6563,132.5 Q213.8906,132.7656 213.8906,133.375 L213.8906,136 L205.8906,136 Q205.2656,136 205.0078,135.7656 Q204.75,135.5313 204.75,135.1406 Q204.75,134.7656 205.0156,134.5313 Q205.2813,134.2969 205.8906,134.2969 L206.1563,134.2969 L206.1563,127.6406 L205.8906,127.6406 Q205.2656,127.6406 205.0078,127.4063 Q204.75,127.1719 204.75,126.7813 Q204.75,126.4063 205.0078,126.1719 Q205.2656,125.9375 205.8906,125.9375 L213.5156,125.9375 L213.5156,128.5313 Q213.5156,129.1406 213.2891,129.3984 Q213.0625,129.6563 212.6719,129.6563 Q212.2969,129.6563 212.0625,129.3984 Q211.8281,129.1406 211.8281,128.5313 L211.8281,127.6406 L207.8594,127.6406 L207.8594,130.0938 L209.3438,130.0938 Q209.3438,129.4375 209.4688,129.25 Q209.7344,128.8438 210.2031,128.8438 Q210.5781,128.8438 210.8125,129.1016 Q211.0469,129.3594 211.0469,129.9688 L211.0469,131.9375 Q211.0469,132.4844 210.9219,132.6719 Q210.6563,133.0625 210.2031,133.0625 Q209.7344,133.0625 209.4688,132.6563 Q209.3438,132.4688 209.3438,131.7969 L207.8594,131.7969 Z " fill="#000000"/><text fill="#000000" font-family="sans-serif" font-size="12" lengthAdjust="spacing" textLength="61" x="223" y="135.9102">ObjectType</text><line style="stroke:#A80036;stroke-width:1.5;" x1="195" x2="286" y1="147" y2="147"/><line style="stroke:#A80036;stroke-width:1.5;" x1="195" x2="286" y1="155" y2="155"/><!--MD5=[67eb2a2e46f9471956d08809acd99ce2]
reverse link GameObject to MoveableObject--><path codeLine="39" d="M534.5,75.02 C534.5,88.58 534.5,103.04 534.5,114.68 " fill="none" id="GameObject-backto-MoveableObject" style="stroke:#A80036;stroke-width:1.0;"/><polygon fill="none" points="527.5,75,534.5,55,541.5,75,527.5,75" style="stroke:#A80036;stroke-width:1.0;"/><!--MD5=[4dcd3dfe2fa9670111ad6516839d5bfa]
reverse link MoveableObject to Obstacle--><path codeLine="41" d="M502,178.7 C489.62,193.45 475.9,209.79 465.08,222.68 " fill="none" id="MoveableObject-backto-Obstacle" style="stroke:#A80036;stroke-width:1.0;"/><polygon fill="none" points="496.97,173.82,515.19,163,507.69,182.82,496.97,173.82" style="stroke:#A80036;stroke-width:1.0;"/><!--MD5=[5261a6ab5a16501f424602d3127a7c44]
reverse link CollisionObject to Obstacle--><path codeLine="42" d="M405.11,180.13 C413.92,194.5 423.55,210.21 431.2,222.68 " fill="none" id="CollisionObject-backto-Obstacle" style="stroke:#A80036;stroke-width:1.0;"/><polygon fill="none" points="399.09,183.71,394.6,163,411.03,176.39,399.09,183.71" style="stroke:#A80036;stroke-width:1.0;"/><!--MD5=[2447f226540ec9c560347afc2c55664a]
reverse link Obstacle to ObstacleBranch--><path codeLine="43" d="M396.33,282.75 C373.99,298.53 348.16,316.78 328.24,330.86 " fill="none" id="Obstacle-backto-ObstacleBranch" style="stroke:#A80036;stroke-width:1.0;"/><polygon fill="none" points="392.58,276.83,412.95,271,400.66,288.26,392.58,276.83" style="stroke:#A80036;stroke-width:1.0;"/><!--MD5=[74ea1e852bbb142d1f2055725197de01]
reverse link Obstacle to ObstacleDuck--><path codeLine="44" d="M445.5,291.02 C445.5,304.58 445.5,319.04 445.5,330.68 " fill="none" id="Obstacle-backto-ObstacleDuck" style="stroke:#A80036;stroke-width:1.0;"/><polygon fill="none" points="438.5,291,445.5,271,452.5,291,438.5,291" style="stroke:#A80036;stroke-width:1.0;"/><!--MD5=[d39e13981833993a391e28dcff3f4c08]
reverse link ObstacleBranch to ObstacleFloatingBranch--><path codeLine="45" d="M295.5,399.02 C295.5,412.58 295.5,427.04 295.5,438.68 " fill="none" id="ObstacleBranch-backto-ObstacleFloatingBranch" style="stroke:#A80036;stroke-width:1.0;"/><polygon fill="none" points="288.5,399,295.5,379,302.5,399,288.5,399" style="stroke:#A80036;stroke-width:1.0;"/><!--MD5=[8e2ecfac9517fa4870172ee422e4ef6e]
reverse link Obstacle to ObstacleLaneWall--><path codeLine="46" d="M495.95,282.28 C519.34,298.17 546.52,316.65 567.45,330.86 " fill="none" id="Obstacle-backto-ObstacleLaneWall" style="stroke:#A80036;stroke-width:1.0;"/><polygon fill="none" points="491.96,288.03,479.35,271,499.83,276.45,491.96,288.03" style="stroke:#A80036;stroke-width:1.0;"/><!--MD5=[298bff1c342649cb830efb293b769409]
reverse link MoveableObject to PowerUp--><path codeLine="48" d="M615.24,163.73 C717.48,192.84 816.74,220 871.19,234.81 " fill="none" id="MoveableObject-backto-PowerUp" style="stroke:#A80036;stroke-width:1.0;"/><polygon fill="none" points="613.1,170.4,595.79,158.18,616.94,156.94,613.1,170.4" style="stroke:#A80036;stroke-width:1.0;"/><!--MD5=[d05f3ba7c416abf4098b182fdab41a58]
reverse link CollisionObject to PowerUp--><path codeLine="49" d="M458.64,163.4 C621.29,202.08 793.77,228.89 871.19,240.17 " fill="none" id="CollisionObject-backto-PowerUp" style="stroke:#A80036;stroke-width:1.0;"/><polygon fill="none" points="456.66,170.13,438.86,158.63,459.95,156.52,456.66,170.13" style="stroke:#A80036;stroke-width:1.0;"/><!--MD5=[16c5051b7bcfc3a101dc4c644fe178ab]
reverse link PowerUp to PowerUpEnergy--><path codeLine="50" d="M961.66,282.51 C984.23,298.35 1010.39,316.71 1030.54,330.86 " fill="none" id="PowerUp-backto-PowerUpEnergy" style="stroke:#A80036;stroke-width:1.0;"/><polygon fill="none" points="957.61,288.22,945.26,271,965.66,276.76,957.61,288.22" style="stroke:#A80036;stroke-width:1.0;"/><!--MD5=[ae392a56f60e0b4744b70cc2bfb057c0]
reverse link PowerUp to PowerUpSpeed--><path codeLine="51" d="M863.33,282.75 C840.99,298.53 815.16,316.78 795.24,330.86 " fill="none" id="PowerUp-backto-PowerUpSpeed" style="stroke:#A80036;stroke-width:1.0;"/><polygon fill="none" points="859.58,276.83,879.95,271,867.66,288.26,859.58,276.83" style="stroke:#A80036;stroke-width:1.0;"/><!--MD5=[054e8f4ab364f5efe309622673eae5b2]
reverse link PowerUp to PowerUpRotation--><path codeLine="52" d="M973.58,260.06 C1049.39,275.29 1182.48,302.93 1295.5,331 C1301.1,332.39 1306.89,333.89 1312.69,335.43 " fill="none" id="PowerUp-backto-PowerUpRotation" style="stroke:#A80036;stroke-width:1.0;"/><polygon fill="none" points="972.02,266.88,953.78,256.1,974.76,253.16,972.02,266.88" style="stroke:#A80036;stroke-width:1.0;"/><!--MD5=[bb487c4031ab0cb225bb0e14c07f1b21]
reverse link PowerUp to PowerUpDrag--><path codeLine="53" d="M912.5,291.02 C912.5,304.58 912.5,319.04 912.5,330.68 " fill="none" id="PowerUp-backto-PowerUpDrag" style="stroke:#A80036;stroke-width:1.0;"/><polygon fill="none" points="905.5,291,912.5,271,919.5,291,905.5,291" style="stroke:#A80036;stroke-width:1.0;"/><!--MD5=[d21346eac00faed809b96df6e155989b]
reverse link PowerUp to PowerUpHealth--><path codeLine="54" d="M972.75,268.87 C1026.59,287.52 1105.04,314.7 1158.73,333.3 " fill="none" id="PowerUp-backto-PowerUpHealth" style="stroke:#A80036;stroke-width:1.0;"/><polygon fill="none" points="970.38,275.46,953.77,262.3,974.96,262.23,970.38,275.46" style="stroke:#A80036;stroke-width:1.0;"/><!--MD5=[556f525838ff4f21499678df80e5dac3]
reverse link MoveableObject to Boat--><path codeLine="56" d="M469.02,171.84 C427.68,191.94 376.35,216.9 345.03,232.13 " fill="none" id="MoveableObject-backto-Boat" style="stroke:#A80036;stroke-width:1.0;"/><polygon fill="none" points="466.15,165.45,487.2,163,472.27,178.04,466.15,165.45" style="stroke:#A80036;stroke-width:1.0;"/><!--MD5=[02282af48b966665939bd48eb72da4be]
reverse link CollisionObject to Boat--><path codeLine="57" d="M356.27,180.13 C347.59,194.5 338.11,210.21 330.58,222.68 " fill="none" id="CollisionObject-backto-Boat" style="stroke:#A80036;stroke-width:1.0;"/><polygon fill="none" points="350.28,176.5,366.61,163,362.27,183.74,350.28,176.5" style="stroke:#A80036;stroke-width:1.0;"/><!--MD5=[98cb05a5852845d19943ffcf66c8c39b]
reverse link Boat to PlayerBoat--><path codeLine="58" d="M270.86,277.86 C245.19,294.66 213.64,315.3 189.87,330.86 " fill="none" id="Boat-backto-PlayerBoat" style="stroke:#A80036;stroke-width:1.0;"/><polygon fill="none" points="267.34,271.8,287.91,266.71,275.01,283.51,267.34,271.8" style="stroke:#A80036;stroke-width:1.0;"/><!--MD5=[2f77c2c140af5a9927a9dd3039ffea70]
reverse link Boat to AIBoat--><path codeLine="59" d="M268.69,264.54 C222.88,280.64 151.98,306.24 91.5,331 C85.84,333.32 79.87,335.89 74.1,338.45 " fill="none" id="Boat-backto-AIBoat" style="stroke:#A80036;stroke-width:1.0;"/><polygon fill="none" points="266.65,257.84,287.84,257.85,271.27,271.05,266.65,257.84" style="stroke:#A80036;stroke-width:1.0;"/><!--MD5=[a0aa917fa3c85539bb76fa1aa9e5e473]
reverse link Scene to SceneMainGame--><path codeLine="61" d="M1718.81,44.66 C1652.36,60.47 1535.81,88.64 1436.5,115 C1430.85,116.5 1424.99,118.09 1419.11,119.71 " fill="none" id="Scene-backto-SceneMainGame" style="stroke:#A80036;stroke-width:1.0;"/><polygon fill="none" points="1717.46,37.78,1738.54,39.98,1720.7,51.41,1717.46,37.78" style="stroke:#A80036;stroke-width:1.0;"/><!--MD5=[f5866c8437053a6f5437e389243267e3]
reverse link Scene to SceneOptionsMenu--><path codeLine="62" d="M1720.4,54.27 C1678.81,72.05 1620.72,96.87 1578.61,114.87 " fill="none" id="Scene-backto-SceneOptionsMenu" style="stroke:#A80036;stroke-width:1.0;"/><polygon fill="none" points="1717.65,47.83,1738.8,46.41,1723.16,60.7,1717.65,47.83" style="stroke:#A80036;stroke-width:1.0;"/><!--MD5=[97fbcc543611354a47a07c5f8f6cae89]
reverse link Scene to SceneStartScreen--><path codeLine="63" d="M1743.69,71.66 C1733.16,86.15 1721.6,102.07 1712.44,114.68 " fill="none" id="Scene-backto-SceneStartScreen" style="stroke:#A80036;stroke-width:1.0;"/><polygon fill="none" points="1738.37,67.07,1755.79,55,1749.7,75.3,1738.37,67.07" style="stroke:#A80036;stroke-width:1.0;"/><!--MD5=[dc132ea77ed0156e517550f67054d034]
reverse link Scene to SceneTutorial--><path codeLine="64" d="M1801.33,71.18 C1812.09,85.8 1823.96,101.93 1833.34,114.68 " fill="none" id="Scene-backto-SceneTutorial" style="stroke:#A80036;stroke-width:1.0;"/><polygon fill="none" points="1795.64,75.26,1789.42,55,1806.92,66.96,1795.64,75.26" style="stroke:#A80036;stroke-width:1.0;"/><!--MD5=[9e072197b2792edc590de9d690ff7a6d]
reverse link Scene to SceneDifficulty--><path codeLine="65" d="M1718.92,38.49 C1627.16,50.16 1434.37,77.02 1274.5,115 C1268.74,116.37 1262.78,117.95 1256.84,119.62 " fill="none" id="Scene-backto-SceneDifficulty" style="stroke:#A80036;stroke-width:1.0;"/><polygon fill="none" points="1718.25,31.52,1738.97,35.98,1719.99,45.41,1718.25,31.52" style="stroke:#A80036;stroke-width:1.0;"/><!--MD5=[7e39c84f1af1012627564284022932a9]
reverse link Scene to SceneResultsScreen--><path codeLine="66" d="M1718.46,36.78 C1607.09,47.11 1344.22,73.94 1126.5,115 C1120.84,116.07 1115,117.27 1109.15,118.56 " fill="none" id="Scene-backto-SceneResultsScreen" style="stroke:#A80036;stroke-width:1.0;"/><polygon fill="none" points="1718.1,29.79,1738.66,34.94,1719.38,43.73,1718.1,29.79" style="stroke:#A80036;stroke-width:1.0;"/><!--MD5=[e394019d8e707edccadc7957d8c0d2a8]
reverse link Scene to SceneAwardScreen--><path codeLine="67" d="M1824.63,55.32 C1864.28,73.05 1918.56,97.32 1958.04,114.98 " fill="none" id="Scene-backto-SceneAwardScreen" style="stroke:#A80036;stroke-width:1.0;"/><polygon fill="none" points="1821.6,61.63,1806.2,47.07,1827.32,48.85,1821.6,61.63" style="stroke:#A80036;stroke-width:1.0;"/><!--MD5=[ee81c073ffd5b92ae3bdf6919cd75d13]
reverse link Scene to SceneGameOver--><path codeLine="68" d="M1825.86,45.11 C1890.35,61.07 2002.11,89.11 2097.5,115 C2102.94,116.48 2108.58,118.04 2114.23,119.62 " fill="none" id="Scene-backto-SceneGameOver" style="stroke:#A80036;stroke-width:1.0;"/><polygon fill="none" points="1824.01,51.86,1806.27,40.27,1827.37,38.27,1824.01,51.86" style="stroke:#A80036;stroke-width:1.0;"/><!--MD5=[f56170c7bb5fe1e4218f334a593bb3c2]
reverse link Scene to SceneLoadScreen--><path codeLine="69" d="M1825.94,39.37 C1915.78,52.16 2102.58,80.43 2258.5,115 C2263.96,116.21 2269.6,117.55 2275.25,118.96 " fill="none" id="Scene-backto-SceneLoadScreen" style="stroke:#A80036;stroke-width:1.0;"/><polygon fill="none" points="1824.84,46.29,1806.01,36.57,1826.79,32.42,1824.84,46.29" style="stroke:#A80036;stroke-width:1.0;"/><!--MD5=[d5b94e3923de6cba27f8c198231f879e]
reverse link Scene to SceneSaveScreen--><path codeLine="70" d="M1826.21,36.22 C1938.61,45.61 2206.48,70.97 2427.5,115 C2433.13,116.12 2438.95,117.42 2444.76,118.81 " fill="none" id="Scene-backto-SceneSaveScreen" style="stroke:#A80036;stroke-width:1.0;"/><polygon fill="none" points="1825.53,43.19,1806.17,34.58,1826.68,29.23,1825.53,43.19" style="stroke:#A80036;stroke-width:1.0;"/><!--MD5=[6774d3f715b13d27728f407867366100]
reverse link Serializable to GameState--><path codeLine="72" d="M729.19,71.18 C717.88,85.8 705.4,101.93 695.54,114.68 " fill="none" id="Serializable-backto-GameState" style="stroke:#A80036;stroke-width:1.0;"/><polygon fill="none" points="723.93,66.54,741.71,55,735.01,75.1,723.93,66.54" style="stroke:#A80036;stroke-width:1.0;"/><!--MD5=[df7dc5bf715dc72859b47f3e3e2f1e17]
reverse link Serializable to SerializableGameObject--><path codeLine="73" d="M790.18,71.18 C801.63,85.8 814.26,101.93 824.24,114.68 " fill="none" id="Serializable-backto-SerializableGameObject" style="stroke:#A80036;stroke-width:1.0;"/><polygon fill="none" points="784.33,75.06,777.51,55,795.35,66.43,784.33,75.06" style="stroke:#A80036;stroke-width:1.0;"/><!--MD5=[9a9337a3640752c7d270055846628537]
link BoatRace to CollisionBounds--><!--MD5=[ffd00cab5b9edc5cce8a7f9ebd64e422]
link BoatRace to PixelBoat--><!--MD5=[e2bdf7e026b918432464cfe37c5c7f45]
link PixelBoat to ObjectType--><!--MD5=[a48ec332c44ab7008640261496749cc3]
@startuml
class AIBoat
abstract class Boat
class BoatRace
class GameState
class CollisionBounds
interface CollisionObject
abstract class GameObject
abstract class MoveableObject
abstract class Obstacle
class ObstacleBranch
class ObstacleDuck
class ObstacleFloatingBranch
class ObstacleLaneWall
abstract class PowerUp
class PowerUpSpeed
class PowerUpDrag
class PowerUpEnergy
class PowerUpHealth
class PowerUpRotation
class PixelBoat
class PlayerBoat
class SceneResultsScreen
interface Scene
class SceneDifficulty
class SceneMainGame
class SceneOptionsMenu
class SceneStartScreen
class SceneTutorial
class SceneAwardScreen
class SceneGameOver
class SceneLoadScreen
class SceneSaveScreen
interface Serializable
class GameState
class SerializableGameObject
enum ObjectType


GameObject <|- - MoveableObject

MoveableObject <|- - Obstacle
CollisionObject <|- - Obstacle
Obstacle <|- - ObstacleBranch
Obstacle <|- - ObstacleDuck
ObstacleBranch <|- - ObstacleFloatingBranch
Obstacle <|- - ObstacleLaneWall

MoveableObject <|- - PowerUp
CollisionObject <|- - PowerUp
PowerUp <|- - PowerUpEnergy
PowerUp <|- - PowerUpSpeed
PowerUp <|- - PowerUpRotation
PowerUp <|- - PowerUpDrag
PowerUp <|- - PowerUpHealth

MoveableObject <|- - Boat
CollisionObject <|- - Boat
Boat <|- - PlayerBoat
Boat <|- - AIBoat

Scene <|- - SceneMainGame
Scene <|- - SceneOptionsMenu
Scene <|- - SceneStartScreen
Scene <|- - SceneTutorial
Scene <|- - SceneDifficulty
Scene <|- - SceneResultsScreen
Scene <|- - SceneAwardScreen
Scene <|- - SceneGameOver
Scene <|- - SceneLoadScreen
Scene <|- - SceneSaveScreen

Serializable <|- - GameState
Serializable <|- - SerializableGameObject

@enduml

PlantUML version 1.2021.00(Sun Jan 10 10:25:05 GMT 2021)
(GPL source distribution)
Java Runtime: Java(TM) SE Runtime Environment
JVM: Java HotSpot(TM) 64-Bit Server VM
Default Encoding: Cp1252
Language: en
Country: GB
--></g></svg>